<?xml version="1.0" encoding="utf-8"?>
<!-- Generator: Adobe Illustrator 21.1.0, SVG Export Plug-In . SVG Version: 6.00 Build 0)  -->
<svg version="1.1" id="Layer_1" xmlns="http://www.w3.org/2000/svg" xmlns:xlink="http://www.w3.org/1999/xlink" x="0px" y="0px"
	 viewBox="0 0 612 792" style="enable-background:new 0 0 612 792;" xml:space="preserve">
<style type="text/css">
	.st0{fill:none;stroke:#000000;stroke-width:2;stroke-linecap:round;stroke-linejoin:round;stroke-miterlimit:10;}
</style>
<path class="st0" d="M432.6,406.4c2.2,0.6,4.5,0.5,6.7,0.6c5.6,0.3,11.1,0.8,16.7,1.4c5.3,0.6,10.7,0.8,16,1.4
	c6.5,0.7,13,1.3,19.5,1.6c7.9,0.5,15.7,0.6,23.6,0.1c4.3-0.3,8.6-0.4,12.9-1c6.6-0.8,13.2-2.3,19.7-4c10.3-2.8,20.5-6.1,30.5-9.8
	c2.8-1,5.7-1.9,8.5-2.9c1.5-0.5,1.6-0.9,1.2-2.4c-1.9-5.7-3.7-11.4-5.6-17.1c-1.9-5.6-4-11.1-7.6-16c-4.7-6.3-10.6-10.4-18.1-12.1
	c-2.3-0.5-4.5-0.8-6.9-0.9c-4.9-0.2-9.7-0.8-14.6-0.9c-2.9-0.1-5.9-0.2-8.8-0.4c-6.8-0.4-13.5-0.7-20.3-1c-4.2-0.2-8.4-0.3-12.6-0.5
	c-6.8-0.3-13.5-0.7-20.3-1c-3.9-0.2-7.8-0.3-11.6-0.5c-5.9-0.3-11.8-0.7-17.7-1c-2.4-0.1-4.8-0.2-7.2-0.4c-6.3-0.4-12.7-0.7-19-1
	c-5-0.3-10-0.4-15.1-0.7c-5.6-0.3-11.2-0.7-16.9-1c-2.6-0.1-5.2-0.3-7.9-0.3c-9-0.3-18-0.5-27-0.9c-1.5-0.1-2.9-0.1-4.4-0.1
	c-11.5-0.1-23-0.1-34.6-0.2c-9.1,0-18.1-0.1-27.2,0c-4.8,0.1-9.5,0-14.3,0.1c-7.5,0.2-15.1,0.4-22.6,0.7c-7.7,0.3-15.4,0.9-23.1,1.3
	c-5,0.3-10.1,0.3-15.1,0.7c-6.3,0.5-12.6,0.6-18.9,1.2c-3.2,0.3-6.4,0.2-9.7,0.3c-7.2,0.3-14.4,0.8-21.6,1.2c-4,0.2-8,0.3-12,0.5
	c-6.8,0.3-13.5,0.7-20.3,1c-3.8,0.2-7.6,0.3-11.5,0.5c-6.5,0.3-13,0.7-19.5,1c-4,0.2-8.1,0.3-12.1,0.5c-3.5,0.2-7.1,0.2-10.6,0.6
	c-3.7,0.4-7.4,0.3-11,1.3c-5.8,1.5-10.7,4.8-14.9,9.2c-5,5.3-7.9,12-10.2,19c-1.8,5.6-3.4,11.2-5.1,16.8c-0.2,0.5-0.3,1-0.5,1.5
	c0.2,0.6,0.7,0.7,1.2,0.8c7.4,2.7,14.8,5.6,22.3,7.9c9.2,2.8,18.4,5.9,28,7.6c6,1.1,12,1.7,18,2.2c6.3,0.5,12.6,0.6,18.8,0.4
	c6.5-0.2,13-0.6,19.5-1.3c5-0.5,9.9-0.8,14.9-1.2c6-0.5,12-1,18-1.8c3.2-0.4,6.4-0.4,9.7-0.6c6.3-0.4,12.6-0.8,18.8-1.2
	c4.7-0.3,9.4-0.4,14.1-0.7c6-0.3,12-0.7,18-1c3.2-0.2,6.3-0.2,9.5-0.3c8.6-0.3,17.1-0.7,25.7-1c3.8-0.1,7.6-0.3,11.5-0.3
	c9.6-0.1,19.1-0.1,28.7-0.2c8.4,0,16.8-0.1,25.2,0c7.2,0.1,14.4,0.4,21.6,0.7c4.3,0.1,8.5,0.3,12.8,0.5c7.6,0.3,15.3,0.7,22.9,1
	c4.8,0.2,9.6,0.4,14.4,0.7c5.4,0.3,10.8,0.7,16.2,1c3.6,0.2,7.2,0.3,10.8,0.5"/>
<path class="st0" d="M172,350.2c-3.4,0.6-6.8,0.4-10.2,0.7c-1.7,0.2-3.5,0.1-5.2,0.1c-6.8,0.2-13.5,0.6-20.3,1
	c-4.9,0.3-9.7,0.4-14.6,0.7c-4.5,0.2-9.1,0.8-13.6,0.8c-2.7,0-5.4,0.2-8,0.4c-3.2,0.3-6.4-0.2-9.5,0.6c-0.3,0.1-0.5,0-0.8,0
	c-5.3,0.2-10.6,0.2-15.9,0.8c-3.7,0.4-7.4,0.3-11,1.5c-5.1,1.8-8.7,5.1-11.6,9.5c-3.1,4.9-4.9,10.4-6.7,15.9c-0.3,0.9-0.1,1.4,1,1.7
	c7.3,2.5,14.4,5.3,21.8,7.4c6.9,2,13.7,4,20.8,5.1c5.2,0.8,10.5,1.3,15.7,1.5c2.1,0.1,4.1,0.4,6.2,0.5c3.6,0,7.2,0,10.8-0.2
	c3.4-0.1,6.8-0.4,10.2-0.7c3.6-0.3,7.2-0.5,10.8-0.8c5.3-0.4,10.6-0.9,15.9-1.4c4.3-0.4,8.6-0.9,12.9-1.4c0.4,0,0.7-0.3,0.9-0.4
	c-0.2-3-0.4-5.9-0.6-8.7c-0.5-6.8-1-13.7-1.5-20.5c-0.3-4.5-0.6-8.9-0.8-13.4"/>
<path class="st0" d="M451,351.1c2.3,0,4.6,0,6.9,0.1c3.2,0.1,6.3,0.3,9.5,0.4c2.9,0.1,5.8,0.3,8.7,0.4c2.6,0.1,5.2,0.4,7.9,0.4
	c3,0,6,0.1,9,0.6c0.8,0.1,1.8-0.2,2.6-0.1c2.7,0.4,5.5,0.2,8.2,0.6c2.6,0.4,5.2,0.4,7.7,0.4c2.8,0,5.6,1,8.4,0.2
	c0.8-0.2,1.6-0.1,2.5,0.3c0.9,0.4,2,0.3,2.9,0.2c1.2-0.1,2.4-0.6,3.4,0.3c0.1,0.1,0.3,0,0.5,0c2.9-0.6,5.7,0.5,8.5,0.2
	c1.1-0.1,2.2-0.1,3.3,0.3c0.6,0.2,1.4,0.2,2.1,0.1c1.2-0.1,2.5-0.4,3.6,0.4c0.4,0.3,1,0.3,1.4,0.2c3.1-0.7,6.1,0.2,8.8,1.2
	c2.3,0.9,5,1.4,6.4,3.9c0.5,0.9,1.6,1,2.2,1.8c1.8,2.5,3.6,5,4.9,7.8c1.6,3.4,2.8,6.9,4,10.5c0.3,0.9,0.3,1.7,0.7,2.6
	c-3.9,1.4-7.7,2.6-11.4,4c-5.9,2.2-11.8,4-17.9,5.6c-4.8,1.3-9.7,2.6-14.6,3.5c-4,0.7-8.2,0.9-12.3,1.2c-5.7,0.4-11.3,0.7-17,0.5
	c-7-0.2-14-0.6-21-1.3c-6.2-0.6-12.4-1-18.7-1.6c-4.2-0.4-8.4-0.8-12.6-1.2c-1.8-0.2-1.9-0.3-1.8-2.2c0.5-6.8,1-13.7,1.5-20.5
	c0.4-6.8,0.8-13.7,1.5-20.5c0.1-0.6-0.1-1-0.8-1c-0.8,0-1.6-0.1-2.5-0.2"/>
<path class="st0" d="M377.2,372c-4-0.8-8-1.6-12-2.4c-13.8-2.7-27.6-5.3-41.4-8c-9.3-1.8-18.6-3.5-27.8-5.2
	c-1.4-0.3-2.7-0.5-4.1-0.7"/>
<path class="st0" d="M309.8,359.3c0,8.6,0,17.3,0,25.9"/>
<path class="st0" d="M552.7,366.1c-2.6,2-4.7,4.5-7,6.8c-4.7,4.7-9.2,9.5-13.8,14.2"/>
<path class="st0" d="M389.5,374.6c-1.5,0.8-3.2,0.4-4.8,0.6c-2.5,0.3-5,0.3-7.7,0.4c0-2.5,0.7-4.7,1-7"/>
<path class="st0" d="M378.4,369c1.6,0.1,2.9,1.1,4.2,1.7c2.3,1,4.5,2.1,6.7,3.2"/>
<path class="st0" d="M309.9,350.4c-0.1,2.9-0.2,5.8-0.3,8.6"/>
<path class="st0" d="M313.2,345.3c-2.2,0-4.4,0-6.6,0"/>
<path class="st0" d="M433.3,400.5c-0.2,1.9-0.4,3.8-0.7,5.8"/>
<path class="st0" d="M186.6,400.5c0.1,1.9,0.1,3.8,0.2,5.8"/>
<path class="st0" d="M71.7,345.8c0.1,1.9,0.1,3.7,0.2,5.6"/>
<path class="st0" d="M309.9,396.4c0,1.8,0,3.6,0,5.4"/>
<path class="st0" d="M548.3,345.8c-0.2,1.7-0.3,3.5-0.5,5.2"/>
<path class="st0" d="M429.2,339.7c0,1.7,0,3.5,0,5.2"/>
<path class="st0" d="M309.8,336c0.4,1.7,0.1,3.5,0.2,5.2"/>
<path class="st0" d="M190.5,339.9c0,1.6,0,3.3,0,4.9"/>
<path class="st0" d="M439.6,393.4c-1.2-0.1-2.4-0.1-3.6-0.2"/>
<path class="st0" d="M445.5,393.9c-1.2-0.1-2.4-0.2-3.6-0.3"/>
<path class="st0" d="M399.7,347.3c0.1,0.8,0.7,0.5,1.1,0.5c0.7,0.1,1.4,0,2.1,0"/>
<path class="st0" d="M208,348.3c-1.2,0.1-2.4,0.1-3.6,0.2"/>
<path class="st0" d="M202.1,348.7c-1.2,0.1-2.4,0.1-3.6,0.2"/>
<path class="st0" d="M421,348.8c-1.2-0.1-2.4-0.1-3.6-0.2"/>
<path class="st0" d="M184.1,349.5c-1.2,0.1-2.4,0.2-3.6,0.3"/>
<path class="st0" d="M435.4,349.5c1.2,0.3,2.4,0.1,3.6,0.2"/>
<path class="st0" d="M178.2,350c-1.2,0-2.4-0.1-3.6,0.2"/>
<path class="st0" d="M444.9,350.2c-1.2-0.1-2.4-0.2-3.6-0.3"/>
<path class="st0" d="M279.8,345.5c-1.2,0-2.4,0-3.6,0"/>
<path class="st0" d="M237.5,390.5c-1.2-0.5-2.4,0.2-3.6,0"/>
<path class="st0" d="M281.7,388.6c1.2,0.2,2.4-0.2,3.6,0.2"/>
<path class="st0" d="M343.3,345.5c-1.2,0-2.4,0-3.6,0"/>
<path class="st0" d="M275.8,388.8c1.2,0.5,2.4-0.2,3.6,0"/>
<path class="st0" d="M344,389c-1.2-0.1-2.4-0.1-3.6-0.2"/>
<path class="st0" d="M349.9,389.2c-1.2-0.1-2.4-0.1-3.6-0.2"/>
<path class="st0" d="M261.8,345.8c-1.2,0.1-2.4,0.1-3.6,0.2"/>
<path class="st0" d="M361.3,346c-1.2-0.1-2.4-0.1-3.6-0.2"/>
<path class="st0" d="M255.9,346.1c-1.2,0-2.4,0-3.6,0"/>
<path class="st0" d="M367.2,346.1c-1.2,0.3-2.4-0.5-3.6,0"/>
<path class="st0" d="M261.4,389.5c-1.2,0.1-2.4-0.2-3.6,0.2"/>
<path class="st0" d="M362,389.7c-1.2-0.3-2.4-0.1-3.6-0.2"/>
<path class="st0" d="M255.5,389.7c-1.2,0.1-2.4,0.1-3.6,0.2"/>
<path class="st0" d="M367.9,389.8c-1.2,0.1-2.4-0.5-3.6,0"/>
<path class="st0" d="M237.8,346.8c-1.2,0.1-2.4,0.1-3.6,0.2"/>
<path class="st0" d="M388.2,390.5c1.2,0.1,2.4,0.2,3.6,0.3"/>
<path class="st0" d="M231.6,390.7c-1.2,0.1-2.4-0.2-3.6,0.2"/>
<path class="st0" d="M213.6,391.5c-1.2,0.1-2.4,0.1-3.6,0.2"/>
<path class="st0" d="M207.7,391.9c-1.2,0.1-2.4,0.1-3.6,0.2"/>
<path class="st0" d="M415.7,392c-1.2-0.1-2.4-0.1-3.6-0.2"/>
<path class="st0" d="M427.5,393c-0.2-1.1-0.9-0.1-1.3-0.3c-0.6-0.4-1.3-0.1-2-0.2"/>
<path class="st0" d="M189.7,392.9c-1.2,0.1-2.4,0.1-3.6,0.2"/>
<path class="st0" d="M183.8,393.2c-1.2,0.1-2.4,0.1-3.6,0.2"/>
<path class="st0" d="M372.8,346.3c-1.1,0-2.2,0-3.3,0"/>
<path class="st0" d="M177.6,393.6c-1.1,0.1-2.2,0.2-3.3,0.3"/>
<path class="st0" d="M192.3,392.5c1.1,0,2.2,0,3.3,0"/>
<path class="st0" d="M421.3,392.4c-1.1-0.1-2.2-0.1-3.3-0.2"/>
<path class="st0" d="M198.2,392.2c1.1,0,2.2,0,3.3,0"/>
<path class="st0" d="M396.7,347.7c-1.1-0.4-2.2-0.1-3.3-0.2"/>
<path class="st0" d="M397.4,391c-1.1,0.2-2.2-0.5-3.3,0"/>
<path class="st0" d="M250,346.3c-1.1,0-2.2,0-3.3,0"/>
<path class="st0" d="M273.9,345.6c-1.1,0-2.2,0-3.3,0"/>
<path class="st0" d="M373.5,390c-1.1,0-2.2,0-3.3,0"/>
<path class="st0" d="M337.1,345.5c-1.1,0-2.2,0-3.3,0"/>
<path class="st0" d="M348.9,345.6c-1.1,0-2.2,0-3.3,0"/>
<path class="st0" d="M243.4,390.2c-1,0.2-2.2-0.5-3.1,0.5"/>
<path class="st0" d="M190,349.2c-1.1,0.1-2.2,0.2-3.3,0.3"/>
<path class="st0" d="M415.1,348.5c-1.1-0.1-2.2-0.1-3.3-0.2"/>
<path class="st0" d="M213.4,348c-1,0.1-2.1,0.2-3.1,0.3"/>
<path class="st0" d="M390.7,347.3c-1-0.4-2.1-0.1-3.1-0.2"/>
<path class="st0" d="M303.4,345.3c-1,0-2,0-2.9,0"/>
<path class="st0" d="M319.1,345.3c-1,0-2,0-2.9,0"/>
<path class="st0" d="M325,345.3c-1,0-2,0-2.9,0"/>
<path class="st0" d="M267.3,345.6c-1,0.1-2,0.1-2.9,0.2"/>
<path class="st0" d="M355.1,345.8c-1-0.1-2-0.1-2.9-0.2"/>
<path class="st0" d="M331.2,345.3c-1,0-2,0-2.9,0"/>
<path class="st0" d="M243.7,346.5c-1,0.1-2,0.1-2.9,0.2"/>
<path class="st0" d="M378.7,346.6c-1-0.1-2-0.1-2.9-0.2"/>
<path class="st0" d="M384.6,347c-1-0.1-2-0.1-2.9-0.2"/>
<path class="st0" d="M433.1,393c-1-0.1-2-0.1-2.9-0.2"/>
<path class="st0" d="M231.9,347.2c-1,0.1-2-0.2-2.9,0.2"/>
<path class="st0" d="M219.5,391.2c-1,0.1-2,0.1-2.9,0.2"/>
<path class="st0" d="M409.2,391.7c-1-0.1-2-0.1-2.9-0.2"/>
<path class="st0" d="M403.3,391.4c-1-0.1-2-0.1-2.9-0.2"/>
<path class="st0" d="M249.3,389.8c-1,0.3-2,0.1-2.9,0.2"/>
<path class="st0" d="M225.4,390.8c-1,0.1-2,0.1-2.9,0.2"/>
<path class="st0" d="M385.6,390.5c-1-0.1-2-0.1-2.9-0.2"/>
<path class="st0" d="M379.4,390.3c-1-0.3-2-0.1-2.9-0.2"/>
<path class="st0" d="M267.3,389.2c-1,0.3-2,0.1-2.9,0.2"/>
<path class="st0" d="M432.8,349.5c-1-0.1-2-0.1-2.9-0.2"/>
<path class="st0" d="M291.6,345.3c-1,0-2,0-2.9,0"/>
<path class="st0" d="M272.9,389c-1,0.1-2,0.1-2.9,0.2"/>
<path class="st0" d="M195.6,349c-1,0.1-2,0.1-2.9,0.2"/>
<path class="st0" d="M426.9,349.2c-1-0.1-2-0.1-2.9-0.2"/>
<path class="st0" d="M297.5,345.3c-1,0-2,0-2.9,0"/>
<path class="st0" d="M408.9,348.2c-1,0-2,0.1-2.9-0.2"/>
<path class="st0" d="M337.8,388.8c-1-0.1-2-0.1-2.9-0.2"/>
<path class="st0" d="M528.4,390.8c0.9-1.2,2.7-1,3.6-2.5c-0.1-0.7-0.7-1.1-1.6-1.5c-0.6,0.9-1.5,1.8-1.2,3.2"/>
<path class="st0" d="M285.2,345.5c-0.9,0-1.9,0-2.8,0"/>
<path class="st0" d="M222.9,347.5c0.9,0,1.9,0,2.8,0"/>
<path class="st0" d="M219.3,347.8c-0.9,0-1.9,0-2.8,0"/>
<path class="st0" d="M355.5,389.3c-0.9,0-1.7,0-2.6,0"/>
</svg>
