<?xml version="1.0" encoding="utf-8"?>
<!-- Generator: Adobe Illustrator 21.1.0, SVG Export Plug-In . SVG Version: 6.00 Build 0)  -->
<svg version="1.1" id="Layer_1" xmlns="http://www.w3.org/2000/svg" xmlns:xlink="http://www.w3.org/1999/xlink" x="0px" y="0px"
	 viewBox="0 100 600 600" style="enable-background:new 0 100 600 600;" xml:space="preserve">
<path d="M482.1,259.3c-1.3,5.4-1,10.8-0.1,16.2c0.3,1.6,1.5,0.9,2.2,0.7c1.6-0.4,2-0.1,1.3,1.4c-0.5,1.1-0.8,2.2-1.2,3.4
	c1.6,0.2,3-0.3,4.4-0.6c4.8-1,9.7-2,14.5-3.1c1.5-0.4,2-0.1,2.3,1.3c3.2,14.9,6.6,29.8,9.8,44.6c2.1,9.4,4.2,18.8,5.8,28.3
	c0.3,1.9,1.2,2.4,3,2.6c5.9,0.5,11.3,2.4,16,5.7c6.7,4.7,10.5,11.1,13.1,18.3c0.4,1.2-0.3,1.7-1.3,2.2c-4.6,2.2-9.5,3.7-14.5,5
	c-12.2,3-24.8,4.5-37.4,5.5c-0.8,0.1-1.7,0.1-2.5,0.2c-0.2,0.8,0.5,0.9,0.9,1.2c4.4,2.8,8.8,5.6,13.1,8.5c1.1,0.8,1.7,0.6,2.4-0.5
	c1.3-1.8,1.3-1.8,2.4,0.2c0.9,1.6,1.7,3.3,2.7,4.9c0.6,1,0.6,1.5-0.9,1.4c-2.3-0.3-4.6-0.5-7-0.7c-1-0.1-1.4-0.3-0.7-1.2
	c0.3-0.3,0.5-0.7,0.8-1.1c0.5-0.6,0.5-1.1-0.2-1.5c-5.5-3.5-11-7.1-16.5-10.6c-0.5-0.3-1-0.4-1.5-0.3c-16.8,1.1-33.7,1.2-50.6,1.4
	c-0.2,0-0.5,0-1.2,0.1c1.6,0.5,2.9,0.4,4.1,0.4c0.8,0,1.3,0.1,0.7,1c-1.3,2.3-1.3,2.3,1.2,3.7c13.6,7.6,27.3,15.2,40.9,22.8
	c2.3,1.3,1.9,1.4,3.3-0.7c0.2-0.4,0.4-0.8,1.1-1c1.5,2.4,3.1,4.9,4.8,7.6c-2.1,0-4,0-5.8,0c-0.5,0-1.1,0-1.6-0.1
	c-2.5-0.1-2.6-0.2-1.2-2.1c0.9-1.3,0-1.6-0.9-2.1c-11.2-6.3-22.4-12.5-33.7-18.8c-2.9-1.6-5.8-3.1-8.6-4.8c-1.4-0.8-2.2-0.8-2.8,0.7
	c-0.2,0.4-0.6,0.8-1.1,1.6c-1.2-2-2.5-3.7-3.4-5.6c-1.1-2.2-2.6-2.9-5.2-2.9c-33.3,0-66.7-1-100-1.6c-12.4-0.2-24.8,0-37.2,0
	c-55.9,0-111.7,2.6-167.6,1.9c-21.6-0.3-43.2-1-64.6-4.3c-9.9-1.5-19.8-3.5-28.9-7.7c-2.2-1-2.3-1.2-1.5-3.3
	c2.7-7,6.6-13.2,13.2-17.6c4.1-2.8,8.7-4.4,13.7-5.2c1.4-0.2,1.6-0.7,1.2-1.8c-0.7-1.9-1.3-3.9-2-5.9c-0.4-1.1-0.1-1.3,1.1-1.1
	c2.7,0.6,2.5,0.6,3-2c4.2-19,8.3-37.9,12.5-56.9c0.5-2.2,0.5-2.2-1.9-2.6c-1.4-0.2-1.4-0.6-0.5-1.5c1.7-1.7,3.3-3.5,4.9-5.3
	c0.7-0.8,1.4-1,2.5-0.7c17.8,4.2,35.8,7.1,53.9,9.5c13,1.7,26,3,39,4.1c25.3,2.1,50.7,3.3,76.2,3.8c10.1,0.2,20.2,0.3,30.3,0.4
	c16.6,0.1,33.3,0,49.9-0.2c1.6,0,2.8-1.3,2.7-2.7c0-0.6-0.5-0.7-1-0.8c-10.4-3.4-20.8-6.7-31.1-10.1c-1.5-0.5-1.5,0.5-1.9,1.3
	c-0.7,1.8-0.7,1.8-2.1,0.4c-1.5-1.6-3-3.1-4.6-4.7c-0.6-0.6-0.7-1,0.4-1.1c2.5-0.4,5.1-0.8,7.6-1.2c0.8-0.1,1.1,0.1,0.8,0.9
	c-0.7,2.6-0.7,2.6,2.1,3.5c9.4,3,18.7,6.1,28.1,9.1c2.9,1,2.4,0.9,3.3-1.5c0.1-0.3,0.3-0.6,0.6-1.2c2.2,2.3,4.4,4.5,6.6,6.8
	c-1.3,0.7-2.8,0.4-4.2,1.2c48.1-1.1,95.6-3.9,143-12.2c-1.1-1.3-2-2.4-2.9-3.4c-0.7-0.8-0.8-1.2,0.5-1.3c0.4,0,0.7-0.2,1.1-0.2
	c1.3,0,1.6-0.6,1.4-1.7c-0.9-5.3-1-10.7,0.1-16C480.9,259.3,481.5,259.3,482.1,259.3z M55.3,356.7c-0.5,0.1-1,0.3-1.5,0.4
	c-2.1,0.5-4,1.3-5.5,2.7c-0.1,0-0.2,0-0.3,0c-1.8,1-3.7,2-4.7,3.9c0-0.1,0.1-0.1,0.1-0.1c-0.8,0.3-1.4,0.8-1.9,1.4
	c-3.4,3.7-5.7,7.9-7.5,12.4c-0.5,1.3-0.4,1.9,1,2.6c6,2.7,12.4,4.3,18.9,5.8c1,0.2,1.1-0.2,0.9-1c-0.6-1.7-1.2-3.5-1.8-5.2
	c-0.8-2.4-0.8-2.4,1.8-2c1.3,0.2,1.5-0.5,1.7-1.4c0.2-1.2,0.1-1-0.7-1.6c-0.7-0.5-1.3-0.3-1.9-0.6c-1.2-0.5-2.2-1.1-3.4,0.2
	c0.4-1.9,0.9-3.7,1.4-5.4c0.2-0.6,1.3-1.2,1.4-1c0.5,0.9,1,0.9,1.7,0.3c0.4,1.1,1.8-0.7,2.1,0.7c0.1,0.3,0.5,0.2,0.6,0
	c0.7-1.4,1-2.9,1-4.4c0-1.2-1.5-0.8-2.3-1c-1.2-0.3-1.1-0.7-0.4-1.4c1.4-1.5,3-2.9,4.1-4.6c1.1-1.7,2.5-2.2,4.4-2.1
	c0.5,0,1.3-0.3,1.4,0.4c0.1,0.8-0.7,0.5-1.2,0.6c-0.4,0.1-0.8,0.1-1.2,0.1c-1.2,0-1.6,0.5-1.1,1.6c0.6,1.6,1.2,3.3,1.7,4.9
	c0.7,2,0.7,2.1-1.5,1.7c-1.4-0.3-1.8,0.1-2.2,1.4c-0.4,1.5-0.1,2.7,0.7,4c0.5,0.3,1.1-1.8,1.6,0.1c0,0.1,0.4,0.2,0.4,0.1
	c0.9-0.7,1.8,1.6,2.6-0.1c0.1,0.1,0.2,0.3,0.3,0.3c1,0.3,2,1,3,0.1c2,2.6-0.1,4.9-0.5,7.7c-0.7-0.9-0.5-2.7-2-1.3
	c-0.2-0.2-0.3-0.4-0.5-0.4c-0.7-0.1-1.3-0.9-1.7-0.8c-1.7,0.3-3.4,0-5-0.2c-0.4-0.1-0.9-0.2-1.1,0.5c-0.5,1.9-0.4,2.1,1.7,2.5
	c1.8,0.4,1.8,0.4,0.6,1.8c-1.3,1.5-2.6,3-4,4.5c-0.9,1-1.1,1.4,0.6,1.7c14.5,2.7,29.3,3.8,44,4.6c24.6,1.2,49.2,0.9,73.8,0.7
	c38.6-0.3,77.3-2.3,115.9-1.5c0.7,0,1.4,0.1,2-0.8c-0.9-0.1-1.6-0.1-2.3-0.1c-0.4,0-1,0.1-1-0.4c0-0.7,0.7-0.5,1.1-0.5
	c1.5,0.1,1.3-0.5,0.7-1.4c-0.7-1-1.3-2.1-2-3.2c-1-1.6-1-1.7,1.1-1.6c1.6,0,2.1-0.4,2-1.9c-0.2-5.7-0.2-11.3-0.3-17
	c0-2.8,0-2.8-2.9-3c-0.8-0.1-1-0.2-0.7-1c0.4-1.1,2-1.9,0.8-3.4c0,0,0.2-0.3,0.3-0.4c1.6-0.1,1.8-1.5,2.4-2.4
	c0.7-1.2,1.1-0.9,1.6,0.1c1.1,1.8,2.2,3.6,3.3,5.4c1,1.6,1,1.7-1,1.6c-1.8-0.1-2.1,0.6-2,2c0.2,5.8,0.2,11.5,0.3,17.3
	c0,2.4,0,2.5,2.6,2.5c1.3,0,1.2,0.5,0.7,1.3c-0.8,1.3-1.5,2.5-2.2,3.8c-0.2,0.4-0.7,0.9,0.3,1.1c0.4,0.1,1-0.1,0.9,0.5
	c-0.1,0.5-0.6,0.4-1,0.4c-0.4,0.1-1-0.2-1.3,0.5c0.6,0.3,1.3,0.2,1.9,0.2c11.7-0.3,23.5-0.2,35.2,0c34.7,0.7,69.4,1.7,104.1,1.7
	c18.2,0,36.4-0.1,54.5-1.2c0.7,0,1.4,0.1,2.1-0.4c-0.6-0.4-0.8-0.9-1.7-0.5c-1.1,0.5-2.5,0.3-3.7,0.4c-0.3,0-0.7,0-0.7-0.3
	c-0.1-0.5,0.3-0.5,0.7-0.6c1-0.1,2-0.2,3-0.3c-0.3-0.9-1.1-1.1-1.6-1.5c-11-7.1-22-14.1-33.1-21.2c-2.8-1.8-2.8-1.8-4.8,0.6
	c-0.1,0.1-0.3,0.2-0.6,0.4c-1.5-2.7-2.9-5.3-4.5-8.3c3.1,0.3,5.7,0.6,8.4,0.8c1.4,0.1,2,0.4,0.8,1.6c-1.4,1.3-0.8,2.1,0.6,3
	c11.6,7.4,23.2,14.8,34.7,22.2c2.3,1.5,4.4,2.8,7.4,2c0.2,0,0.4,0,0.5,0c0.3,0,0.6,0.1,0.6,0.4c0,0.3-0.3,0.4-0.6,0.5
	c-0.7,0.1-1.5,0-2.2,0.4c0.4,0.6,0.9,0.4,1.4,0.4c13.8-1,27.6-2.5,41.1-5.9c2.1-0.5,4.3-1,6.2-2l-0.1,0.1c0.9,0.1,1.7-0.4,2.6-0.7
	c0.3-0.1,0.5-0.2,0.6-0.5c0.2-1,2.9-2.7,3.8-2.3c0.4,0.2,0.8,1.2,1.3,0.2c0.3-0.6,0-1.5-0.7-1.9c-2-1-2.6-2.2-1.8-4.2
	c0.1-0.2,0-0.4-0.1-0.6c-1.9-3.5-4.1-6.7-7.6-9.6c0.2,0.5,0.3,0.7,0.4,0.8c0.2,0.5,1.3,0.9,0.6,1.4c-0.6,0.4-1-0.6-1.4-0.9
	c-1.1-0.8-1.2-2.2-1.9-3.1c-1.2-1.4-3.1-2.1-5-2.8c0.7,0.6,1.6,1,2.4,1.5c0.2,0.1,0.3,0.3,0.3,0.5c0,0.1-0.2,0.3-0.3,0.3
	c-0.5,0.1-3.9-1.8-3.7-2.2c0.4-1.1-0.6-1.1-1.1-1.3c-4.1-1.4-8.4-1.9-12.8-2.1c-28.3-0.9-56.7-1.6-85.1-2
	c-46.1-0.6-92.1-1-138.2-1.5c-0.8,0-2.2,0.3-2.2-0.4c0.1-1,1.5-0.5,2.2-0.5c37.6,0.4,75.3,0.8,112.9,1.2c1.6,0,3-0.2,4.5-0.8
	c14.2-5.9,28.4-11.8,42.5-17.8c1.1-0.4,2.3-0.7,2.9-1.8c0.1-0.3,0.4-0.5,0.7-0.3c0.9,0.6,1.6,0,2.3-0.3c8.7-3.6,17.4-7.2,26-10.8
	c1-0.4,1.9-0.8,2.4-1.9c0.1-0.3,0.6-0.9,0.9-0.4c0.7,1,1.3,0.3,1.9,0.1c4.5-1.8,9-3.7,13.4-5.6c1.5-0.6,3.6-1,4.4-2.1
	c0.9-1.2-0.3-3.1-0.6-4.6c-1.9-8.6-3.8-17.2-5.6-25.7c-0.2-0.7-0.2-1.4-1.4-1.1c-3.8,0.9-7.7,1.7-11.5,2.5c-0.9,0.2-1.3,0.6-1.4,1.6
	c0.4,0,0.7-0.1,1.1-0.1c0.4,0,1.1-0.4,1.2,0.2c0.2,0.6-0.6,0.5-1,0.7c-1,0.3-2.3,0.2-2.9,1.3c-0.1,0.2-0.3,0.3-0.6,0.2
	c-0.3-0.2-0.2-0.4-0.2-0.7c-0.1-1,1.4-1.4,1.3-2.6c-1.6,0.3-3.1,0.5-4.6,0.9c-0.5,0.1-0.8,0.5-0.8,1c-0.1,0.7,0.5,0.4,0.9,0.5
	c0.2,0,0.5,0.1,0.5,0.4c0,0.3-0.2,0.4-0.4,0.4c-1.1,0.3-2.3,0.6-3.5,0.6c-0.2,0-0.5,0-0.5-0.3c0-0.1,0.1-0.3,0.2-0.4
	c0.2-0.3,1.3-0.1,0.8-0.9c-0.4-0.7-1.1-0.5-1.8-0.4c-1.8,0.3-3.5,0.7-5.3,1c-25.6,4.2-51.5,6.9-77.5,8.6
	c-24.7,1.6-49.3,2.5-74.1,2.7c-9.4,0.1-18.8,0.1-28.2,0.1c-1.4,0-1.7,0.3-1,1.5c1,1.5,1.8,3.1,2.9,4.6c0.8,1.2,0.6,1.7-1,1.5
	c-1.9-0.2-2.3,0.6-2.2,2.2c0.2,11.4,0.3,22.7,0.4,34.1c0,2.5,0,2.5,2.6,2.6c0.7,0,1.5,0,0.9,1c-1.4,2.4-2.7,4.7-4.3,7.4
	c-1.5-2.5-2.8-4.8-4.3-6.9c-0.8-1.2-0.4-1.6,1-1.4c1.8,0.2,2.3-0.4,2.3-2.1c-0.2-11.3-0.3-22.6-0.4-33.9c0-2.6,0-2.6-2.8-2.8
	c-0.9-0.1-1.2-0.3-0.7-1.1c1-1.6,1.9-3.3,2.9-5c1-1.7,1-1.7-1-1.7c-14.2,0-28.5,0-42.7-0.4c-15.2-0.4-30.4-0.9-45.5-1.8
	c-16-0.9-32-2.2-47.9-3.8c-15.3-1.6-30.5-3.6-45.6-6.2c-9.1-1.6-18.1-3.3-27-5.4c-1.7-0.4-2-0.1-1.5,1.4c0.5,1.7,1.1,3.4,1.7,5.1
	c0.5,1.3,0.1,1.6-1.3,1.3c-0.7-0.2-1.7-0.7-2.1,0.1c-0.6,1.3-0.9,2.7-0.6,4.2c0.5-1,0.8-2.1,1.1-3.1c0.1-0.3,0.1-0.6,0.5-0.6
	c0.3,0,0.5,0.1,0.5,0.4c-0.1,1.3,0,2.9-0.9,3.6c-1,0.7-0.5,1.1-0.3,1.6c0.1,0.2,0.2,0.4-0.1,0.6c-0.3,0.2-0.5,0.1-0.8-0.1
	c-0.2-0.2-0.2-0.7-0.8-0.6c-1.7,4.7-4.2,17.7-3.6,18.5c0.6-0.5,0.4-1.3,0.6-1.9c0.1-0.4,0.1-1.1,0.7-1c0.8,0.1,0.4,0.9,0.3,1.2
	c-0.8,1.9,0.2,2.6,2,3.4c14.3,5.9,28.5,11.9,42.8,17.7c1.6,0.6,3,2,5,1.4c0.1,0,0.4,0.2,0.5,0.4c0.5,1,1.6,1.3,2.6,1.7
	c14.2,5.9,28.5,11.9,42.7,17.8c1.5,0.6,3,0.9,4.7,0.9c38.5-0.4,77.1-0.8,115.6-1.2c0.5,0,1,0,1.4,0c0.3,0,0.5,0.1,0.5,0.4
	c0,0.3-0.2,0.4-0.5,0.4c-0.7,0-1.4,0.1-2.2,0.1c-62.9,0.7-125.9,1-188.8,2.6c-9.5,0.2-19,0.3-28.5,0.9c-2.2,0.1-4.4,0.1-6.6,0.1
	c-0.3,0-0.7,0-0.7-0.3c-0.1-0.5,0.3-0.5,0.7-0.5c1-0.1,1.9-0.1,2.9-0.1c14.3-0.4,28.6-0.8,42.9-1.2c0.7,0,1.9,0.5,1.8-1.1
	c-0.1-0.6,0.7-0.4,0.8,0c0.4,1.2,1.4,1,2.3,1c16.9-0.3,33.9-0.6,50.8-0.9c0.6,0,1.2,0.2,1.7-0.2c-0.3-0.6-0.9-0.7-1.4-0.9
	c-2.9-1.3-5.9-2.5-8.8-3.7c-10.1-4.2-20.2-8.4-30.3-12.6c-0.5-0.2-1.1-0.9-1.5-0.2c-0.7,1.3-1.2,0.6-1.4-0.1c-0.4-1-1.3-1.5-2.3-1.9
	c-8.5-3.5-17-7.1-25.5-10.6c-0.5-0.2-0.9-0.5-1.4-0.4c-0.1,0.4,0.2,0.7,0.4,0.9c0.3,0.5,1.1,1.2,0.4,1.6c-0.8,0.5-0.8-0.6-1.3-1
	c-1-0.9-1-2.4-2.4-3c-6.5-2.7-13-5.3-19.5-8.1c-1.2-0.5-1.7-0.3-1.9,0.9c-2.4,10.9-4.8,21.8-7.1,32.7c-0.1,0.4-0.4,1,0.5,1.3
	c0.6-0.9,0.6-2,0.9-3c0.1-0.4,0.1-1.1,0.7-1c0.7,0.1,0.3,0.7,0.3,1.1c-0.1,0.6-0.2,1.2-0.4,1.8c-0.2,0.8-0.5,1.5,0.8,1.8
	c1,0.2,0.4,0.8,0.1,1.1c-1.8,1.5-2.5,3.4-2.8,5.4c-0.2,1-0.7,1.3-1.7,1.4C60.4,355.3,57.7,355.6,55.3,356.7z M414.4,351.2
	c0.9,0.4,1.6,0.3,2.2,0.3c16.5,0.3,33,0.5,49.5,0.9c2.1,0,3.3-0.3,4.1-2.1c0.3-0.7,0.8-2.1,1.5-1.7c1,0.6-0.3,1.5-0.7,2.2
	c-0.9,1.7-1,1.7,1.2,1.8c15.4,0.4,30.8,0.8,46.3,1.3c2.1,0.1,2.1,0.1,1.7-1.9c-1.8-8.9-3.7-17.9-5.5-26.8c-0.9-4.4-2-8.8-3-13.2
	c-0.1-0.4,0-1.2-0.9-0.9c-0.7,0.2-0.5,0.7-0.4,1.2c0.1,0.5,0.2,1.1,0.4,1.6c0.1,0.3,0.2,0.7-0.3,0.8c-0.5,0.1-0.6-0.2-0.7-0.6
	c-0.1-0.3-0.3-0.6-0.3-1c0-1.7-0.9-1.4-2.1-0.9c-5.2,2.2-10.4,4.3-15.5,6.5c-1,0.4-2,0.8-2.4,1.9c-0.1,0.4-0.6,0.8-0.9,0.4
	c-0.8-0.9-1.4-0.2-2,0c-8.4,3.5-16.8,7-25.2,10.5c-1.4,0.6-2.9,1-3.5,2.6c-0.1,0.4-0.9,0.8-1,0.3c-0.4-1.7-1.3-0.5-1.7-0.3
	c-13.1,5.4-26.1,10.8-39.1,16.3C415.6,350.6,415.1,350.8,414.4,351.2z M64.7,373.7c0.4,0,0.5,0.2,0.6,0.4c0.8,0.6,0.8-0.3,1.2-0.5
	c0.3-0.2,0.4-0.6,0.1-0.9c-0.8,1.1-1.5-1.1-2.3-0.1c-0.2,0.2-0.4,0.1-0.6-0.1c-0.2-0.3-0.3-0.9-0.8-0.4c-0.3,0.3-0.7,0.7-0.6,1.1
	c0.1,0.6,0.6,0.1,0.8,0.3C63.7,373.9,64.2,374.5,64.7,373.7z M57.3,371.6c0-0.4-1.3-1.1-1.7-0.9c-0.4,0.2-0.6,0.6-0.9-0.1
	c-0.3-0.8-0.7-0.2-1,0c-0.3,0.2-0.9,0.3-0.7,0.8c0.3,0.7,0.6,0,1-0.1c0.3,0,0.4,0.2,0.5,0.3c0.5,0.6,1.7-0.2,2.1,0.7
	C56.9,372.3,57.2,372,57.3,371.6z"/>
<path d="M55.1,335.3c-0.2,0.5-0.1,1.1-0.8,0.7c-1-0.5-1.9-1.1-2.9-1.6c-0.3-0.2-0.4-0.5-0.2-0.9c0.2-0.4,0.6-0.3,0.9-0.1
	C53.1,334,54.3,334.4,55.1,335.3z"/>
<path d="M55.3,356.7c1,0.1,2.5-0.9,2.7,0c0.3,1-1.5,0.8-2.4,1.1c-0.5,0.2-1.9,1.5-1.8-0.6C54.4,357,54.9,356.8,55.3,356.7z"/>
<path d="M48.4,359.8c0.9-0.3,1.8-1.5,2.5-0.6c0.5,0.6-1.2,0.8-1.8,1.4c0,0-0.1,0.1-0.1,0.1c-0.6,0.2-1.2,1.2-1.8,0.6
	c-0.6-0.6,0.6-1,0.9-1.5C48.2,359.8,48.3,359.8,48.4,359.8z"/>
<path d="M43.4,363.6c0.4-0.3,0.8-0.8,1.2-0.4c0.5,0.5-0.2,0.8-0.4,1.1c-0.4,0.5-0.9,0.9-1.3,1.4c-0.4,0.3-0.7,1.1-1.2,0.7
	c-0.6-0.4,0.1-0.9,0.4-1.2c0.5-0.6,1-1.1,1.5-1.6C43.5,363.6,43.4,363.6,43.4,363.6z"/>
<path d="M527.8,376.2c-3.5,0-6.2-2.6-6.2-5.8c0-3.2,2.8-5.8,6.3-5.8c3.4,0,6.2,2.6,6.3,5.8C534.1,373.6,531.3,376.2,527.8,376.2z"/>
<path d="M38.7,380.8c-1.3-0.5-2.7-1.1-4.1-1.6c-0.3-0.1-0.3-0.5-0.2-0.7c0.1-0.3,0.1-0.5,0.3-0.8c0.5-0.8,0.5-2.6,1.4-2.4
	c1.1,0.4-0.2,1.5-0.4,2.4c-0.2,0.8,0.3,1,0.8,1.2c0.8,0.4,1.6,0.7,2.4,1.1c0.2,0.1,0.4,0.3,0.3,0.5C39.2,380.8,39,380.8,38.7,380.8z
	"/>
<path d="M506.8,292.5c-0.8,1.3-1.5,2.3-2.3,3.4c-0.1,0.1-0.3,0.1-0.5,0c-0.3-0.1-0.4-0.4-0.2-0.5c1.6-1.7,1.2-3.6,0.6-5.5
	c0-0.2,0.1-0.4,0.3-0.5c0.2-0.2,0.5,0,0.6,0.2C505.7,290.6,505.6,291.8,506.8,292.5z"/>
<path d="M95.3,282.9c-0.2,0.7,1.2,1.5,0.3,1.9c-0.8,0.4-0.9-0.9-1.4-1.4c-0.3-0.4-0.5-0.9-1-1.1c-0.4-0.1-1.1-0.2-0.7-0.8
	c0.3-0.4,0.9-0.7,1.4-0.3c0.5,0.4,1.2,0.5,1.8,0.7c0.4,0.2,1.3,0,1.2,0.7C96.7,283.4,95.9,282.5,95.3,282.9z"/>
<path d="M287.5,296.2c0.8,0.3,2.3-0.3,2.3,0.5c0,1-1.4,0.5-2.2,0.5c-0.8,0-2.3,0.5-2.2-0.5C285.3,295.8,286.8,296.7,287.5,296.2z"/>
<path d="M363.9,389c0.8,0.3,2.3-0.3,2.3,0.5c0,0.9-1.5,0.4-2.3,0.4c-0.8,0-2.2,0.4-2.2-0.4C361.8,388.5,363.2,389.3,363.9,389z"/>
<path d="M253.2,388.4c0.7,0.2,2-0.4,2,0.4c0,0.9-1.2,0.5-1.9,0.5c-0.9,0-2.4,0.6-2.4-0.4C250.8,388.1,252.4,388.6,253.2,388.4z"/>
<path d="M336.2,296.7c-0.9-0.3-2.4,0.4-2.4-0.5c0-0.9,1.5-0.5,2.3-0.5c0.7,0,2.2-0.5,2.1,0.4C338.2,297.2,336.8,296.2,336.2,296.7z"
	/>
<path d="M457.1,389.8c0.7,0.2,2.1-0.4,2.1,0.5c0,0.9-1.4,0.5-2.1,0.5c-0.8,0-2.3,0.5-2.3-0.4C454.9,389.5,456.3,390.1,457.1,389.8z"
	/>
<path d="M402.6,390.7c-0.7-0.3-2,0.4-2-0.6c0-0.7,1.3-0.4,2-0.4c0.9,0.1,2.4-0.5,2.4,0.5C405,391.1,403.4,390.5,402.6,390.7z"/>
<path d="M248.8,295.9c0.7,0.3,2.1-0.4,2.2,0.6c0,0.8-1.4,0.4-2.2,0.3c-0.8,0-2.2,0.4-2.2-0.6C246.6,295.5,248,296.1,248.8,295.9z"/>
<path d="M358.7,296.2c-0.4-0.1-1.7,0.4-1.7-0.3c0-1,1.3-0.4,2-0.5c0.5-0.1,1.1,0,1.6,0c0.4,0,1-0.1,1,0.4c0,0.5-0.6,0.5-1,0.5
	C360.1,296.2,359.5,296.2,358.7,296.2z"/>
<path d="M384.8,356.2c0.8,0.3,2.2-0.3,2.2,0.5c0,1-1.4,0.5-2.2,0.5c-0.8,0-2.2,0.4-2.2-0.4C382.6,355.7,384,356.5,384.8,356.2z"/>
<path d="M297.2,297c-0.7-0.3-2.2,0.4-2.1-0.4c0-1.1,1.4-0.5,2.2-0.5c0.8,0,2.2-0.5,2.2,0.4C299.5,297.4,298,296.7,297.2,297z"/>
<path d="M136.5,358.5c-0.8-0.2-2,0.4-2.1-0.5c0-0.8,1.3-0.5,2-0.5c0.8,0,2.4-0.4,2.3,0.3C138.7,358.9,137.2,358,136.5,358.5z"/>
<path d="M361.6,356.9c-0.8-0.3-2.3,0.4-2.3-0.6c0-0.9,1.5-0.4,2.3-0.4c0.7,0,2.1-0.5,2.1,0.5C363.7,357.3,362.3,356.6,361.6,356.9z"
	/>
<path d="M477.7,357.8c0.8,0.3,2.3-0.3,2.3,0.5c0,0.9-1.5,0.4-2.3,0.4c-0.8,0-2.2,0.3-2.1-0.5C475.6,357.4,476.9,358.1,477.7,357.8z"
	/>
<path d="M454.7,358.2c-0.8-0.3-2.3,0.3-2.3-0.7c0-0.8,1.4-0.4,2.2-0.3c0.8,0,2.2-0.5,2.2,0.5C456.7,358.6,455.3,357.9,454.7,358.2z"
	/>
<path d="M136.7,390c0.7,0.3,2.2-0.4,2.1,0.5c0,1-1.4,0.5-2.2,0.5c-0.7,0-2.1,0.5-2.1-0.5C134.6,389.6,135.9,390.2,136.7,390z"/>
<path d="M438.9,356.9c0.8,0.3,2.3-0.4,2.3,0.5c0,0.9-1.5,0.4-2.3,0.4c-0.8,0-2.2,0.4-2.1-0.4C436.8,356.4,438.2,357.2,438.9,356.9z"
	/>
<path d="M320.5,295.8c0.8,0.3,2.2-0.4,2.2,0.5c0,0.9-1.4,0.4-2.1,0.5c-0.8,0-2.3,0.4-2.3-0.4C318.3,295.4,319.8,296.3,320.5,295.8z"
	/>
<path d="M252.9,356.5c-0.7-0.3-2.1,0.4-2.1-0.5c0-0.8,1.4-0.4,2.2-0.4c0.8,0,2.2-0.4,2.2,0.3C255.1,356.9,253.7,356.2,252.9,356.5z"
	/>
<path d="M400.3,357.4c-0.8-0.2-2.3,0.3-2.2-0.4c0.1-1,1.4-0.5,2.2-0.5c0.8,0,2.2-0.3,2.2,0.4C402.4,357.9,401,357.1,400.3,357.4z"/>
<path d="M330.3,355.4c0.9,0.3,2.4-0.4,2.4,0.6c0,0.9-1.5,0.4-2.3,0.4c-0.7,0-2.1,0.4-2.1-0.5C328.3,355,329.7,355.8,330.3,355.4z"/>
<path d="M113.2,389.6c0.9,0.3,2.4-0.3,2.3,0.6c0,0.8-1.5,0.4-2.3,0.4c-0.7,0-2,0.3-2-0.4C111.3,389.1,112.6,390.1,113.2,389.6z"/>
<path d="M304.8,297c-0.7-0.2-2,0.3-2-0.4c0-1,1.3-0.6,2-0.5c0.8,0,2.4-0.5,2.4,0.4C307.2,297.4,305.6,296.7,304.8,297z"/>
<path d="M309.9,389.1c-0.9-0.3-2.3,0.4-2.3-0.6c0-0.8,1.4-0.4,2.2-0.4c0.8,0,2.2-0.5,2.2,0.5C312,389.5,310.5,388.8,309.9,389.1z"/>
<path d="M268.7,388.2c0.7,0.3,2-0.4,2,0.6c0,0.7-1.3,0.4-2,0.4c-0.8-0.1-2.3,0.6-2.4-0.5C266.3,387.9,267.9,388.4,268.7,388.2z"/>
<path d="M387.1,389.4c0.8,0.3,2.3-0.3,2.3,0.5c0,0.9-1.5,0.4-2.3,0.4c-0.7,0-2.2,0.4-2.1-0.4C385,389,386.4,389.7,387.1,389.4z"/>
<path d="M214.2,355.8c0.8,0.4,2.1-0.4,2.2,0.6c0,0.7-1.3,0.4-2,0.4c-0.8,0-2.3,0.4-2.3-0.4C212,355.3,213.5,356.3,214.2,355.8z"/>
<path d="M237.5,389.7c-0.8-0.2-2.2,0.3-2.2-0.4c0-1,1.4-0.5,2.2-0.5c0.7,0,2.1-0.5,2.1,0.4C239.7,390.1,238.3,389.4,237.5,389.7z"/>
<path d="M348.4,388.7c0.8,0.3,2.3-0.4,2.3,0.5c0,0.9-1.5,0.4-2.3,0.4c-0.7,0-2.1,0.4-2.1-0.5C346.3,388.2,347.7,388.9,348.4,388.7z"
	/>
<path d="M343.6,296.6c-0.7-0.3-2,0.5-2-0.6c0-0.7,1.3-0.4,2-0.4c0.9,0,2.3-0.6,2.4,0.4C346,296.8,344.4,296.3,343.6,296.6z"/>
<path d="M97.7,389.1c0.9,0.3,2.4-0.2,2.3,0.7c-0.1,0.9-1.5,0.3-2.3,0.3c-0.7,0-2.1,0.3-2-0.5C95.8,388.5,97.1,389.5,97.7,389.1z"/>
<path d="M520.3,356.2c-0.9-0.3-2.3,0.2-2.3-0.6c0.1-1,1.5-0.4,2.2-0.4c0.7,0,2.1-0.4,2.1,0.5C522.2,356.7,520.9,355.9,520.3,356.2z"
	/>
<path d="M245.1,356.6c-0.7-0.3-2.1,0.5-2.1-0.5c0-0.8,1.4-0.4,2.2-0.4c0.8,0,2.2-0.4,2.2,0.4C247.3,356.9,245.9,356.3,245.1,356.6z"
	/>
<path d="M353.8,356.8c-0.7-0.3-2.2,0.3-2.2-0.5c0.1-0.9,1.5-0.4,2.2-0.4c0.7,0,2.1-0.5,2.1,0.5C355.9,357.2,354.5,356.6,353.8,356.8
	z"/>
<path d="M433.9,391c-0.8-0.2-2.2,0.3-2.2-0.5c0-1,1.4-0.5,2.2-0.5c0.7,0,2.1-0.5,2.1,0.4C436,391.4,434.6,390.7,433.9,391z"/>
<path d="M152.3,390c0.7,0.3,2-0.5,2,0.6c0,0.7-1.3,0.4-2,0.4c-0.8,0-2.3,0.5-2.3-0.4C150,389.6,151.5,390.3,152.3,390z"/>
<path d="M464.6,390.7c-0.8-0.3-2,0.4-2-0.5c0-0.8,1.3-0.5,2-0.4c0.8,0,2.3-0.4,2.3,0.3C466.8,391.1,465.3,390.3,464.6,390.7z"/>
<path d="M410.4,390.9c-0.7-0.3-2,0.4-2-0.6c0-0.7,1.3-0.4,2-0.4c0.8,0,2.3-0.4,2.3,0.4C412.7,391.2,411.2,390.6,410.4,390.9z"/>
<path d="M183.2,390.8c-0.8-0.2-2.1,0.3-2.1-0.5c0-0.9,1.3-0.5,1.9-0.5c0.8,0,2.3-0.4,2.3,0.4C185.3,391.2,183.8,390.3,183.2,390.8z"
	/>
<path d="M175.4,390.8c-0.7-0.3-2.1,0.4-2.1-0.5c0-0.8,1.4-0.4,2.1-0.4c0.8,0,2.2-0.4,2.2,0.3C177.6,391.3,176.2,390.5,175.4,390.8z"
	/>
<path d="M121.2,390.9c-0.8-0.4-2.2,0.3-2.2-0.6c0-0.8,1.4-0.4,2.2-0.4c0.8,0,2.2-0.3,2.2,0.4C123.3,391.4,121.9,390.4,121.2,390.9z"
	/>
<path d="M371.8,390.2c-0.8-0.3-2.2,0.3-2.2-0.6c0-0.9,1.4-0.4,2.1-0.4c0.8,0,2.2-0.5,2.2,0.5C373.9,390.5,372.4,389.9,371.8,390.2z"
	/>
<path d="M225.5,295.3c0.7,0.3,2.2-0.4,2.2,0.7c0,0.7-1.4,0.3-2.2,0.3c-0.8,0-2.2,0.5-2.2-0.5C223.3,294.9,224.7,295.6,225.5,295.3z"
	/>
<path d="M97.6,359.6c-0.7-0.3-1.9,0.4-1.9-0.5c0-0.7,1.2-0.5,1.8-0.4c0.9,0,2.5-0.5,2.5,0.3C100,360,98.5,359.2,97.6,359.6z"/>
<path d="M367,296.1c-0.8-0.4-2.1,0.4-2.2-0.5c0-0.9,1.4-0.5,2.1-0.5c0.8,0,2.3-0.5,2.3,0.4C369.2,296.4,367.7,295.6,367,296.1z"/>
<path d="M397.7,294.7c-0.7-0.2-1.9,0.3-1.9-0.4c-0.1-0.8,1.1-0.6,1.7-0.6c0.9,0,2.6-0.6,2.6,0.3C400.2,295,398.4,294.2,397.7,294.7z
	"/>
<path d="M312.9,296.9c-0.8-0.3-2.3,0.4-2.3-0.5c0-0.9,1.5-0.4,2.2-0.4c0.7,0,2.1-0.5,2.1,0.4C315,297.3,313.6,296.6,312.9,296.9z"/>
<path d="M325.3,389.2c-0.8-0.3-2.2,0.3-2.2-0.6c0-0.9,1.4-0.4,2.1-0.4c0.8,0,2.3-0.4,2.3,0.4C327.4,389.7,326,388.8,325.3,389.2z"/>
<path d="M122.8,327.8c0.1,0.5,0.1,0.7-0.2,0.7c-0.3,0.1-0.5,0-0.6-0.2c-0.6-1-1.2-1.9-1.8-2.9c-0.1-0.2-0.2-0.4,0.1-0.6
	c0.2-0.2,0.5-0.2,0.6,0C121.6,325.9,122.2,326.9,122.8,327.8z"/>
<path d="M112.8,359.1c0.1,0-0.1,0-0.4,0c-0.5,0-1.3,0.2-1.3-0.4c0-0.7,0.8-0.4,1.3-0.5c0.8-0.1,1.7-0.1,2.5-0.1c0.3,0,0.7,0,0.7,0.4
	c0.1,0.5-0.4,0.5-0.7,0.5C114.3,359.1,113.8,359.1,112.8,359.1z"/>
<path d="M206.4,356.9c-0.8-0.3-2.1,0.3-2.1-0.5c0-1,1.3-0.5,2-0.5c0.8,0,2.3-0.5,2.3,0.4C208.6,357.4,207.1,356.5,206.4,356.9z"/>
<path d="M276.3,388.1c0.7,0.2,2.1-0.2,2,0.4c0,0.9-1.3,0.5-2,0.5c-0.8,0-2.3,0.4-2.3-0.4C274.1,387.7,275.6,388.4,276.3,388.1z"/>
<path d="M144.4,358.2c-0.7-0.3-2.1,0.4-2.1-0.4c0-0.9,1.3-0.5,2.1-0.5c0.8,0,2.1-0.6,2.2,0.4C146.6,358.4,145.1,358,144.4,358.2z"/>
<path d="M317.6,388.1c0.7,0.3,2.1-0.4,2.1,0.6c0,0.8-1.4,0.4-2.1,0.4c-0.8,0-2.2,0.4-2.1-0.4C315.4,387.7,316.8,388.4,317.6,388.1z"
	/>
<path d="M256.4,297c-0.7-0.3-2.1,0.4-2.1-0.6c0-0.8,1.4-0.4,2.1-0.3c0.8,0,2.2-0.5,2.2,0.5C258.6,297.3,257.2,296.8,256.4,297z"/>
<path d="M105.8,390.5c-0.8-0.3-2.3,0.3-2.3-0.7c0-0.8,1.4-0.3,2.2-0.3c0.7,0,2.1-0.4,2.1,0.5C107.8,390.8,106.5,390.2,105.8,390.5z"
	/>
<path d="M431.3,357.8c-0.7-0.3-2.1,0.3-2.1-0.5c0-0.9,1.4-0.4,2.1-0.4c0.8,0,2.2-0.5,2.2,0.5C433.5,358.1,432,357.6,431.3,357.8z"/>
<path d="M198.7,389.5c0.8,0.3,2.2-0.4,2.2,0.5c0,0.9-1.4,0.4-2.1,0.4c-0.8,0-2.2,0.4-2.2-0.3C196.6,389,198.1,390,198.7,389.5z"/>
<path d="M356.3,389.8c-0.8-0.3-2.2,0.4-2.2-0.6c0-0.8,1.4-0.3,2.2-0.3c0.8,0,2.2-0.4,2.2,0.4C358.4,390.3,357.1,389.6,356.3,389.8z"
	/>
<path d="M408,357.5c-0.7-0.3-2.1,0.4-2.1-0.5c0-0.9,1.4-0.4,2.1-0.4c0.8,0,2.2-0.5,2.2,0.5C410.2,357.9,408.7,357.3,408,357.5z"/>
<path d="M279.8,296.2c0.7,0.3,2.1-0.4,2.1,0.5c0,0.9-1.4,0.5-2.1,0.4c-0.8,0-2.2,0.5-2.2-0.5C277.6,295.9,279,296.5,279.8,296.2z"/>
<path d="M301.8,389.1c-0.7-0.2-2,0.3-2-0.5c0-0.9,1.3-0.5,1.9-0.5c0.8,0,2.3-0.6,2.4,0.5C304.2,389.5,302.6,388.9,301.8,389.1z"/>
<path d="M167.8,356.5c0.7,0.2,2-0.4,2,0.5c0,0.8-1.3,0.5-2,0.5c-0.8,0-2.3,0.5-2.3-0.3C165.6,356,167.1,356.9,167.8,356.5z"/>
<path d="M71.4,355c0.8,0.2,2.1-0.3,2.1,0.5c0,1-1.3,0.6-2,0.6c-0.8,0-2.3,0.5-2.3-0.4C69.2,354.6,70.7,355.3,71.4,355z"/>
<path d="M377,356c0.8,0.4,2.2-0.3,2.2,0.6c0,0.9-1.4,0.4-2.1,0.4c-0.8,0-2.2,0.3-2.2-0.4C375,355.5,376.4,356.5,377,356z"/>
<path d="M134.5,346.7c-0.1,0.2-0.1,0.4-0.3,0.5c-0.2,0.2-0.5,0.1-0.6-0.1c-0.6-1-1.3-2-1.9-3c-0.1-0.2-0.1-0.4,0.1-0.6
	c0.2-0.1,0.5-0.1,0.6,0.1C133.2,344.6,133.8,345.7,134.5,346.7z"/>
<path d="M191,357c-0.8-0.3-2.2,0.4-2.2-0.5c0-0.9,1.5-0.4,2.3-0.4c0.7,0,2-0.5,2,0.5C193.1,357.3,191.8,356.8,191,357z"/>
<path d="M186,356.6c-1.8,0.7-3.3,0.4-4.6,0.4c-0.2,0-0.3-0.3-0.5-0.4c0.2-0.1,0.3-0.4,0.5-0.4C182.7,356.3,184.1,355.9,186,356.6z"
	/>
<path d="M89.9,359.8c-0.7-0.2-1.9,0.4-1.9-0.5c0-0.8,1.3-0.4,2-0.4c0.8,0,2.4-0.4,2.3,0.3C92.2,360.2,90.7,359.5,89.9,359.8z"/>
<path d="M415.9,357.7c-0.9-0.3-2.3,0.4-2.3-0.6c0-0.9,1.5-0.4,2.3-0.4c0.7,0,2.1-0.5,2.1,0.5C418,358,416.6,357.3,415.9,357.7z"/>
<path d="M451.1,289.7c-0.6,0-1.3,0.4-1.4-0.4c-0.1-0.6,0.7-0.4,1.1-0.5c0.8-0.2,1.6-0.2,2.5-0.3c0.4,0,0.9-0.2,1,0.3
	c0.1,0.6-0.5,0.5-0.8,0.6C452.7,289.5,451.8,289.6,451.1,289.7z"/>
<path d="M146.8,290c1,0.1,2,0.2,3,0.4c0.4,0,0.7,0.2,0.6,0.6c-0.1,0.4-0.4,0.3-0.7,0.3c-1.1-0.1-2.1-0.2-3.2-0.4
	c-0.3,0-0.8-0.1-0.7-0.6C146,289.9,146.5,290,146.8,290z"/>
<path d="M194.6,295c-0.8-0.3-2.3,0.3-2.3-0.6c0-0.9,1.5-0.4,2.3-0.4c0.7,0,2.1-0.3,2,0.6C196.6,295.4,195.3,294.8,194.6,295z"/>
<path d="M233.2,295.5c0.8,0.3,2.2-0.3,2.2,0.5c-0.1,1-1.4,0.5-2.2,0.4c-0.7,0-2.1,0.4-2.1-0.5C231.1,295.1,232.5,295.8,233.2,295.5z
	"/>
<path d="M109,306c0.1,0.1,0.3,0.2,0.5,0.3c0.6,0.9,1.1,1.8,1.7,2.7c0.2,0.3,0.2,0.5-0.1,0.7c-0.1,0.1-0.4,0.1-0.5,0
	c-0.7-1.1-1.4-2.2-2.1-3.3C108.5,306.3,108.6,306,109,306z"/>
<path d="M108.3,341.9c0.1,0.4,0.1,0.7-0.2,0.7c-0.2,0-0.5-0.1-0.6-0.2c-0.6-0.9-1.2-1.9-1.7-2.9c-0.2-0.3-0.1-0.5,0.2-0.7
	c0.3-0.1,0.5,0,0.6,0.2C107.2,340,107.8,341,108.3,341.9z"/>
<path d="M79,355.9c-0.7-0.2-2,0.3-2-0.4c0-1,1.3-0.6,2-0.6c0.8,0,2.2-0.5,2.2,0.5C81.2,356.3,79.8,355.6,79,355.9z"/>
<path d="M84.8,357.9c-0.3,0.6,0.5,1.8-0.4,1.8c-1.1,0-0.6-1.2-0.6-1.9c0-0.7-0.6-2,0.6-2C85.1,355.8,84.5,357.1,84.8,357.9z"/>
<path d="M237.4,355.6c0.8,0.2,2.2-0.3,2.1,0.5c0,1-1.3,0.5-2,0.5c-0.8,0-2.3,0.4-2.3-0.4C235.3,355.1,236.8,356,237.4,355.6z"/>
<path d="M260.6,356.4c-0.7-0.3-2,0.4-2-0.6c0-0.8,1.3-0.4,2-0.4c0.8,0,2.3-0.4,2.3,0.4C262.8,356.8,261.3,356,260.6,356.4z"/>
<path d="M472.2,390.5c-0.1,0-0.3,0-0.6,0c-0.5-0.1-1.3,0.2-1.3-0.4c0-0.6,0.8-0.4,1.3-0.5c0.8-0.1,1.7-0.1,2.5-0.1
	c0.3,0,0.6,0,0.7,0.4c0.1,0.5-0.4,0.5-0.7,0.5C473.6,390.4,473,390.4,472.2,390.5z"/>
<path d="M338.2,356.6c-0.7-0.3-2.1,0.4-2.1-0.6c0-0.9,1.4-0.4,2.1-0.4c0.8,0,2.2-0.4,2.2,0.4C340.4,357.1,339,356.3,338.2,356.6z"/>
<path d="M222,355.8c0.7,0.2,2.1-0.3,2,0.4c0,0.9-1.3,0.5-2.1,0.5c-0.8,0-2.2,0.4-2.2-0.4C219.8,355.4,221.3,356,222,355.8z"/>
<path d="M121.2,358.9c-0.8-0.2-2.2,0.3-2.1-0.4c0-0.9,1.3-0.5,2.1-0.5c0.8,0,2.2-0.4,2.2,0.3C123.2,359.4,121.8,358.4,121.2,358.9z"
	/>
<path d="M501,358.5c0.7,0.3,2.1-0.4,2.1,0.6c0,0.7-1.4,0.3-2.2,0.3c-0.7,0-2.1,0.4-2.1-0.5C498.9,358,500.3,358.7,501,358.5z"/>
<path d="M532.7,384.7c-0.4,0-0.7,0.1-0.8-0.3c-0.1-0.5,0.3-0.5,0.6-0.6c1-0.2,2.1-0.4,3.1-0.7c0.3-0.1,0.6-0.1,0.7,0.3
	c0.1,0.4-0.2,0.6-0.6,0.6C534.7,384.3,533.7,384.5,532.7,384.7z"/>
<path d="M510.5,388.1c-0.3,0-0.6,0.1-0.9,0.1c-0.3,0-0.6,0-0.7-0.3c-0.1-0.5,0.3-0.5,0.7-0.6c1.1-0.1,2.1-0.2,3.2-0.3
	c0.3,0,0.6,0,0.7,0.3c0.1,0.5-0.3,0.5-0.6,0.6C512.1,387.9,511.3,388,510.5,388.1z"/>
<path d="M283.9,389.2c-0.7-0.3-2.1,0.4-2.1-0.6c0-0.8,1.4-0.4,2.1-0.4c0.8,0,2.2-0.4,2.2,0.4C286.1,389.6,284.7,388.9,283.9,389.2z"
	/>
<path d="M332.9,388.3c0.8,0.3,2.3-0.4,2.3,0.6c0,0.9-1.5,0.4-2.3,0.4c-0.7,0-2.1,0.4-2.1-0.5C330.8,387.9,332.2,388.6,332.9,388.3z"
	/>
<path d="M340.9,389.5c-0.8-0.3-2.4,0.3-2.3-0.5c0.1-1,1.6-0.4,2.4-0.4c0.7,0,1.9-0.4,1.9,0.5C342.9,389.8,341.7,389.3,340.9,389.5z"
	/>
<path d="M229.8,389.9c-0.8-0.3-2.2,0.4-2.2-0.5c0-0.9,1.4-0.5,2.1-0.5c0.8,0,2.2-0.6,2.2,0.4C231.9,390.2,230.5,389.5,229.8,389.9z"
	/>
<path d="M221.8,390c-0.7-0.2-2,0.3-2-0.4c0-0.9,1.3-0.5,2-0.5c0.8,0,2.2-0.5,2.2,0.4C224.1,390.4,222.6,389.8,221.8,390z"/>
<path d="M206.5,390.4c-0.8-0.2-2.2,0.3-2.2-0.4c0-0.9,1.3-0.5,2.1-0.5c0.8,0,2.2-0.4,2.2,0.3C208.6,390.9,207.1,389.9,206.5,390.4z"
	/>
<path d="M144.5,391c-0.8-0.3-2.2,0.3-2.2-0.5c0-0.9,1.4-0.4,2.1-0.4c0.8,0,2.2-0.4,2.2,0.4C146.6,391.4,145.2,390.7,144.5,391z"/>
<path d="M85.8,279.7c1.1,0.2,2,0.5,3,0.7c0.4,0.1,0.7,0.3,0.5,0.7c-0.1,0.3-0.5,0.3-0.8,0.2c-1-0.2-1.9-0.4-2.9-0.7
	c-0.3-0.1-0.8-0.2-0.7-0.6C85,279.5,85.5,279.7,85.8,279.7z"/>
<path d="M110,345c0.1,0.1,0.3,0.2,0.4,0.4c0.6,0.9,1.1,1.8,1.6,2.7c0.1,0.3,0.2,0.5-0.1,0.7c-0.1,0.1-0.4,0-0.5,0
	c-0.8-1-1.5-2.1-2-3.3C109.4,345.3,109.6,345.1,110,345z"/>
<path d="M478.4,299.4c0.5,0.1,0.6,0.4,0.3,0.8c-0.6,1-1.2,1.9-1.8,2.9c-0.1,0.1-0.4,0.3-0.6,0.3c-0.3,0-0.5-0.2-0.3-0.5
	c0.6-1.1,1.3-2.2,2-3.3C478.2,299.5,478.3,299.5,478.4,299.4z"/>
<path d="M512.5,355.9c-0.8-0.3-2.3,0.3-2.3-0.6c0-0.9,1.5-0.4,2.3-0.4c0.7,0,2-0.4,2,0.6C514.5,356.2,513.2,355.7,512.5,355.9z"/>
<path d="M461.1,328.3c-0.5-0.1-0.5-0.4-0.3-0.8c0.6-1,1.2-1.9,1.8-2.8c0.1-0.2,0.3-0.4,0.6-0.3c0.3,0.1,0.4,0.3,0.3,0.5
	c-0.7,1.1-1.3,2.2-2,3.3C461.4,328.3,461.2,328.2,461.1,328.3z"/>
<path d="M179.3,294c-0.8-0.2-2.5,0.2-2.4-0.6c0.2-1.1,1.7-0.2,2.6-0.4c0.1,0,0.2,0,0.4,0c0.5,0.2,1.5-0.2,1.4,0.6
	c-0.1,0.7-1,0.2-1.5,0.3C179.6,294,179.5,294,179.3,294z"/>
<path d="M53.1,385.1c-0.9-0.2-1.9-0.4-2.9-0.7c-0.3-0.1-0.6-0.2-0.6-0.5c0.1-0.5,0.5-0.4,0.8-0.4c1,0.2,2,0.4,3,0.7
	c0.3,0.1,0.8,0.2,0.6,0.6C53.9,385.3,53.4,385.1,53.1,385.1z"/>
<path d="M76.3,296.4c0.2-0.9,0.4-1.9,0.7-2.9c0.1-0.3,0.2-0.5,0.6-0.5c0.4,0.1,0.4,0.4,0.3,0.6c-0.2,1-0.4,1.9-0.6,2.9
	c-0.1,0.3-0.1,0.7-0.6,0.6C76.1,297.2,76.3,296.8,76.3,296.4z"/>
<path d="M190.8,390.7c-0.7-0.2-2,0.3-2-0.4c0-1,1.3-0.5,2-0.5c0.8,0,2.3-0.5,2.3,0.4C193.1,391,191.6,390.4,190.8,390.7z"/>
<path d="M159.8,357.7c-0.7-0.2-2.1,0.3-2-0.4c0-0.9,1.3-0.5,2-0.5c0.8,0,2.2-0.4,2.2,0.3C162,358.1,160.5,357.5,159.8,357.7z"/>
<path d="M437.9,290.3c0.3,0,0.9-0.2,1,0.3c0.1,0.6-0.5,0.5-0.9,0.6c-0.9,0.1-1.9,0.2-2.8,0.3c-0.3,0-0.8,0.1-0.9-0.3
	c-0.1-0.4,0.3-0.5,0.7-0.6C436,290.6,436.9,290.4,437.9,290.3z"/>
<path d="M67.1,338.7c0.2-0.9,0.4-1.9,0.7-2.9c0.1-0.3,0.2-0.6,0.6-0.5c0.4,0.1,0.4,0.4,0.3,0.7c-0.2,1-0.4,1.9-0.6,2.9
	c-0.1,0.3-0.2,0.7-0.6,0.6C66.9,339.5,67.1,339.1,67.1,338.7z"/>
<path d="M104.7,335.9c-0.2,0.2-0.2,0.4-0.3,0.4c-0.2,0.2-0.5,0-0.6-0.2c-0.6-1-1.2-2-1.8-3c-0.1-0.2,0-0.5,0.2-0.6
	c0.1,0,0.4,0,0.5,0.1C103.3,333.7,104,334.8,104.7,335.9z"/>
<path d="M118.9,321.5c0.2,0.5,0.1,0.7-0.2,0.8c-0.3,0.1-0.5,0-0.6-0.2c-0.6-0.9-1.2-1.9-1.8-2.9c-0.1-0.2-0.1-0.4,0.1-0.6
	c0.2-0.2,0.5-0.2,0.6,0C117.7,319.6,118.4,320.7,118.9,321.5z"/>
<path d="M547.7,370c-0.1,0.2-0.2,0.4-0.3,0.5c-0.2,0.1-0.5,0.1-0.6-0.1c-0.7-1-1.3-2-2-2.9c-0.1-0.2-0.1-0.5,0.1-0.6
	c0.1-0.1,0.4-0.1,0.5,0C546.2,367.9,546.9,369,547.7,370z"/>
<path d="M471.2,312.4c-0.7,1.1-1.4,2.2-2.1,3.3c-0.2,0.2-0.4,0.2-0.6,0c-0.2-0.2-0.2-0.4-0.1-0.6c0.6-1,1.2-2,1.9-3
	c0.1-0.2,0.4-0.3,0.6-0.1C471.1,312.1,471.1,312.2,471.2,312.4z"/>
<path d="M65.9,386.4c0.9,0.1,1.8,0.2,2.7,0.4c0.4,0,0.8,0.1,0.7,0.5c0,0.4-0.5,0.4-0.8,0.4c-0.9-0.1-1.8-0.2-2.7-0.3
	c-0.4-0.1-1.1,0-1-0.7C64.9,386.2,65.5,386.4,65.9,386.4z"/>
<path d="M458.2,288.8c-0.4,0-0.8,0.1-0.8-0.4c0-0.3,0.3-0.4,0.6-0.5c1.1-0.2,2.1-0.4,3.2-0.5c0.4-0.1,0.8-0.1,0.8,0.4
	c0,0.3-0.3,0.4-0.6,0.5C460.3,288.4,459.3,288.6,458.2,288.8z"/>
<path d="M99.3,291.2c-0.1-0.1-0.3-0.2-0.4-0.3c-0.6-0.9-1.2-1.9-1.8-2.8c-0.1-0.2-0.2-0.4,0-0.6c0.2-0.2,0.5-0.2,0.6,0
	c0.7,1.1,1.4,2.2,2,3.2C99.9,290.8,99.7,291.1,99.3,291.2z"/>
<path d="M108.5,284.3c1,0.2,2,0.4,3,0.6c0.3,0.1,0.8,0.1,0.6,0.6c-0.1,0.4-0.5,0.3-0.9,0.3c-1-0.2-2-0.3-3-0.5
	c-0.3-0.1-0.8-0.2-0.6-0.6C107.7,284.2,108.2,284.4,108.5,284.3z"/>
<path d="M100.9,282.9c1,0.2,2,0.4,2.9,0.6c0.3,0.1,0.8,0.1,0.6,0.6c-0.1,0.4-0.6,0.3-0.9,0.3c-1-0.2-2-0.3-2.9-0.5
	c-0.3-0.1-0.8-0.1-0.6-0.6C100.1,282.8,100.6,282.9,100.9,282.9z"/>
<path d="M98.7,326.2c0.6,0.3,0.9,0.9,1.1,1.4c0.3,0.8,1.8,1.7,0.8,2.3c-0.6,0.4-1-1.2-1.6-1.9c-0.3-0.4-0.5-0.9-0.7-1.3
	C98.1,326.5,98.3,326.3,98.7,326.2z"/>
<path d="M509.2,306.9c0.1,0.3,0.1,0.7-0.4,0.8c-0.4,0-0.5-0.3-0.5-0.5c-0.2-1-0.4-1.9-0.6-2.9c-0.1-0.3-0.1-0.7,0.4-0.8
	c0.4,0,0.5,0.3,0.5,0.6C508.8,305,509,305.9,509.2,306.9z"/>
<path d="M496.3,282c-0.4,0-0.8,0-0.8-0.3c0-0.4,0.3-0.5,0.6-0.5c1.1-0.3,2.2-0.5,3.3-0.7c0.3-0.1,0.6,0,0.7,0.4
	c0.1,0.2-0.1,0.4-0.4,0.5C498.5,281.5,497.4,281.8,496.3,282z"/>
<path d="M76.3,300.9c-0.2,1-0.4,1.9-0.6,2.8c-0.1,0.3-0.2,0.7-0.7,0.5c-0.4-0.1-0.3-0.4-0.3-0.7c0.2-0.9,0.4-1.8,0.6-2.7
	c0.1-0.3,0.1-0.9,0.7-0.7C76.5,300.3,76.3,300.7,76.3,300.9z"/>
<path d="M493.4,359.3c-0.8-0.3-2.2,0.4-2.2-0.7c0-0.8,1.4-0.4,2.1-0.3c0.8,0,2.2-0.4,2.2,0.6C495.4,359.6,494,359,493.4,359.3z"/>
<path d="M82.2,298.2c-0.2,0.2-0.3,0.4-0.4,0.4c-0.2,0-0.5,0-0.6-0.2c-0.6-1-1.2-2-1.8-3c-0.1-0.2-0.1-0.5,0.1-0.6
	c0.1-0.1,0.4-0.1,0.5,0C80.7,296,81.5,297.1,82.2,298.2z"/>
<path d="M413.8,292.6c0.5,0.2,1.7-0.6,1.8,0.4c0.1,0.6-1.2,0.4-1.8,0.5c-0.3,0.1-0.6,0.1-0.9,0.1c-0.6-0.1-1.7,0.5-1.8-0.4
	c0-0.7,1.1-0.4,1.8-0.6C413.2,292.6,413.5,292.6,413.8,292.6z"/>
<path d="M141.5,290.3c-0.8-0.1-1.7-0.2-2.6-0.3c-0.3,0-0.8-0.1-0.7-0.5c0-0.4,0.5-0.4,0.8-0.4c0.9,0.1,1.8,0.2,2.7,0.3
	c0.4,0.1,1.1,0,1,0.7C142.5,290.5,142,290.3,141.5,290.3z"/>
<path d="M82.2,388.1c0.8,0.4,2.5-0.2,2.4,0.7c-0.1,1-1.6,0.3-2.4,0.3c-0.7,0-1.9,0.3-1.9-0.6C80.3,387.7,81.5,388.3,82.2,388.1z"/>
<path d="M130.4,340.2c0.2,0.5,0.1,0.7-0.2,0.8c-0.3,0.1-0.5-0.1-0.6-0.2c-0.6-0.9-1.2-1.9-1.8-2.8c-0.1-0.2-0.2-0.4,0.1-0.6
	c0.2-0.2,0.5-0.2,0.6,0C129.3,338.3,129.9,339.4,130.4,340.2z"/>
<path d="M379.5,389.3c0.8,0.3,2.2-0.4,2.2,0.6c0,0.8-1.4,0.4-2.2,0.3c-0.8,0-2.2,0.4-2.1-0.5C377.4,388.8,378.8,389.6,379.5,389.3z"
	/>
<path d="M428,292.3c-0.2,0-0.5,0-0.8,0c-0.3,0-0.7,0-0.6-0.4c0-0.2,0.3-0.4,0.5-0.4c1.2-0.1,2.4-0.2,3.6-0.3c0.3,0,0.6,0.1,0.6,0.4
	c0,0.4-0.4,0.4-0.6,0.4C429.7,292.1,428.9,292.2,428,292.3z"/>
<path d="M70.2,329.1c-0.2,1-0.4,2-0.7,2.9c-0.1,0.3-0.2,0.5-0.6,0.5c-0.4-0.1-0.4-0.4-0.4-0.6c0.2-1,0.4-1.9,0.6-2.9
	c0.1-0.3,0.2-0.7,0.6-0.6C70.4,328.4,70.2,328.8,70.2,329.1z"/>
<path d="M405.9,293.2c0.4,0,0.6-0.1,0.9-0.1c0.5,0,1.3-0.4,1.3,0.4c0.1,0.7-0.8,0.5-1.2,0.5c-0.8,0.1-1.7,0.2-2.5,0.2
	c-0.4,0-0.8,0-0.8-0.4c0-0.5,0.4-0.5,0.7-0.5C404.8,293.3,405.4,293.2,405.9,293.2z"/>
<path d="M134.1,289.3c-1-0.1-2-0.3-2.9-0.4c-0.3,0-0.6-0.2-0.6-0.5c0-0.5,0.4-0.5,0.8-0.4c0.9,0.1,1.9,0.2,2.8,0.4
	c0.4,0.1,1,0.1,0.9,0.6C134.9,289.6,134.3,289.2,134.1,289.3z"/>
<path d="M462.3,357.4c0.8,0.4,2.2-0.3,2.2,0.6c0,0.9-1.4,0.4-2.1,0.4c-0.8,0-2.2,0.5-2.2-0.6C460.1,357,461.6,357.7,462.3,357.4z"/>
<path d="M486.6,287.5c-0.7,1.1-1.4,2.2-2.1,3.2c-0.1,0.1-0.3,0.1-0.5,0.1c-0.2-0.1-0.4-0.3-0.3-0.5c0.6-1.1,1.3-2.1,1.9-3.1
	c0.1-0.2,0.4-0.2,0.6-0.1C486.5,287.1,486.5,287.3,486.6,287.5z"/>
<path d="M526.5,355.9c1,0.2,2,0.5,3,0.7c0.3,0.1,0.6,0.2,0.5,0.6c-0.1,0.3-0.4,0.3-0.7,0.3c-1-0.2-2.1-0.5-3.1-0.7
	c-0.3-0.1-0.8-0.2-0.6-0.6C525.7,355.7,526.1,355.8,526.5,355.9z"/>
<path d="M101.3,293.5c0.1,0.1,0.3,0.1,0.4,0.2c0.6,1,1.3,2,1.9,3c0.1,0.2,0.1,0.5-0.1,0.6c-0.1,0.1-0.4,0.1-0.5,0
	c-0.9-1-1.5-2.1-2.1-3.3C100.8,293.8,101,293.6,101.3,293.5z"/>
<path d="M126.4,288.3c-1-0.2-2.1-0.4-3.1-0.6c-0.2,0-0.5-0.3-0.5-0.4c0-0.3,0.3-0.4,0.6-0.4c1.1,0.1,2.1,0.3,3.2,0.4
	c0.4,0.1,0.7,0.2,0.7,0.6C127.3,288.4,126.8,288.2,126.4,288.3z"/>
<path d="M214.1,390.2c-0.7-0.2-2,0.3-2-0.4c0-1,1.3-0.5,2-0.5c0.8,0,2.3-0.5,2.3,0.4C216.4,390.6,214.9,389.9,214.1,390.2z"/>
<path d="M70.2,324.6c0.2-0.9,0.4-1.8,0.6-2.7c0.1-0.3,0.2-0.7,0.7-0.6c0.4,0.1,0.3,0.4,0.3,0.7c-0.2,1-0.4,1.9-0.6,2.9
	c-0.1,0.3-0.2,0.7-0.7,0.6C70,325.3,70.2,324.9,70.2,324.6z"/>
<path d="M186.6,293.5c0.8,0.3,2.4-0.2,2.3,0.6c-0.1,1-1.6,0.4-2.4,0.3c-0.7,0-2,0.2-2-0.5C184.7,292.9,185.9,293.8,186.6,293.5z"/>
<path d="M390.1,295.1c-0.7-0.2-2,0.4-2-0.3c0-0.9,1.3-0.5,2-0.6c0.8,0,2.4-0.7,2.4,0.3C392.5,295.4,390.9,294.7,390.1,295.1z"/>
<path d="M465,322c-0.4-0.1-0.5-0.4-0.3-0.8c0.6-1,1.2-1.9,1.8-2.9c0.1-0.2,0.3-0.3,0.6-0.3c0.3,0.1,0.4,0.3,0.3,0.5
	c-0.7,1.1-1.3,2.2-2,3.3C465.2,322,465.1,322,465,322z"/>
<path d="M468.6,286.3c0.4,0,0.9-0.2,1,0.3c0.1,0.5-0.3,0.5-0.7,0.6c-1,0.2-2,0.3-3,0.5c-0.3,0-0.8,0.2-0.9-0.3
	c-0.1-0.4,0.3-0.6,0.7-0.6C466.7,286.5,467.7,286.4,468.6,286.3z"/>
<path d="M473.7,286.3c-0.4,0-0.9,0.1-1-0.3c-0.1-0.4,0.4-0.5,0.7-0.6c1-0.2,2.1-0.4,3.1-0.5c0.3,0,0.6,0,0.7,0.3
	c0.1,0.4-0.3,0.5-0.5,0.5C475.7,286,474.6,286.2,473.7,286.3z"/>
<path d="M504.5,285.7c0,0.5,0.1,0.8-0.3,0.9c-0.4,0.1-0.5-0.1-0.6-0.4c-0.2-1-0.5-2-0.7-3.1c-0.1-0.3-0.1-0.6,0.3-0.7
	c0.4-0.1,0.5,0.2,0.6,0.4C504.1,283.8,504.3,284.8,504.5,285.7z"/>
<path d="M112.9,312.2c0.1,0.1,0.3,0.2,0.4,0.4c0.6,0.9,1.1,1.8,1.7,2.7c0.2,0.3,0.2,0.5-0.1,0.7c-0.1,0.1-0.4,0-0.5,0
	c-0.7-1.1-1.4-2.2-2-3.3C112.3,312.5,112.5,312.3,112.9,312.2z"/>
<path d="M492.8,314.8c-0.4-0.1-0.6-0.3-0.4-0.7c0.6-1,1.2-2,1.9-3c0.1-0.2,0.4-0.3,0.6-0.2c0.3,0.1,0.3,0.4,0.2,0.6
	c-0.6,1.1-1.3,2.1-1.9,3.1C493,314.7,492.9,314.7,492.8,314.8z"/>
<path d="M39.6,368.7c0.5,0.1,0.6,0.4,0.4,0.7c-0.6,1-1.2,1.9-1.8,2.9c-0.1,0.2-0.3,0.4-0.6,0.2c-0.2-0.1-0.4-0.3-0.3-0.5
	c0.5-1.1,1.1-2.2,1.9-3.2C39.3,368.8,39.4,368.7,39.6,368.7z"/>
<path d="M89.6,310.6c-0.1,0.2-0.1,0.4-0.2,0.5c-0.2,0.2-0.5,0.2-0.6-0.1c-0.7-1.1-1.7-2.1-1.9-3.5c0-0.1,0.4-0.3,0.4-0.2
	C88.5,308.2,88.8,309.6,89.6,310.6z"/>
<path d="M472.7,309.6c-0.5-0.1-0.6-0.4-0.3-0.7c0.6-1,1.2-1.9,1.8-2.9c0.1-0.1,0.4-0.3,0.6-0.2c0.2,0.1,0.3,0.3,0.2,0.5
	c-0.6,1.1-1.3,2.1-2,3.2C472.9,309.5,472.8,309.5,472.7,309.6z"/>
<path d="M499,305.1c-0.7,1.1-1.5,2.2-2.2,3.3c0,0.1-0.4,0.1-0.4,0c-0.1-0.2-0.2-0.4-0.1-0.6c0.6-1,1.2-2,1.8-3
	c0.1-0.1,0.4-0.2,0.6-0.2C498.8,304.7,498.9,304.9,499,305.1z"/>
<path d="M83.6,301.1c0.6,0.4,0.9,1,1.1,1.6c0.4,0.7,1.5,1.8,0.8,2.1c-1.1,0.5-1.1-1.1-1.7-1.7c-0.3-0.4-0.5-0.9-0.8-1.3
	C83,301.4,83.1,301.1,83.6,301.1z"/>
<path d="M107,303.6c-0.1-0.1-0.3-0.2-0.4-0.4c-0.6-0.9-1.1-1.8-1.7-2.7c-0.2-0.3-0.2-0.6,0.1-0.7c0.1-0.1,0.4,0,0.5,0.1
	c0.7,1.1,1.4,2.2,2,3.3C107.6,303.3,107.3,303.5,107,303.6z"/>
<path d="M543.9,382.1c-1.3,0.3-2.5,0.6-3.8,0.9c-0.3,0.1-0.6,0.1-0.7-0.3c-0.1-0.3,0.1-0.4,0.3-0.5c1.2-0.4,2.4-0.7,3.6-1
	C544,381.1,543.8,381.7,543.9,382.1C543.9,382.1,543.9,382.1,543.9,382.1z"/>
<path d="M482.8,293.7c-0.7,1.1-1.3,2.1-2,3.1c-0.1,0.2-0.4,0.3-0.6,0.1c-0.2-0.1-0.3-0.4-0.2-0.6c0.6-1,1.3-2.1,2-3.1
	c0.1-0.2,0.4-0.2,0.6,0C482.7,293.4,482.7,293.6,482.8,293.7z"/>
<path d="M525.2,386.1c-0.4,0-0.8,0.1-0.9-0.4c0-0.4,0.4-0.5,0.7-0.6c1-0.2,2-0.3,3-0.5c0.3,0,0.6-0.1,0.7,0.3
	c0.1,0.5-0.3,0.5-0.6,0.6C527.1,385.8,526.1,386,525.2,386.1z"/>
<path d="M60.8,386.6c-1.2-0.3-2.5-0.2-3.6-0.9c-0.1,0,0-0.4,0-0.4c1.3-0.4,2.4,0.2,3.7,0.3c0.3,0,0.8,0.1,0.7,0.5
	C61.6,386.7,61.1,386.5,60.8,386.6z"/>
<path d="M322.8,356.4c-0.8-0.3-2.3,0.3-2.2-0.5c0-0.9,1.5-0.4,2.3-0.4c0.7,0,2.1-0.4,2.1,0.4C325,356.8,323.6,356.1,322.8,356.4z"/>
<path d="M374.7,295.7c-0.7-0.3-2.1,0.4-2.2-0.4c-0.1-0.9,1.3-0.5,2-0.5c0.8,0,2.3-0.7,2.4,0.4C377.1,296,375.5,295.4,374.7,295.7z"
	/>
<path d="M240.9,296.7c-0.7-0.3-2.1,0.3-2.1-0.5c0-1,1.4-0.4,2.2-0.4c0.7,0,2.1-0.4,2.1,0.5C243.1,297.1,241.7,296.4,240.9,296.7z"/>
<path d="M164,292.7c-0.7-0.1-1.4-0.1-2.1-0.2c-0.3,0-0.6-0.2-0.6-0.5c0-0.4,0.4-0.4,0.7-0.4c0.9,0.1,1.9,0.2,2.8,0.3
	c0.4,0.1,1.1-0.2,1,0.5c-0.1,0.6-0.7,0.4-1.2,0.3C164.4,292.8,164.2,292.7,164,292.7C164,292.7,164,292.7,164,292.7z"/>
<path d="M128.8,389.9c0.8,0.3,2.2-0.3,2.2,0.5c0,0.9-1.4,0.4-2.1,0.4c-0.7,0-2.1,0.4-2.1-0.4C126.8,389.5,128.2,390.3,128.8,389.9z"
	/>
<path d="M210,295.8c-0.8-0.4-2.3,0.4-2.2-0.7c0.1-0.9,1.5-0.3,2.3-0.3c0.7,0,2.1-0.4,2,0.5C212.1,296.2,210.7,295.4,210,295.8z"/>
<path d="M507.7,299.8c0,0.3,0.1,0.7-0.3,0.7c-0.4,0.1-0.5-0.2-0.6-0.5c-0.2-1-0.5-2-0.7-3.1c-0.1-0.3,0-0.6,0.3-0.6
	c0.4-0.1,0.5,0.2,0.6,0.5C507.2,297.9,507.4,298.9,507.7,299.8z"/>
<path d="M480.1,390.2c-0.7-0.2-2,0.4-2-0.4c0-0.9,1.3-0.5,1.9-0.5c0.8,0,2.3-0.7,2.4,0.4C482.5,390.5,480.9,389.9,480.1,390.2z"/>
<path d="M272,296.1c0.8,0.3,2.2-0.2,2.1,0.5c0,1-1.3,0.5-2.1,0.5c-0.8,0-2.3,0.4-2.3-0.4C269.9,295.7,271.4,296.5,272,296.1z"/>
<path d="M93.4,317c-0.1,0.2-0.2,0.4-0.3,0.5c-0.2,0.1-0.5,0-0.6-0.2c-0.6-1-1.2-2-1.8-3c-0.1-0.2,0-0.5,0.2-0.6
	c0.1-0.1,0.4,0,0.5,0.1C92,314.8,92.7,315.9,93.4,317z"/>
<path d="M441.5,391c-0.8-0.2-2.2,0.3-2.2-0.4c0-1,1.4-0.5,2.2-0.5c0.7,0,2.2-0.4,2.2,0.3C443.6,391.4,442.2,390.7,441.5,391z"/>
<path d="M45.6,383.3c-0.9-0.3-1.9-0.6-2.8-0.9c-0.3-0.1-0.7-0.2-0.6-0.7c0.1-0.4,0.6-0.3,0.9-0.2c1,0.3,1.9,0.6,2.9,0.9
	c0.3,0.1,0.7,0.2,0.6,0.6C46.4,383.4,46,383.3,45.6,383.3z"/>
<path d="M171.4,293.4c-0.8-0.3-2.4,0.2-2.3-0.6c0.1-1,1.6-0.4,2.4-0.3c0.7,0.1,2-0.3,1.9,0.6C173.3,293.9,172.1,293.2,171.4,293.4z"
	/>
<path d="M502.8,298.9c-0.7,1.1-1.4,2.1-2.1,3.2c-0.1,0.1-0.4,0.1-0.5,0c-0.2-0.1-0.3-0.4-0.2-0.6c0.6-1,1.2-2,1.8-3
	c0.1-0.2,0.4-0.3,0.6-0.1C502.7,298.5,502.7,298.7,502.8,298.9z"/>
<path d="M502.5,388.8c-0.4-0.1-1.1,0.3-1.2-0.3c-0.1-0.6,0.6-0.5,1-0.6c0.2-0.1,0.5-0.1,0.7-0.1c0.9,0.2,2.4-0.8,2.6,0.3
	c0.1,0.8-1.7,0.4-2.6,0.6C502.9,388.8,502.7,388.8,502.5,388.8z"/>
<path d="M118.6,287c-1-0.2-1.9-0.3-2.9-0.5c-0.3-0.1-0.6-0.2-0.5-0.5c0.1-0.4,0.4-0.4,0.7-0.3c0.9,0.1,1.9,0.2,2.8,0.4
	c0.4,0.1,1.1,0,0.9,0.7C119.5,287.2,118.9,286.9,118.6,287z"/>
<path d="M245.3,388.5c0.7,0.2,2.1-0.3,2.1,0.4c0,1-1.3,0.5-2.1,0.5c-0.8,0-2.2,0.4-2.2-0.3C243.2,388.1,244.6,388.8,245.3,388.5z"/>
<path d="M520.2,386c0.4,0,1-0.2,1,0.4c0,0.4-0.4,0.4-0.8,0.5c-0.9,0.1-1.9,0.3-2.8,0.4c-0.3,0-0.8,0.1-0.9-0.3
	c-0.1-0.5,0.4-0.5,0.7-0.6C518.3,386.2,519.3,386.1,520.2,386z"/>
<path d="M90.5,389.8c-0.8-0.4-2.4,0.3-2.4-0.8c0-0.7,1.5-0.2,2.4-0.2c0.7,0.1,1.9-0.4,1.8,0.6C92.3,390.2,91.1,389.5,90.5,389.8z"/>
<path d="M351.6,296.4c-0.8-0.4-2.2,0.4-2.2-0.5c0-0.8,1.4-0.4,2.1-0.5c0.8,0,2.2-0.5,2.2,0.3C353.7,296.9,352.2,295.9,351.6,296.4z"
	/>
<path d="M382.1,295.4c-0.2,0-0.5,0.1-0.7,0c-0.4,0-1.1,0.3-1.1-0.4c0-0.7,0.7-0.4,1.1-0.5c0.9-0.1,1.8-0.1,2.7-0.2
	c0.4,0,0.8,0,0.8,0.4c0,0.5-0.4,0.5-0.8,0.5C383.4,295.3,382.7,295.3,382.1,295.4C382.1,295.3,382.1,295.4,382.1,295.4z"/>
<path d="M202.3,295.4c-0.8-0.3-2.4,0.3-2.3-0.6c0.1-1,1.6-0.4,2.4-0.3c0.7,0,2-0.4,1.9,0.6C204.3,295.8,203,295.2,202.3,295.4z"/>
<path d="M264.3,297.1c-0.8-0.3-2.3,0.4-2.2-0.5c0-0.9,1.5-0.4,2.3-0.4c0.7,0,2.1-0.3,2,0.4C266.3,297.5,265,296.7,264.3,297.1z"/>
<path d="M152.1,358c-0.7-0.3-2,0.5-2-0.5c-0.1-0.7,1.3-0.4,2-0.4c0.8,0,2.3-0.5,2.3,0.3C154.3,358.3,152.9,357.7,152.1,358z"/>
<path d="M485.6,359.1c-0.8-0.3-2.2,0.2-2.2-0.5c0.1-0.9,1.5-0.4,2.2-0.4c0.7,0,2.1-0.4,2,0.5C487.6,359.5,486.3,358.8,485.6,359.1z"
	/>
<path d="M73.3,315.2c-0.2,1-0.4,1.9-0.7,2.9c0,0.2-0.3,0.4-0.4,0.4c-0.4,0-0.5-0.3-0.4-0.6c0.2-1,0.4-1.9,0.6-2.9
	c0.1-0.3,0.2-0.7,0.6-0.6C73.4,314.4,73.2,314.9,73.3,315.2z"/>
<path d="M73.7,387.4c0.9,0.1,1.8,0.2,2.7,0.3c0.3,0,0.6,0.1,0.6,0.5c0,0.4-0.4,0.4-0.7,0.4c-0.9,0-1.8-0.1-2.7-0.2
	c-0.4-0.1-1.1,0-1.1-0.6C72.6,387.1,73.3,387.4,73.7,387.4z"/>
<path d="M443.3,290.7c-0.5-0.1-1.2,0.3-1.2-0.4c0-0.5,0.6-0.4,1-0.5c0.9-0.1,1.9-0.2,2.8-0.3c0.3,0,0.6-0.1,0.7,0.3
	c0.1,0.5-0.2,0.5-0.6,0.6C445,290.5,444.1,290.6,443.3,290.7z"/>
<path d="M175.3,357.3c-0.7-0.2-2,0.4-2-0.4c0-0.9,1.2-0.5,1.9-0.5c0.8,0,2.3-0.6,2.4,0.4C177.6,357.6,176.1,357,175.3,357.3z"/>
<path d="M420.8,293c-0.7-0.2-1.7,0.4-1.7-0.4c-0.1-0.7,1-0.6,1.6-0.6c0.9,0,2.7-0.5,2.7,0.1C423.3,293.4,421.6,292.5,420.8,293z"/>
<path d="M418.1,390.9c-0.7-0.3-2,0.5-2-0.6c0-0.7,1.3-0.4,2-0.4c0.8,0.1,2.3-0.5,2.4,0.5C420.5,391.2,418.9,390.7,418.1,390.9z"/>
<path d="M155.6,291c0.7,0.2,2.5,0,2.3,0.6c-0.2,1.1-1.7,0.2-2.6,0.3c-0.2,0-0.5,0-0.7-0.1c-0.4-0.1-1,0-1-0.5c0-0.7,0.7-0.4,1.1-0.4
	C155,290.9,155.2,290.9,155.6,291z"/>
<path d="M470.2,358.6c-0.8-0.3-2.3,0.2-2.2-0.5c0.1-1,1.4-0.5,2.2-0.4c0.7,0,2.1-0.4,2.1,0.5C472.2,359,470.8,358.3,470.2,358.6z"/>
<path d="M217.8,296.1c-0.8-0.4-2.3,0.3-2.2-0.7c0.1-0.9,1.5-0.3,2.3-0.3c0.7,0,2-0.2,2,0.5C219.7,296.6,218.4,295.7,217.8,296.1z"/>
<path d="M128.7,358.7c-0.6-0.4-2,0.6-2-0.5c0-0.7,1.3-0.4,2-0.4c0.8,0,2.3-0.5,2.3,0.4C131.1,359,129.6,358.4,128.7,358.7z"/>
<path d="M423.6,357.7c-0.8-0.3-2.3,0.3-2.3-0.5c0-0.9,1.5-0.4,2.2-0.4c0.7,0,2.1-0.4,2.1,0.4C425.7,358.2,424.3,357.4,423.6,357.7z"
	/>
<path d="M167.6,390.9c-0.7-0.2-2,0.3-2-0.4c0-1,1.3-0.5,2.1-0.5c0.8,0,2.2-0.4,2.2,0.3C169.8,391.3,168.4,390.6,167.6,390.9z"/>
<path d="M446.6,357c0.8,0.3,2.4-0.2,2.3,0.5c-0.1,1-1.5,0.4-2.4,0.4c-0.7,0-1.9,0.4-1.9-0.5C444.6,356.6,445.9,357.2,446.6,357z"/>
<path d="M426.2,391c-0.9-0.3-2.4,0.3-2.4-0.6c0-0.8,1.5-0.4,2.3-0.4c0.7,0,2.1-0.5,2.1,0.4C428.2,391.4,426.8,390.6,426.2,391z"/>
<path d="M346.2,356.7c-0.9-0.3-2.5,0.2-2.4-0.5c0.1-1,1.6-0.4,2.4-0.4c0.7,0,2-0.3,2,0.4C348.1,357.2,346.8,356.3,346.2,356.7z"/>
<path d="M395.1,389.6c0.7,0.3,2.1-0.4,2.1,0.5c0,0.9-1.4,0.4-2.1,0.4c-0.8,0-2.2,0.5-2.2-0.5C392.9,389.3,394.3,389.8,395.1,389.6z"
	/>
<path d="M105.8,358.4c0.3,0,0.4,0,0.6,0c0.5,0.1,1.4-0.3,1.5,0.4c0,0.7-0.9,0.4-1.4,0.5c-0.2,0-0.4,0-0.5,0
	c-0.8-0.1-2.4,0.4-2.3-0.3C103.6,357.9,105.1,358.7,105.8,358.4z"/>
<path d="M392.4,356.3c0.8,0.3,2.3-0.2,2.3,0.5c-0.1,1-1.4,0.4-2.2,0.4c-0.7,0-2.1,0.5-2.1-0.4C390.4,355.8,391.8,356.6,392.4,356.3z
	"/>
<path d="M160,391c-0.8-0.2-2.2,0.3-2.2-0.5c0-1,1.3-0.5,2-0.5c0.8,0,2.2-0.4,2.2,0.3C162,391.5,160.5,390.5,160,391z"/>
<path d="M268.6,356.4c-0.8-0.3-2.3,0.4-2.3-0.5c0-0.8,1.5-0.4,2.3-0.4c0.7,0,2-0.3,2,0.4C270.6,356.8,269.3,356,268.6,356.4z"/>
<path d="M503.9,356c0.1-0.5-0.2-1.1,0.6-1.3c0.7-0.1,1.6-0.2,2.2,0.2c0.5,0.4,0,0.6-0.4,0.7c-0.6,0.1-1.2-0.1-1.4,0.7
	c-0.1,0.3,0,0.9-0.6,0.7C503.8,356.9,504,356.3,503.9,356z"/>
<path d="M307.2,356.4c-0.8-0.2-2.2,0.2-2.1-0.4c0-1,1.3-0.5,2.1-0.5c0.8,0,2.3-0.4,2.3,0.4C309.4,356.8,307.9,356,307.2,356.4z"/>
<path d="M229.7,356.7c-0.7-0.3-2.1,0.4-2.1-0.5c0-0.9,1.4-0.4,2.1-0.4c0.8,0,2.2-0.4,2.2,0.3C231.8,357.1,230.4,356.4,229.7,356.7z"
	/>
<path d="M283.9,356.3c-0.7-0.3-2.1,0.4-2.1-0.5c0-0.9,1.4-0.4,2.1-0.4c0.8,0,2.2-0.5,2.2,0.5C286.2,356.6,284.7,356.1,283.9,356.3z"
	/>
<path d="M198.6,357c-0.7-0.3-2,0.4-2-0.5c0-0.8,1.4-0.4,2.1-0.4c0.7,0,2.1-0.5,2.1,0.4C200.7,357.3,199.4,356.7,198.6,357z"/>
<path d="M314.9,356.4c-0.7-0.3-2,0.4-2-0.5c0-0.8,1.4-0.4,2.2-0.4c0.7,0,2.1-0.5,2.1,0.5C317.1,356.7,315.7,356.1,314.9,356.4z"/>
<path d="M299.4,356.4c-0.7-0.3-2,0.4-2-0.5c0-0.8,1.4-0.4,2.1-0.4c0.7,0,2.1-0.5,2.1,0.5C301.6,356.7,300.2,356.1,299.4,356.4z"/>
<path d="M449.2,390.9c-0.7-0.3-2.1,0.4-2.1-0.5c0-0.8,1.4-0.4,2.1-0.4c0.7,0,2.1-0.5,2.1,0.4C451.4,391.3,450,390.6,449.2,390.9z"/>
<path d="M260.7,389.3c-0.8-0.4-2.1,0.4-2.1-0.7c0-0.7,1.3-0.4,2-0.4c0.8,0,2.2-0.3,2.2,0.3C262.8,389.8,261.4,388.8,260.7,389.3z"/>
<path d="M328.2,296.8c-0.7-0.3-2,0.5-2.1-0.5c0-0.8,1.4-0.4,2.2-0.4c0.7,0,2.1-0.5,2.1,0.4C330.4,297.1,329,296.5,328.2,296.8z"/>
<path d="M276.2,356.4c-0.8-0.2-2.2,0.2-2.1-0.5c0-1,1.3-0.5,2.1-0.5c0.8,0,2.2-0.4,2.2,0.4C278.2,356.9,276.8,355.9,276.2,356.4z"/>
<path d="M369.3,357c-0.8-0.3-2.3,0.3-2.2-0.5c0.1-1,1.4-0.5,2.2-0.5c0.7,0,2.1-0.4,2.1,0.5C371.3,357.4,369.9,356.7,369.3,357z"/>
<path d="M487.5,324c-0.6,1-1.3,2.1-2,3.1c-0.1,0.1-0.3,0.2-0.5,0.1c-0.3-0.1-0.4-0.3-0.3-0.5c0.7-1.1,1.3-2.2,2.1-3.2
	C487,323.1,487.4,323.4,487.5,324z"/>
<path d="M515,335.9c-1-0.9-0.7-2.1-1.1-3.1c-0.1-0.4-0.2-1.2,0.2-1.1c1.3,0.6,0.8,2,1.2,3C515.5,335.1,515.7,335.5,515,335.9z"/>
<path d="M517,346.5c0-0.4-0.1-0.7,0.3-0.8c0.5-0.1,0.6,0.3,0.7,0.6c0.2,0.9,0.4,1.8,0.6,2.7c0.1,0.3,0.2,0.7-0.3,0.8
	c-0.5,0.1-0.6-0.2-0.7-0.6C517.4,348.3,517.2,347.3,517,346.5z"/>
<path d="M473.6,346c-0.3-0.1-0.5-0.3-0.4-0.5c0.6-1.1,1.3-2.2,2-3.3c0.1-0.1,0.3-0.1,0.5-0.1c0.3,0.1,0.4,0.3,0.3,0.5
	c-0.6,1.1-1.3,2.1-1.9,3.1C473.9,345.9,473.7,345.9,473.6,346z"/>
<path d="M479.9,336.4c-0.7,1.1-1.4,2.2-2.2,3.3c0,0.1-0.4,0-0.5,0c-0.2-0.1-0.3-0.4-0.1-0.6c0.6-1,1.2-2,1.8-3
	c0.1-0.2,0.3-0.3,0.6-0.2C479.6,336,479.7,336.1,479.9,336.4z"/>
<path d="M512.3,320.9c0,0.4,0.1,0.7-0.3,0.8c-0.3,0.1-0.6-0.1-0.6-0.4c-0.3-1.1-0.5-2.1-0.7-3.2c-0.1-0.3,0.1-0.5,0.5-0.6
	c0.3,0,0.4,0.2,0.5,0.4C511.9,319,512.1,320,512.3,320.9z"/>
<path d="M452,343.6c-0.7,1.1-1.5,2.2-2.2,3.3c0,0.1-0.3,0-0.5,0c-0.3-0.1-0.2-0.4-0.1-0.6c0.6-1,1.2-2,1.9-3
	c0.1-0.2,0.4-0.3,0.6-0.2C451.8,343.2,451.9,343.4,452,343.6z"/>
<path d="M455.9,337.4c-0.7,1.1-1.4,2.2-2.1,3.3c-0.1,0.1-0.4,0.1-0.5,0c-0.2-0.1-0.3-0.4-0.2-0.6c0.6-1,1.2-2,1.9-3
	c0.1-0.2,0.4-0.3,0.6-0.1C455.7,337,455.7,337.2,455.9,337.4z"/>
<path d="M483.6,330.2c-0.7,1-1.3,2.1-2,3.1c-0.1,0.2-0.4,0.2-0.6,0.1c-0.1-0.1-0.2-0.3-0.2-0.4c0.6-1.1,1.3-2.1,1.9-3.2
	c0.1-0.2,0.4-0.3,0.6-0.1C483.5,329.8,483.5,330,483.6,330.2z"/>
<path d="M513.8,327.8c0,0.5,0.1,0.9-0.4,1c-0.4,0.1-0.5-0.3-0.5-0.5c-0.2-1-0.4-1.9-0.6-2.9c-0.1-0.3-0.1-0.6,0.3-0.7
	c0.5-0.1,0.6,0.3,0.7,0.6C513.5,326.1,513.7,327.1,513.8,327.8z"/>
<path d="M517,341.9c0,0.4,0.1,0.8-0.2,0.9c-0.5,0.1-0.6-0.2-0.7-0.6c-0.2-1-0.4-1.9-0.6-2.9c-0.1-0.3,0-0.6,0.4-0.6
	c0.4-0.1,0.5,0.2,0.6,0.5C516.6,340.1,516.8,341.1,517,341.9z"/>
</svg>
