<?xml version="1.0" encoding="utf-8"?>
<!-- Generator: Adobe Illustrator 21.1.0, SVG Export Plug-In . SVG Version: 6.00 Build 0)  -->
<svg version="1.1" id="Layer_1" xmlns="http://www.w3.org/2000/svg" xmlns:xlink="http://www.w3.org/1999/xlink" x="0px" y="0px"
	 viewBox="0 0 612 792" style="enable-background:new 0 0 612 792;" xml:space="preserve">
<style type="text/css">
	.st0{fill:none;stroke:#000000;stroke-width:2;stroke-linecap:round;stroke-linejoin:round;stroke-miterlimit:10;}
</style>
<path class="st0" d="M310.1,275.6c-0.1,0-0.2-0.1-0.3-0.1c-5.8,0.1-11.6-0.2-17.4,0.1c-0.4,0-0.8,0-1.2,0c-20,0-39.9,0-59.9,0.2
	c-13.5,0.1-27.1,0.2-40.6,0c-7.9-0.1-15.8,0-23.7-0.3c-4.2-0.1-8.4,0.1-12.6-0.2c-2.5-0.2-5,0-7.5-0.3c-2.1-0.2-4.2-0.1-6.3-0.2
	c-3.9-0.3-7.8-0.4-11.7-0.6c-4.3-0.2-8.5-0.6-12.7-1.1c-3.7-0.4-7.4-0.7-11.1-1.1c-3.4-0.4-6.8-0.7-10.1-1.3
	c-3.2-0.5-6.5-0.6-9.7-1.1c-3.4-0.5-6.9-0.9-10.3-1.5c-3.1-0.6-6.4-0.8-9.5-1.4c-3.1-0.5-6.3-1-9.4-1.5c-2.5-0.4-5-0.9-7.6-1.1
	c-1.3-0.1-2.7-0.4-4-0.7c-1.6-0.4-2-0.1-2.2,1.3c-0.4,2.1-0.7,4.2-1.1,6.3c-0.3,2.2-0.8,4.3-1,6.5c-0.2,1.9-0.7,3.7-0.8,5.6
	c-0.1,1.8-0.4,3.6-0.6,5.3c-0.3,2.1-0.4,4.3-0.8,6.4c-0.2,1-0.1,2.1-0.3,3.2c-0.5,3.3-0.7,6.6-1.2,9.9c-0.3,2.2-0.3,4.4-0.6,6.5
	c-0.3,2.2-0.4,4.4-0.8,6.5c-0.2,1-0.2,2-0.3,3.1c-0.4,3.1-0.6,6.3-0.9,9.5c-0.3,2.2-0.4,4.4-0.6,6.5c-0.3,3.8-0.6,7.7-0.9,11.5
	c-0.3,3.8-0.6,7.6-0.9,11.5c-0.2,2.6-0.4,5.3-0.6,7.9c-0.1,1.5-0.1,3-0.3,4.6c2.3-0.3,4.4-0.4,6.5-0.8c2.2-0.5,4.4-0.7,6.6-1
	c2.3-0.4,4.6-0.8,6.9-1c1.8-0.2,3.5-0.3,5.3-0.6c2.5-0.3,5-0.6,7.5-1c1.6-0.2,3.3-0.4,5-0.6c2.9-0.4,5.9-0.6,8.8-1
	c1.9-0.2,3.9-0.4,5.8-0.6c2-0.2,4-0.4,6-0.7c1.8-0.2,3.6-0.4,5.4-0.6c2.3-0.2,4.5-0.5,6.7-0.8c2.8-0.4,5.6-0.5,8.3-0.8
	c2-0.2,3.9-0.5,5.9-0.7c1.8-0.2,3.6-0.4,5.4-0.6c2.2-0.3,4.5-0.5,6.7-0.7c2-0.2,4-0.5,6-0.6c2.7-0.2,5.4-0.7,8.1-1
	c2-0.2,4-0.3,6-0.6c2-0.3,3.9-0.4,5.9-0.7c1-0.2,2.1-0.2,3.2-0.3c3.7-0.4,7.5-0.4,11.3-0.9c3-0.4,6.1-0.6,9.1-1.1
	c1.8-0.3,3.7-0.3,5.5-0.5c2.1-0.2,4.2-0.4,6.3-0.7c1.3-0.2,2.6-0.2,4-0.2c1.8-0.1,3.6-0.2,5.4-0.4c2.6-0.2,5.3-0.3,7.9-0.7
	c1.2-0.2,2.5-0.2,3.8-0.2c1.8-0.1,3.6-0.3,5.4-0.4c3-0.1,6-0.5,8.9-0.7c1.7-0.1,3.3-0.2,5-0.2c2.6-0.1,5.2-0.2,7.8-0.4
	c4.7-0.3,9.4-0.4,14.1-0.6c2.4-0.1,4.9,0,7.3-0.2c4.9-0.3,9.9,0,14.8-0.3c4.6-0.3,9.1,0,13.6-0.2c7.7-0.5,15.3-0.2,23-0.3
	c6.3-0.1,12.6-0.2,18.9,0.1c5.2,0.3,10.5-0.1,15.7,0.3c4.5,0.3,8.9-0.1,13.3,0.3c3.1,0.2,6.3-0.1,9.4,0.3c3,0.3,6.1,0,9.1,0.2
	c3.2,0.2,6.4,0.4,9.7,0.6c3.1,0.2,6.3,0.3,9.4,0.5c2.9,0.2,5.8,0.2,8.7,0.7c1.3,0.2,2.7,0.1,4.1,0.3c3.2,0.3,6.5,0.4,9.7,0.8
	c1.2,0.1,2.4,0.1,3.7,0.3c2.8,0.3,5.7,0.3,8.5,0.6c3.5,0.3,6.9,0.7,10.4,1.1c3.3,0.3,6.5,0.7,9.8,1.1c3.1,0.4,6.2,0.6,9.4,0.8
	c3.6,0.2,7.2,0.6,10.8,1c3.5,0.4,6.9,0.9,10.4,1.3c2.8,0.3,5.7,0.5,8.5,0.8c2.7,0.3,5.4,0.8,8.1,1c1.9,0.1,3.8,0.4,5.7,0.6
	c2.8,0.2,5.6,0.6,8.4,0.9c1.9,0.2,3.7,0.4,5.6,0.7c2.2,0.3,4.5,0.5,6.7,0.7c1.9,0.2,3.9,0.4,5.8,0.6c2.8,0.3,5.7,0.6,8.5,1
	c2,0.3,4,0.4,6,0.6c2.6,0.3,5.3,0.5,7.9,1c1.7,0.3,3.5,0.4,5.3,0.6c2.5,0.4,5.1,0.6,7.6,1c1.6,0.2,3.2,0.4,4.8,0.6
	c3,0.4,6,0.7,8.9,1.3c2.1,0.4,4.2,0.6,6.3,0.8c0.9,0.1,1.8,0.2,2.6,0.4c1.1,0.2,1.3,0,1-1.1c0-0.2,0-0.4,0-0.7
	c-0.2-3.4-0.3-6.8-0.6-10.1c-0.2-2.6-0.4-5.2-0.6-7.7c-0.2-2.5-0.4-5.1-0.6-7.6c-0.2-2.4-0.4-4.9-0.6-7.3c-0.3-3.5-0.5-7-1.1-10.4
	c-0.4-2.2-0.3-4.5-0.6-6.7c-0.3-2.2-0.4-4.4-0.8-6.5c-0.2-1-0.1-2-0.3-3.1c-0.4-3.1-0.6-6.1-0.9-9.2c-0.4-3.5-0.8-6.9-1.2-10.4
	c-0.3-3.2-0.8-6.3-1.2-9.5c-0.4-3-0.8-6-1.1-8.9c-0.4-3.1-1-6.1-1.4-9.2c-0.1-0.9-0.4-1.8-0.3-2.7c0.1-1-0.4-1.2-1.3-1.1
	c-1.9,0.3-3.8,0.6-5.7,0.8c-2.6,0.3-5.2,0.8-7.8,1.3c-3.3,0.6-6.6,1-9.8,1.5c-2.6,0.4-5.2,0.8-7.7,1.1c-2.1,0.3-4.1,0.8-6.2,1
	c-1.7,0.1-3.3,0.4-5,0.6c-2.5,0.3-5,0.6-7.5,1c-1.6,0.2-3.2,0.4-4.8,0.6c-2.1,0.2-4.2,0.6-6.3,0.8c-1.1,0.1-2.2,0.2-3.4,0.3
	c-3.6,0.3-7.2,0.6-10.8,1.1c-1.2,0.1-2.4,0.2-3.5,0.2c-3.3,0.2-6.6,0.6-10,0.6c-4.4,0.1-8.9,0.3-13.3,0.5c-2.5,0.1-5,0-7.5,0.2
	c-4,0.4-7.9,0-11.9,0.3c-6.7,0.5-13.5,0-20.2,0.3c-14.6,0.6-29.2,0.3-43.8,0.2c-14.9-0.1-29.9,0-44.8-0.1c-6,0-11.9,0-17.9-0.2
	c-5.6-0.2-11.1,0-16.7-0.1c-0.3,0-0.6-0.2-0.9,0.1"/>
<path class="st0" d="M309.8,294.5c0.1,11.6-0.2,23.1,0.1,34.7"/>
<path class="st0" d="M314.2,285.3c-2.7,0-5.4,0-8.1,0"/>
<path class="st0" d="M310.1,275.7c-0.1,2,0.2,4-0.1,6"/>
<path class="st0" d="M176.4,352.7c0.1,1.4,0.1,2.8,0.5,4.1c0.2,0.5-0.1,1.2,0.4,1.6"/>
<path class="st0" d="M442.8,353c-0.2,1.9-0.4,3.7-0.6,5.6"/>
<path class="st0" d="M310.1,346.8c-0.1,1.9,0.2,3.7-0.1,5.6"/>
<path class="st0" d="M309.8,288.9c-0.3,1.2,0.8,2.1,1,3.2c0.1,0.6,0.1,1.2,0.2,1.8c-1,0.7-2.2,0.1-3.2,0.3"/>
<path class="st0" d="M53.5,274.8c-1.7-0.3-2.1-0.1-2,1.6c0,0.6-0.2,1.1-0.3,1.6"/>
<path class="st0" d="M42.3,360.7c-0.1,0.6,0.2,0.9,0.9,0.8c1.1-0.1,2.1-0.3,3.2-0.4"/>
<path class="st0" d="M567.9,278c0.1-0.9-0.4-1.7-0.4-2.7c0-0.3-0.4-1.3-1.3-0.5"/>
<path class="st0" d="M576.7,360.4c0.3,1.2-0.7,1.3-1.4,1c-0.7-0.2-1.4-0.2-2.1-0.2"/>
<path class="st0" d="M208.7,285.6c-1.5,0-2.9,0-4.4,0"/>
<path class="st0" d="M249.2,285.6c-1.5,0-2.9,0-4.4,0"/>
<path class="st0" d="M242.4,285.6c-1.5,0-2.9,0-4.4,0"/>
<path class="st0" d="M222.2,285.6c-1.5,0-2.9,0-4.4,0"/>
<path class="st0" d="M235.7,285.6c-1.5,0-2.9,0-4.4,0"/>
<path class="st0" d="M229,285.6c-1.5,0-2.9,0-4.4,0"/>
<path class="st0" d="M255.9,285.6c-1.5,0-2.9,0-4.4,0"/>
<path class="st0" d="M202,285.6c-1.5,0-2.9,0-4.4,0"/>
<path class="st0" d="M215.5,285.6c-1.5,0-2.9,0-4.4,0"/>
<path class="st0" d="M195.3,285.6c-1.5,0-2.9,0-4.4,0"/>
<path class="st0" d="M56.8,274.8c0.6,0.9,1.7,0.5,2.5,0.8c0.4,0.1,1-0.1,1,0.6"/>
<path class="st0" d="M74,277.8c-1.4-0.2-2.7-0.6-4.1-0.5"/>
<path class="st0" d="M563.2,275.2c-1.4-0.1-2.7,0.3-4.1,0.5"/>
<path class="st0" d="M296.3,285.3c-1.4-0.2-2.7-0.2-4.1,0"/>
<path class="st0" d="M200.5,344.3c-1.4,0.1-2.7,0.2-4.1,0.3"/>
<path class="st0" d="M569.2,286.8c0.2,1.2,0.4,2.5,0.6,3.7"/>
<path class="st0" d="M193.8,344.8c-1.4,0.1-2.7,0.2-4.1,0.3"/>
<path class="st0" d="M285.5,285.3c1.4,0.2,2.7,0.2,4.1,0"/>
<path class="st0" d="M368.7,341.4c-1.4-0.2-2.7-0.2-4.1,0"/>
<path class="st0" d="M96.5,281c1.4,0.2,2.7,0.4,4.1,0.5"/>
<path class="st0" d="M170.7,285.3c1.4,0.2,2.7,0.2,4.1,0"/>
<path class="st0" d="M126.7,351.8c-1.4,0-2.7,0.5-4.1,0.3"/>
<path class="st0" d="M348.5,340.8c-1,0.3-2-0.1-2.9-0.1c-0.4,0-0.8,0.1-1.2,0.1"/>
<path class="st0" d="M157.2,285c1.4,0.2,2.7,0.2,4.1,0"/>
<path class="st0" d="M418.5,344.3c1.4,0.1,2.7,0.2,4.1,0.3"/>
<path class="st0" d="M303.4,285.3c-1.3,0-2.6,0-4,0"/>
<path class="st0" d="M309.7,290.4c-0.9,1.1-1,2.4-1.2,3.6"/>
<path class="st0" d="M411.8,343.8c1.2,0.3,2.6-0.1,3.8,0.4"/>
<path class="st0" d="M213.7,343.4c-1.3-0.3-2.5,0.6-3.8,0.1"/>
<path class="st0" d="M405,343.2c1.2,0.3,2.6-0.1,3.8,0.4"/>
<path class="st0" d="M134.3,284.2c-1.3,0-2.5-0.1-3.8-0.1"/>
<path class="st0" d="M220.5,342.8c-1.3-0.3-2.5,0.6-3.8,0.1"/>
<path class="st0" d="M398.3,342.7c1.2,0.3,2.6-0.1,3.8,0.4"/>
<path class="st0" d="M141.1,284.5c-1.3,0-2.5-0.1-3.8-0.1"/>
<path class="st0" d="M328.3,340.6c-1.3-0.3-2.5-0.1-3.8-0.1"/>
<path class="st0" d="M147.8,284.8c-1.3,0-2.5-0.1-3.8-0.1"/>
<path class="st0" d="M395.4,342.6c-1.3,0-2.5-0.1-3.8-0.1"/>
<path class="st0" d="M448.8,284.9c-0.1,0.2-0.1,0.6-0.6,0.5c-0.9-0.1-1.9,0-2.8,0"/>
<path class="st0" d="M388.6,342.3c-1.3-0.2-2.5-0.3-3.8-0.3"/>
<path class="st0" d="M233.9,342c-1.3-0.2-2.5,0.6-3.8,0.1"/>
<path class="st0" d="M177.4,285.3c1.3,0.3,2.5,0.1,3.8,0.1"/>
<path class="st0" d="M282.6,285.4c-1.3,0.1-2.5-0.1-3.8,0.1"/>
<path class="st0" d="M334.4,285.4c-1.3,0-2.5,0-3.8,0"/>
<path class="st0" d="M341.2,285.6c-1.3-0.3-2.5-0.1-3.8-0.1"/>
<path class="st0" d="M327.7,285.2c-1.3,0-2.5,0-3.8,0"/>
<path class="st0" d="M321.5,340.3c-1.3,0.3-2.5,0.1-3.8,0.1"/>
<path class="st0" d="M46.4,317.7c-0.4,1.1-0.3,2.3-0.3,3.5"/>
<path class="st0" d="M50,287c-0.1,1.2-0.3,2.3-0.4,3.5"/>
<path class="st0" d="M49.2,292.9c-0.1,1.2-0.3,2.3-0.4,3.5"/>
<path class="st0" d="M570.2,293.2c0.1,1.2,0.3,2.3,0.4,3.5"/>
<path class="st0" d="M378.1,341.6c1.3,0.3,2.5,0.1,3.8,0.1"/>
<path class="st0" d="M247.4,341.5c-1.3,0-2.5,0-3.8,0"/>
<path class="st0" d="M371.3,341.4c1.3,0.3,2.5,0.1,3.8,0.1"/>
<path class="st0" d="M48.5,299.3c-0.1,1.2-0.3,2.3-0.4,3.5"/>
<path class="st0" d="M351.1,340.8c1.3,0.3,2.5,0.1,3.8,0.1"/>
<path class="st0" d="M449.5,347.1c-1.3,0.2-2.5-0.3-3.8-0.3"/>
<path class="st0" d="M556.2,276.1c-1.3,0.2-2.5,0.4-3.8,0.5"/>
<path class="st0" d="M543.3,278.2c-1.3,0-2.6,0.2-3.8,0.5"/>
<path class="st0" d="M47,311.6c0.2,1.2-0.5,2.3-0.3,3.5"/>
<path class="st0" d="M186.8,345.5c-1.3-0.2-2.5,0.4-3.8,0.3"/>
<path class="st0" d="M87,280.1c-0.1-0.2-0.2-0.5-0.3-0.5c-1.1,0.1-2-0.4-3.1-0.3"/>
<path class="st0" d="M153.7,349c-1.3-0.2-2.5,0.4-3.8,0.3"/>
<path class="st0" d="M482.7,350.7c-1.3-0.1-2.5-0.3-3.8-0.4"/>
<path class="st0" d="M485.6,351c1.3,0.1,2.5,0.5,3.8,0.4"/>
<path class="st0" d="M361.7,341.2c-1.3,0.2-2.5-0.5-3.8-0.1"/>
<path class="st0" d="M529.5,280.1c-1.3,0-2.5,0.5-3.8,0.4"/>
<path class="st0" d="M432,345.4c1.3,0.1,2.5,0.3,3.8,0.4"/>
<path class="st0" d="M114.1,282.8c-1.3-0.1-2.5-0.2-3.8-0.3"/>
<path class="st0" d="M120.9,283.4c-1.3-0.3-2.6,0-3.8-0.4"/>
<path class="st0" d="M207,343.9c-1.3,0-2.5,0.1-3.8,0.1"/>
<path class="st0" d="M509.9,353.5c-1.3,0.2-2.5-0.4-3.8-0.3"/>
<path class="st0" d="M86.6,356.2c-1.3-0.1-2.5,0.5-3.8,0.3"/>
<path class="st0" d="M79.8,356.8c-1.3,0.1-2.5,0.3-3.8,0.4"/>
<path class="st0" d="M543,357.2c-1.3-0.1-2.5-0.4-3.8-0.3"/>
<path class="st0" d="M66.1,358.3c-1.2,0.4-2.5,0.5-3.8,0.5"/>
<path class="st0" d="M133.2,351.1c-1.3,0.1-2.5,0.3-3.8,0.4"/>
<path class="st0" d="M262.6,285.6c-1.2,0-2.4,0-3.7,0"/>
<path class="st0" d="M568.5,281c-0.1,1.1,0.3,2.2,0.4,3.3"/>
<path class="st0" d="M462.6,349c0-0.4-0.3-0.6-0.7-0.5c-0.9,0.1-1.8-0.1-2.6-0.3"/>
<path class="st0" d="M43.8,348.3c-0.5,0-0.6,0.3-0.6,0.7c0,0.8,0,1.6,0,2.4"/>
<path class="st0" d="M269.4,285.6c-1.2,0-2.4,0-3.7,0"/>
<path class="st0" d="M140.2,350.4c-1.2,0-2.5,0-3.7,0.4"/>
<path class="st0" d="M276.1,285.6c-1.2,0-2.4,0-3.7,0"/>
<path class="st0" d="M47.6,305.6c0,1.1-0.1,2.2-0.1,3.3"/>
<path class="st0" d="M63.6,275.8c0.6,1.1,1.9,0.1,2.7,0.8c0.1,0.1,0.5,0,0.7,0"/>
<path class="st0" d="M320.9,285.3c-1.2,0-2.4,0-3.7,0"/>
<path class="st0" d="M103.7,282c1.2,0,2.4,0.1,3.7,0.1"/>
<path class="st0" d="M92.7,355.4c-0.7,0.3-1.5,0.3-2.3,0.3c-0.4,0-1-0.1-1,0.5"/>
<path class="st0" d="M512.7,353.5c0.1,0.3,0.1,0.6,0.6,0.5c1-0.1,1.9,0.2,2.8,0.3"/>
<path class="st0" d="M335,340.6c-1.2,0.3-2.4,0.1-3.7,0.1"/>
<path class="st0" d="M227,342.6c-1.2,0.1-2.5-0.2-3.7,0.1"/>
<path class="st0" d="M452.3,347.1c0,0.4,0.3,0.6,0.7,0.5c0.9-0.1,1.8,0.1,2.6,0.3"/>
<path class="st0" d="M341.4,340.7c-1.2,0-2.3,0-3.5,0"/>
<path class="st0" d="M167.4,285.3c-1.2-0.2-2.3-0.2-3.5,0"/>
<path class="st0" d="M314.5,340.4c-1.2,0-2.3,0-3.5,0"/>
<path class="st0" d="M274.7,340.8c-1.2,0-2.3,0.1-3.5,0.1"/>
<path class="st0" d="M240.7,341.8c-1.2,0.1-2.4-0.2-3.5,0.1"/>
<path class="st0" d="M72.5,357.6c-1.2,0.1-2.3,0.4-3.5,0.3"/>
<path class="st0" d="M301.6,340.4c-1.2,0-2.3,0-3.5,0"/>
<path class="st0" d="M502.9,352.8c-1.1-0.3-2.4,0.1-3.5-0.4"/>
<path class="st0" d="M261.2,341.1c-1.2,0-2.3,0.1-3.5,0.1"/>
<path class="st0" d="M127.3,284c-1.1-0.3-2.4,0.1-3.5-0.4"/>
<path class="st0" d="M187.6,285.6c-1.2-0.2-2.3-0.2-3.5,0"/>
<path class="st0" d="M308.3,340.4c-1.2,0-2.3,0-3.5,0"/>
<path class="st0" d="M553.3,358.4c1.2,0,2.3,0.7,3.5,0.3"/>
<path class="st0" d="M59.3,359.4c-1.1,0.3-2.4-0.1-3.4,0.8"/>
<path class="st0" d="M52.7,359.9c-0.9,0.9-2.3,0.5-3.4,0.8"/>
<path class="st0" d="M50.8,280.9c-0.6,1,0.1,2.1-0.6,3.1"/>
<path class="st0" d="M361.1,285.4c-1.1,0.3-2.2,0.1-3.4,0.1"/>
<path class="st0" d="M354.3,285.4c-1.1,0.3-2.2,0.1-3.4,0.1"/>
<path class="st0" d="M347.6,285.4c-1.1,0.3-2.2,0.1-3.4,0.1"/>
<path class="st0" d="M381.3,285.4c-1.1,0.3-2.2,0.1-3.4,0.1"/>
<path class="st0" d="M442.4,346.6c-1-0.6-2.3,0.1-3.4-0.5"/>
<path class="st0" d="M146.5,349.8c-1.1-0.2-2.2,0.2-3.4,0.3"/>
<path class="st0" d="M492.8,351.9c1.1,0,2.3,0,3.4,0.3"/>
<path class="st0" d="M154.1,285c-1.1-0.3-2.2-0.1-3.4-0.1"/>
<path class="st0" d="M374.6,285.4c-1.1,0.3-2.2,0.1-3.4,0.1"/>
<path class="st0" d="M367.8,285.4c-1.1,0.3-2.2,0.1-3.4,0.1"/>
<path class="st0" d="M44.4,336.2c0,1-0.5,1.9-0.3,2.9"/>
<path class="st0" d="M574.6,336.2c0.5,0.9,0.2,2,0.3,2.9"/>
<path class="st0" d="M294.6,340.4c-1.1,0-2.1,0-3.2,0"/>
<path class="st0" d="M281.1,340.7c-1.1,0-2.1,0-3.2,0"/>
<path class="st0" d="M287.8,340.7c-1.1,0-2.1,0-3.2,0"/>
<path class="st0" d="M267.6,341c-1.1,0-2.1,0-3.2,0"/>
<path class="st0" d="M43.8,342.3c0,1,0.1,2-0.3,2.9"/>
<path class="st0" d="M575.2,342.3c0.4,1,0.3,2,0.3,2.9"/>
<path class="st0" d="M425.7,345c1.1,0.1,2.2-0.3,3.2,0.3"/>
<path class="st0" d="M180,346c-0.5,0.4-1.1,0.2-1.6,0.3c-0.6,0-1.1-0.1-1.6,0.3"/>
<path class="st0" d="M549.4,277.2c-1.1,0.2-2.1,0.4-3.2,0.5"/>
<path class="st0" d="M80.1,278.8c-1.1-0.2-2.1-0.4-3.2-0.5"/>
<path class="st0" d="M166.6,347.6c-1.1-0.2-2.1,0.3-3.2,0.3"/>
<path class="st0" d="M536,279.2c-1.1,0.1-2.1,0.3-3.2,0.4"/>
<path class="st0" d="M93.6,280.6c-1.1-0.2-2.1-0.4-3.2-0.5"/>
<path class="st0" d="M575.8,348.4c0.4,1,0.3,2,0.3,2.9"/>
<path class="st0" d="M522.8,280.9c-1,0.4-2.1,0.4-3.2,0.5"/>
<path class="st0" d="M469.2,349.2c-1.1,0.2-2.1-0.4-3.2-0.3"/>
<path class="st0" d="M516,281.7c-0.5,0.5-1.1,0.2-1.6,0.3c-0.5,0.1-1.2-0.2-1.6,0.3"/>
<path class="st0" d="M475.9,350c-1.1-0.2-2.1-0.4-3.2-0.3"/>
<path class="st0" d="M509.3,282.5c-1.1-0.2-2.1,0.3-3.2,0.3"/>
<path class="st0" d="M502.6,283c-1.1,0.1-2.1,0.4-3.2,0.3"/>
<path class="st0" d="M482.4,284.4c-1.1,0.1-2.2-0.2-3.2,0.3"/>
<path class="st0" d="M475.6,284.6c-1.1,0.1-2.2-0.2-3.2,0.3"/>
<path class="st0" d="M468.9,284.9c-1.1,0-2.1,0-3.2,0"/>
<path class="st0" d="M455.4,285.2c-1.1,0-2.1,0-3.2,0"/>
<path class="st0" d="M119.7,352.4c-1,0.5-2.2,0.1-3.2,0.4"/>
<path class="st0" d="M462.1,285.2c-1.1,0-2.1,0-3.2,0"/>
<path class="st0" d="M435.2,285.4c-1.1,0-2.1,0-3.2,0"/>
<path class="st0" d="M441.9,285.4c-1.1,0-2.1,0-3.2,0"/>
<path class="st0" d="M387.9,285.6c-1.1,0-2.1,0-3.2,0"/>
<path class="st0" d="M173.3,346.8c-1.1,0-2.1,0.5-3.2,0.3"/>
<path class="st0" d="M394.6,285.6c-1.1,0-2.1,0-3.2,0"/>
<path class="st0" d="M112.9,353.2c-1.1-0.1-2.1,0.5-3.2,0.3"/>
<path class="st0" d="M401.4,285.6c-1.1,0-2.1,0-3.2,0"/>
<path class="st0" d="M408.1,285.6c-1.1,0-2.1,0-3.2,0"/>
<path class="st0" d="M106.2,354c-1.1-0.2-2.1,0.3-3.2,0.3"/>
<path class="st0" d="M99.5,354.6c-1,0.6-2.2,0-3.2,0.5"/>
<path class="st0" d="M522.8,355.1c-1-0.6-2.2,0-3.2-0.5"/>
<path class="st0" d="M42.9,354.6c0.2,1-0.5,1.9-0.3,2.9"/>
<path class="st0" d="M576.4,354.6c0.2,1,0.4,1.9,0.3,2.9"/>
<path class="st0" d="M414.8,285.6c-1.1,0-2.1,0-3.2,0"/>
<path class="st0" d="M529.5,355.6c-1.1,0.1-2.2-0.1-3.2-0.3"/>
<path class="st0" d="M421.6,285.6c-1.1,0-2.1,0-3.2,0"/>
<path class="st0" d="M536.3,356.4c-1.1,0.2-2.1-0.4-3.2-0.3"/>
<path class="st0" d="M428.3,285.6c-1.1,0-2.1,0-3.2,0"/>
<path class="st0" d="M571.7,305.5c-0.2,1,0.4,1.9,0.3,2.9"/>
<path class="st0" d="M572.3,311.6c0.2,1,0.4,1.9,0.3,2.9"/>
<path class="st0" d="M546.5,357.6c1.1,0.1,2.1,0.3,3.2,0.4"/>
<path class="st0" d="M495.8,283.6c-1.1,0.2-2.1,0.3-3.2,0.3"/>
<path class="st0" d="M572.9,317.7c0.6,0.9,0.1,2,0.3,2.9"/>
<path class="st0" d="M573.5,323.9c0.5,0.9,0.2,2,0.3,2.9"/>
<path class="st0" d="M562.9,359.8c-1.1-0.1-2.1-0.3-3.2-0.4"/>
<path class="st0" d="M45,330c0.2,1-0.3,1.9-0.3,2.9"/>
<path class="st0" d="M569.7,360.7c-1.1-0.2-2.1-0.4-3.2-0.5"/>
<path class="st0" d="M574.1,330c0.5,0.9,0.2,2,0.3,2.9"/>
<path class="st0" d="M254.1,341.2c-1,0.1-2.1-0.2-3.1,0.1"/>
<path class="st0" d="M45.6,324c-0.1,0.9,0.3,1.9-0.3,2.8"/>
<path class="st0" d="M571.1,299.5c0.1,0.9-0.3,1.9,0.3,2.8"/>
<path class="st0" d="M159.8,348.2c-0.9,0.6-2.1-0.1-3.1,0.5"/>
<path class="st0" d="M489.1,284.1c-1,0.1-2.1-0.2-3.1,0.1"/>
</svg>
