<?xml version="1.0" encoding="utf-8"?>
<!-- Generator: Adobe Illustrator 21.1.0, SVG Export Plug-In . SVG Version: 6.00 Build 0)  -->
<svg version="1.1" id="Layer_1" xmlns="http://www.w3.org/2000/svg" xmlns:xlink="http://www.w3.org/1999/xlink" x="0px" y="0px"
	 viewBox="0 0 612 792" style="enable-background:new 0 0 612 792;" xml:space="preserve">
<style type="text/css">
	.st0{fill:#FFFFFF;}
</style>
<path d="M340.2,457.9c0.7,1.9,0.4,4.1,3.2,4.3c-0.2,1.4-0.3,2.7-0.5,4.7c-1.4-1.3-2.4-2.3-3.5-3.4c2.3-1.4,0.6-2.9,0.3-4.3
	c-0.4-1.5-1.6-1.4-2.8-1.4c-14.1,0.1-28.3,0-42.4,0.4c-4.4,0.1-7.8-0.9-10.8-4.1c-1.7-2-3.9-3.6-5.7-5.5c-0.8-0.9-1.4-2.2-1.4-3.3
	c-0.2-3.6-0.2-7.1-0.2-10.7c0-1.3-0.6-1.9-1.8-2.1c-6.1-1.2-12.2-2.5-18.3-3.7c-0.8-0.1-1.6,0.3-2.4,0.5c-0.1,0.2-0.1,0.4-0.2,0.6
	c-1-0.8-2.1-1.6-3.5-2.8c1.7-0.5,2.9-0.8,4.1-1.2c0,0.2-0.1,0.4-0.1,0.6c0.9,0.5,1.8,1.3,2.8,1.5c5.8,1.3,11.6,2.4,17.4,3.6
	c0.5,0.1,1.1,0.2,1.9,0.3c0-4,0-7.8,0-11.6c-0.1-14-0.3-28-0.4-42c0-1.9-0.7-3.1-2.2-4.2c-11.7-8.2-23.3-16.4-35-24.6
	c-0.6-0.4-1.6-0.4-2.4-0.6c-0.1,0.2-0.2,0.4-0.4,0.6c-0.6-1.1-1.3-2.3-2.2-3.9c1.8,0.2,3.1,0.3,4.4,0.4c-0.1,0.2-0.3,0.4-0.4,0.6
	c0.6,0.8,1,1.9,1.8,2.4c11.6,8.3,23.3,16.5,35,24.7c0.3,0.2,0.6,0.4,1.2,0.7c0.1-1,0.2-1.7,0.2-2.4c0-4.6-0.1-9.3-0.1-13.9
	c0-2.8,0.2-3.1,3-3.1c12.6-0.1,25.3-0.2,37.9-0.4c15.5-0.2,31-0.4,46.5-0.6c0.5,0,1-0.1,1.6-0.2c-0.2-0.6-0.2-1.1-0.4-1.5
	c-2.6-5.4-5.3-10.8-8-16.1c-0.5-0.9-1.5-1.6-2.2-2.4c-0.2,0.1-0.3,0.2-0.5,0.3c0-1.3,0-2.5,0-4.3c1.4,1,2.4,1.7,3.5,2.4
	c-0.2,0.1-0.4,0.2-0.6,0.2c0.1,1,0,2.1,0.4,3c2.8,5.7,5.6,11.4,8.5,17.1c0.4,0.7,1.4,1.3,2.3,1.4c1.5,0.2,3.1,0.1,4.7,0
	c1.6-0.1,2.2,0.6,2.2,2.1c0,6.4,0,12.7,0.1,19.1c0.1,18.9,0.2,37.8,0.3,56.8c0,3.4,0.2,6.9,0,10.3c-0.1,1.5-0.8,3.2-1.9,4.3
	c-3.4,3.5-7.1,6.8-10.8,10.1c-0.7,0.6-1.8,1.1-2.8,1.1c-5.6,0.1-11.3,0.1-16.9,0.2C341.8,457.8,341.1,457.9,340.2,457.9z M278,433.4
	c0,4.2-0.1,8.3,0.1,12.4c0,0.7,0.6,1.6,1.1,2.1c2.5,2.4,5.2,4.7,7.7,7.1c1.3,1.3,2.6,1.7,4.4,1.6c13.5-0.2,27-0.3,40.5-0.4
	c1.9,0,3.8,0,5.8,0c-1.5-1-3.5,0.2-5.1-1.8c2.7,0,2.5-1.5,2.6-3c0.5-4.9-1.8-9.2-3.3-13.6c-0.3-0.8-0.5-1.6-0.8-2.5
	c0.2-0.1,0.4-0.2,0.7-0.2c0.9,2.4,1.8,4.9,2.7,7.3c0.5-2.9,0.5-5.6,0.5-8.4c-0.1-17.8-0.3-35.6-0.4-53.3c0-1.6-0.5-2.1-2.1-2.1
	c-3.6,0.1-7.1,0.3-10.7,0c-2.3-0.1-2.7,0.8-2.7,2.8c0.2,12.9,0.3,25.7,0.4,38.6c0.1,10.6,0.2,21.3,0.2,31.9c0,1.8,0.5,2.4,2.3,2.3
	c2.4-0.2,4.9-0.1,7.3-0.1c0.6,0,1.2,0.3,2.1,0.5c-2.1,1.5-14.4,1.5-15.8,0c1-0.2,1.8-0.5,2.8-0.7c0-0.8,0-1.5,0-2.2
	c-0.2-23.6-0.4-47.1-0.6-70.7c0-1.8-0.6-2.3-2.3-2.3c-10.9,0.2-21.8,0.3-32.8,0.3c-1.9,0-3.5,0-3.1,2.6c0,0.3-0.3,0.6-0.8,1.4
	c-0.4-1.5-0.6-2.6-0.8-3.4c0,17.3,0,34.7,0,52.1c0.3,0,0.6,0,1,0c0-3.4,0-6.8,0-10.7c1.3,1.7,1.6,9,0.9,12.2
	C279.2,433.4,278.7,433.4,278,433.4z M340.1,455.4c0,0.2,0,0.5,0,0.7c6.5,0,13,0,19.5,0c0.7,0,1.5-0.4,2-0.9
	c3.5-3.2,6.9-6.4,10.3-9.7c0.7-0.7,1.3-1.9,1.3-2.9c0-20.6-0.1-41.3-0.3-61.9c0-0.6-0.1-1.3-0.2-1.9c-0.1,0-0.3,0-0.4,0
	c-0.2,1-0.3,1.9-0.5,2.9c-0.2,0.1-0.5,0.2-0.7,0.3c-0.1-0.3-0.4-0.7-0.4-1c0.3-3-1.7-2.8-3.7-2.7c-9.5,0.1-19,0.3-28.5,0.4
	c-2.9,0-3,0-2.9,2.9c0.1,21.6,0.2,43.1,0.5,64.7c0,2.4,1.2,4.8,2.1,7.1c0.2,0.4,1.1,0.7,1.8,0.8c2.2,0.1,4.4,0,6.6,0
	c0.7,0,1.3,0.3,2,0.4c0,0.3,0,0.6-0.1,0.9C345.8,455.4,343,455.4,340.1,455.4z M371.1,370.4c0.3,0,0.6,0,0.8,0.1
	c0.1,1.3,0.2,2.6,0.4,3.9c0.1,0,0.3,0,0.4,0c0-4.5,0-9,0-13.6c-0.2,0-0.4,0-0.7,0c0,2.6,0,5.2,0,7.7c-0.3,0-0.7,0.1-1,0.1
	c-0.2-1.1-0.5-2.1-0.7-3.2c-0.1-0.5,0.1-1.1-0.1-1.6c-1.1-2.1-2.3-4.1-3.3-6.2c-0.8-1.7-1.8-2.2-3.6-2.2
	c-22.2,0.3-44.4,0.5-66.6,0.7c-5.9,0.1-11.9,0.2-17.8,0.3c-0.6,0-1.2,0.3-1.9,0.5c0.1,0.2,0.2,0.4,0.2,0.6c1.8-0.1,2.6,0.7,2.5,2.7
	c-0.1,1.9-0.6,4,0,5.8c0.6,1.8-0.2,2.5-1.3,3.9c-0.3-1.3-0.6-2.1-0.8-3c-0.1,0-0.1,0-0.2,0.1c0,2.7,0,5.5,0,8.2c0.1,0,0.3,0,0.4,0
	c0.2-1.3,0.4-2.5,0.5-3.8c0.3,0,0.6,0,0.8,0c0.1,1.1-0.2,2.5,0.4,3.3c0.6,0.8,2,1,3.6,1.8c-1.4,0.4-2.3,0.6-3.2,0.9
	c0,0.1,0.1,0.3,0.1,0.4c30-0.3,59.9-0.6,89.9-0.9c0-0.2,0-0.3,0-0.5c-1.3-0.1-2.6-0.3-3.8-0.4c0-0.3,0-0.5,0-0.8
	c0.6-0.1,1.1-0.4,1.7-0.4c2.2,0.3,3.3-0.4,2.9-2.8C370.7,371.5,371,371,371.1,370.4z M369.9,361.8c0.2,0,0.4-0.1,0.6-0.1
	c-0.1-1.1-0.4-2.3-0.3-3.4c0.1-0.6,0.8-1.2,1.3-1.8c0.2,0.1,0.4,0.2,0.5,0.3c0.1,0.6,0.3,1.2,0.4,1.8c0.1-1.2,1.5-2.8-0.7-3.2
	c-1.5-0.3-3-0.1-5-0.1C368,357.8,368.9,359.8,369.9,361.8z"/>
<path class="st0" d="M278,433.4c0.7,0,1.2,0,1.7,0c0.7-3.3,0.3-10.5-0.9-12.2c0,3.9,0,7.3,0,10.7c-0.3,0-0.6,0-1,0
	c0-17.4,0-34.8,0-52.1c0.2,0.8,0.5,1.9,0.8,3.4c0.5-0.8,0.8-1.2,0.8-1.4c-0.4-2.6,1.2-2.6,3.1-2.6c10.9,0,21.8-0.1,32.8-0.3
	c1.8,0,2.3,0.5,2.3,2.3c0.2,23.6,0.4,47.1,0.6,70.7c0,0.7,0,1.4,0,2.2c-1,0.2-1.8,0.5-2.8,0.7c1.3,1.5,13.6,1.5,15.8,0
	c-0.9-0.2-1.5-0.4-2.1-0.5c-2.4,0-4.9-0.1-7.3,0.1c-1.8,0.1-2.3-0.5-2.3-2.3c0-10.6-0.1-21.3-0.2-31.9c-0.1-12.9-0.2-25.7-0.4-38.6
	c0-2,0.3-2.9,2.7-2.8c3.6,0.2,7.1,0.1,10.7,0c1.6-0.1,2.1,0.5,2.1,2.1c0.1,17.8,0.3,35.6,0.4,53.3c0,2.8,0,5.5-0.5,8.4
	c-0.9-2.4-1.8-4.9-2.7-7.3c-0.2,0.1-0.4,0.2-0.7,0.2c0.3,0.8,0.5,1.6,0.8,2.5c1.5,4.4,3.7,8.6,3.3,13.6c-0.1,1.6,0.1,3-2.6,3
	c1.7,2,3.7,0.8,5.1,1.8c-1.9,0-3.8,0-5.8,0c-13.5,0.1-27,0.2-40.5,0.4c-1.8,0-3.1-0.4-4.4-1.6c-2.5-2.5-5.2-4.7-7.7-7.1
	c-0.6-0.5-1.1-1.4-1.1-2.1C278,441.7,278,437.7,278,433.4z M279.8,435.4c-3,4.6-0.8,12,4.1,14.6c-0.6-1.1-0.8-1.9-1.3-2.2
	c-2.1-1.4-2.7-3.4-2.5-5.9c0.1-1.5,0-3,0-4.5C280.1,436.7,279.9,436,279.8,435.4z M298.6,454.9c-2.7-0.7-5.1,0.2-7.1-0.5
	c-2.1-0.7-3.9-2.4-5.9-3.6c-0.2,1.2,1,2.7,3.6,4.5C290.5,456.3,296.7,456.2,298.6,454.9z M300.2,454.7c1.8,1.6,12.4,1.4,13.6,0
	C309.2,454.7,304.7,454.7,300.2,454.7z M278.6,407.3c0.4,0,0.8,0,1.2,0c-0.1-3.6,0.2-7.3-0.9-10.9
	C278.2,400.1,278.2,403.7,278.6,407.3z M278.8,419.7c1.6-1.8,1.4-9.4,0-10.6C278.8,412.7,278.8,416.2,278.8,419.7z M279.3,384
	c-1.4,2-1.4,9.1,0,10.6C279.3,391,279.3,387.8,279.3,384z"/>
<path class="st0" d="M340.1,455.4c2.9,0,5.7,0,8.6,0c0-0.3,0-0.6,0.1-0.9c-0.7-0.1-1.3-0.4-2-0.4c-2.2,0-4.4,0.1-6.6,0
	c-0.6,0-1.6-0.3-1.8-0.8c-0.8-2.3-2-4.7-2.1-7.1c-0.3-21.6-0.4-43.1-0.5-64.7c0-2.9,0-2.8,2.9-2.9c9.5-0.1,19-0.2,28.5-0.4
	c2,0,4-0.3,3.7,2.7c0,0.3,0.2,0.6,0.4,1c0.2-0.1,0.5-0.2,0.7-0.3c0.2-1,0.3-1.9,0.5-2.9c0.1,0,0.3,0,0.4,0c0.1,0.6,0.2,1.3,0.2,1.9
	c0.1,20.6,0.2,41.3,0.3,61.9c0,1-0.6,2.2-1.3,2.9c-3.3,3.3-6.8,6.5-10.3,9.7c-0.5,0.5-1.3,0.9-2,0.9c-6.5,0.1-13,0-19.5,0
	C340.1,455.9,340.1,455.6,340.1,455.4z M366.3,447.5c0.2,0.1,0.4,0.2,0.6,0.4c2.9-2.5,7.1-4.2,5.6-9.5c-0.2-0.7,0-1.6-0.1-2.3
	c0-0.5-0.3-1-0.4-1.5c-0.3,0-0.5,0-0.8,0c-0.1,0.9-0.4,1.8-0.3,2.6c0.5,3.6-0.5,6.5-3.6,8.6C366.9,446.1,366.7,446.9,366.3,447.5z
	 M364.3,448.9c-0.6,0.5-1.4,0.9-1.9,1.5c-2.4,3.2-5.6,4.3-9.5,3.7c-0.7-0.1-1.5,0.2-2.6,0.4C354.3,457.6,363.5,454,364.3,448.9z
	 M372.2,421c-1.8,1.7-1.5,10.9,0,12.1C372.2,428.9,372.2,424.9,372.2,421z M371.8,408.1c-0.4,0.5-0.7,0.6-0.7,0.8
	c-0.1,3.1-0.1,6.3-0.1,9.4c0,0.3,0.5,0.5,0.8,0.8c0.2-0.4,0.7-0.7,0.7-1.1c0-2.8,0-5.6-0.1-8.3C372.4,409.2,372.1,408.7,371.8,408.1
	z M372,395.3c-1.7,1.8-1.5,10.3,0,11.3C372,402.9,372,399.3,372,395.3z M371.7,393.5c1-2,0.8-8.9-0.3-9.9
	C370.3,385.7,370.6,392.5,371.7,393.5z"/>
<path class="st0" d="M371.1,370.4c-0.1,0.6-0.5,1.1-0.4,1.7c0.4,2.4-0.8,3-2.9,2.8c-0.5-0.1-1.1,0.2-1.7,0.4c0,0.3,0,0.5,0,0.8
	c1.3,0.1,2.6,0.3,3.8,0.4c0,0.2,0,0.3,0,0.5c-30,0.3-59.9,0.6-89.9,0.9c0-0.1-0.1-0.3-0.1-0.4c0.9-0.3,1.9-0.5,3.2-0.9
	c-1.6-0.7-3-1-3.6-1.8c-0.6-0.8-0.3-2.2-0.4-3.3c-0.3,0-0.6,0-0.8,0c-0.2,1.3-0.4,2.5-0.5,3.8c-0.1,0-0.3,0-0.4,0c0-2.7,0-5.5,0-8.2
	c0.1,0,0.1,0,0.2-0.1c0.2,0.9,0.5,1.8,0.8,3c1.1-1.4,1.8-2.1,1.3-3.9c-0.6-1.7-0.1-3.8,0-5.8c0.1-2-0.6-2.8-2.5-2.7
	c-0.1-0.2-0.2-0.4-0.2-0.6c0.6-0.2,1.2-0.5,1.9-0.5c5.9-0.1,11.9-0.2,17.8-0.3c22.2-0.2,44.4-0.4,66.6-0.7c1.8,0,2.9,0.5,3.6,2.2
	c1,2.1,2.2,4.1,3.3,6.2c0.2,0.4,0,1.1,0.1,1.6c0.2,1.1,0.5,2.2,0.7,3.2c0.3,0,0.7-0.1,1-0.1c0-2.6,0-5.2,0-7.7c0.2,0,0.4,0,0.7,0
	c0,4.5,0,9,0,13.6c-0.1,0-0.3,0-0.4,0c-0.1-1.3-0.2-2.6-0.4-3.9C371.7,370.4,371.4,370.4,371.1,370.4z M348.1,375.4
	c-5.2,0-10.5,0-16.2,0C333.6,376.9,346.4,376.9,348.1,375.4z M312.9,376.6c0-0.2,0-0.4,0-0.6c-2-1.1-12.5-0.8-13.6,0.6
	C303.9,376.6,308.4,376.6,312.9,376.6z M330.2,376.4c-1.8-1.6-14.2-1.3-15.3,0C320.1,376.4,325.2,376.4,330.2,376.4z M350.2,376
	c4.7,0,9.3,0,14.4,0C363,374.6,351.9,374.6,350.2,376z M284.6,376.5c2.4,1,11.8,0.7,12.8-0.4C295.8,375.2,286.1,375.4,284.6,376.5z"
	/>
<path class="st0" d="M369.9,361.8c-1-2-2-4-3.2-6.5c2,0,3.5-0.2,5,0.1c2.2,0.4,0.8,2,0.7,3.2c-0.1-0.6-0.3-1.2-0.4-1.8
	c-0.2-0.1-0.4-0.2-0.5-0.3c-0.5,0.6-1.2,1.2-1.3,1.8c-0.1,1.1,0.2,2.3,0.3,3.4C370.3,361.8,370.1,361.8,369.9,361.8z"/>
<path d="M279.8,435.4c0.1,0.6,0.3,1.3,0.3,1.9c0.1,1.5,0.1,3,0,4.5c-0.2,2.5,0.4,4.4,2.5,5.9c0.5,0.3,0.7,1.2,1.3,2.2
	C278.9,447.4,276.8,440,279.8,435.4z"/>
<path d="M298.6,454.9c-1.9,1.3-8.1,1.4-9.4,0.4c-2.6-1.8-3.8-3.3-3.6-4.5c1.9,1.2,3.7,2.9,5.9,3.6
	C293.5,455.1,296,454.3,298.6,454.9z"/>
<path d="M300.2,454.7c4.5,0,8.9,0,13.6,0C312.6,456.1,302,456.4,300.2,454.7z"/>
<path d="M278.6,407.3c-0.4-3.6-0.4-7.2,0.4-10.9c1,3.6,0.7,7.2,0.9,10.9C279.4,407.3,279,407.3,278.6,407.3z"/>
<path d="M278.8,419.7c0-3.5,0-6.9,0-10.6C280.2,410.3,280.4,417.9,278.8,419.7z"/>
<path d="M279.3,384c0,3.8,0,7.1,0,10.6C277.9,393.1,277.9,386,279.3,384z"/>
<path d="M366.3,447.5c0.4-0.6,0.6-1.4,1.1-1.7c3.2-2.1,4.1-5,3.6-8.6c-0.1-0.8,0.2-1.7,0.3-2.6c0.3,0,0.5,0,0.8,0
	c0.1,0.5,0.4,1,0.4,1.5c0.1,0.8-0.1,1.6,0.1,2.3c1.5,5.3-2.7,7-5.6,9.5C366.7,447.7,366.5,447.6,366.3,447.5z"/>
<path d="M364.3,448.9c-0.8,5.1-10,8.8-14,5.6c1.1-0.2,1.9-0.5,2.6-0.4c3.9,0.5,7.1-0.5,9.5-3.7C362.9,449.8,363.7,449.4,364.3,448.9
	z"/>
<path d="M372.2,421c0,4,0,7.9,0,12.1C370.7,431.9,370.5,422.7,372.2,421z"/>
<path d="M371.8,408.1c0.3,0.7,0.6,1.1,0.6,1.5c0.1,2.8,0.1,5.6,0.1,8.3c0,0.4-0.5,0.7-0.7,1.1c-0.3-0.3-0.8-0.5-0.8-0.8
	c0-3.1,0-6.3,0.1-9.4C371.1,408.7,371.3,408.5,371.8,408.1z"/>
<path d="M372,395.3c0,4,0,7.6,0,11.3C370.5,405.5,370.3,397.1,372,395.3z"/>
<path d="M371.7,393.5c-1.1-1-1.4-7.9-0.3-9.9C372.4,384.7,372.7,391.5,371.7,393.5z"/>
<path d="M348.1,375.4c-1.6,1.5-14.4,1.5-16.2,0C337.6,375.4,342.8,375.4,348.1,375.4z"/>
<path d="M312.9,376.6c-4.5,0-9,0-13.6,0c1.2-1.4,11.7-1.7,13.6-0.6C312.9,376.2,312.9,376.4,312.9,376.6z"/>
<path d="M330.2,376.4c-5,0-10.1,0-15.3,0C316.1,375.1,328.5,374.8,330.2,376.4z"/>
<path d="M350.2,376c1.7-1.5,12.8-1.4,14.4,0C359.5,376,354.8,376,350.2,376z"/>
<path d="M284.6,376.5c1.5-1.1,11.2-1.3,12.8-0.4C296.4,377.2,287,377.5,284.6,376.5z"/>
</svg>
