<?xml version="1.0" encoding="utf-8"?>
<!-- Generator: Adobe Illustrator 21.1.0, SVG Export Plug-In . SVG Version: 6.00 Build 0)  -->
<svg version="1.1" id="Layer_1" xmlns="http://www.w3.org/2000/svg" xmlns:xlink="http://www.w3.org/1999/xlink" x="0px" y="0px"
	 viewBox="0 0 612 792" style="enable-background:new 0 0 612 792;" xml:space="preserve">
<style type="text/css">
	.st0{fill:#FFFFFF;}
</style>
<path d="M301,376.3c-3.9-2-7.8-4-11.8-6c-3.6-1.8-7.2-3.5-10.8-5.3c-1.3-0.7-2.5-1.2-3.4,1c-1.3-1.7-2.3-3.1-3.6-4.8
	c2.2,0,3.9,0,5.7,0c-0.9,2,0.5,2.6,2,3.4c7.3,3.6,14.6,7.1,21.9,10.8c2.2,1.1,4.4,1.6,6.9,1.5c18.1-0.4,36.1-0.7,54.2-1
	c16.4-0.3,32.8-0.7,49.3-1c0.7,0,1.4-0.1,2.2-0.7c-10.9-8.1-21.9-16.3-32.9-24.5c-0.6,0.5-1,0.9-1.8,1.5c-0.9-1.7-1.7-3.3-2.8-5.5
	c2.3,0.4,4,0.6,6,1c-1.3,2,0,2.8,1.3,3.8c10.4,7.8,20.8,15.6,31.2,23.3c0.7,0.5,1.7,0.8,2.5,0.8c3.3,0,6.6-0.1,9.8-0.2
	c3.5-0.1,3.5,0,3.6,3.5c0.1,11.9,0.1,23.7,0.2,35.6c0,3.9,0,7.9,0.1,11.8c0,1.5-0.4,2.2-1.9,2.7c-5.9,2.2-11.6,4.6-17.5,6.9
	c-5.4,2.1-10.8,4-16.2,6.1c-6,2.3-12,4.8-18.1,7.1c-3.6,1.4-7.3,2.7-11,4.1c-2.2,0.8-4.3,0.5-6.5-0.2c-8.3-3-16.6-6-24.8-9
	c-8.9-3.3-17.8-6.7-26.7-10c-4.1-1.5-8.2-3-12.3-4.3c-1.5-0.5-2.1-1.3-2.1-2.8c0-2.8,0-5.7,0-8.5c-0.2-0.1-0.4-0.3-0.6-0.4
	c-12.1,10.5-24.1,21.1-36.3,31.7c0.4,0.7,0.6,1.2,1,2c-1.8,0.5-3.5,1-5.8,1.6c0.9-2.2,1.5-3.8,2.2-5.6c0.7,0.5,1.2,0.8,1.9,1.3
	c3.7-3.2,7.4-6.4,11.1-9.6c8.2-7.2,16.5-14.3,24.7-21.6c0.9-0.8,1.6-2.3,1.6-3.4c0-11.4-0.2-22.8-0.4-34.3c0-1.6,0.6-2,2-2
	c1.8,0,3.6,0,5.5,0C301,376.8,301,376.6,301,376.3z M299.4,379.2c0,1.3,0,2.8,0,4.3c1,0,1.8-0.1,2.5,0c1.1,0.2,3.2-0.8,3.2,0.9
	c0.1,2.1-2.1,1.1-3.2,1.2c-1.8,0.1-3.3,0.1-3,2.6c0.1,0.4-0.5,0.8-0.8,1.2c-0.4-0.4-0.9-0.8-1-1.3c-0.2-0.7-0.1-1.5-0.2-2.3
	c-0.3-0.1-0.5-0.1-0.8-0.2c-0.2,0.6-0.7,1.2-0.7,1.8c0,6.2,0.1,12.4,0.2,18.6c0,2.3,0,4.6,0,7.3c0.6-0.3,0.9-0.5,1.2-0.6
	c0.6-0.3,1.2-0.6,1.8-0.8c0.2,0.6,0.5,1.3,0.6,1.9c0.1,2.6,0.1,5.1,0,7.7c-0.1,1.9,0.1,3.3,2.4,3.5c1.1,0.1,2.2,0.6,3.1,1.2
	c0.5,0.3,0.7,1.1,1,1.7c-0.2,0.1-0.4,0.3-0.6,0.4c-1.6-0.6-3.1-1.3-4.7-1.9c-3.2-1.2-3.2-1.2-3.1-4.7c0-2.5,0-5.1,0-7.6
	c-0.3-0.1-0.6-0.1-0.9-0.2c-0.3,0.7-0.7,1.5-0.8,2.2c-0.1,2.8,0,5.6,0,8.4c0,1.4,0.6,2.1,2,2.6c5.4,1.8,10.7,3.8,16,5.7
	c8.7,3.2,17.3,6.4,26,9.6c6.4,2.4,12.8,4.7,19.2,7c1.9,0.7,4.1,1.4,5.9,1c2.9-0.5,5.6-1.9,8.4-3c5.8-2.2,11.5-4.5,17.3-6.7
	c5.4-2,10.8-3.9,16.2-6c6.9-2.7,13.7-5.5,20.6-8.1c1.3-0.5,1.8-1.1,1.8-2.5c-0.1-7.4-0.1-14.7-0.1-22.1c0-5.7-0.1-11.4-0.2-17.1
	c0-0.7-0.7-1.3-1-2c-0.3,0.7-0.6,1.3-1,2c-0.3,0.6-0.6,1.2-1,1.8c-0.3-0.6-0.9-1.2-0.9-1.8c0-1.7-0.8-2.1-2.3-1.9
	c-1.3,0.1-2.7,0.2-4.1,0.1c-0.7-0.1-1.3-0.6-2-0.9c0.6-0.4,1.2-1,1.9-1.1c1.8-0.2,3.7-0.2,5.5-0.4c0.2,0,0.3-0.4,0.5-0.7
	c-0.8-0.1-1.3-0.2-2.3-0.4c0.6-0.3,0.9-0.4,1.1-0.6c0.5-0.4,1-0.9,1.4-1.3c-0.5-0.5-0.9-1.2-1.4-1.3c-1.3-0.3-2.6-0.2-4.2-0.3
	c0.6,0.9,0.9,1.4,1.1,1.8c-1.9-0.6-3.8-1.6-5.7-1.6c-7.2,0-14.4,0.4-21.6,0.6c-27.1,0.5-54.2,1-81.4,1.5c-0.7,0-1.4,0.1-2.1,0.2
	c0,0.2,0,0.3,0,0.5c1.4,0.8,2.8,1.6,4.3,2.4c-0.1,0.2-0.2,0.4-0.2,0.7C309,380.2,304.7,377.5,299.4,379.2z M427.8,376.6
	c-0.3,1.3-0.5,2-0.6,2.8c-0.1,0.4-0.3,0.9-0.2,1.1c0.1,0.3,0.7,0.4,1,0.4c0.3-0.1,0.7-0.5,0.8-0.8c0.1-1,0.1-2-0.1-2.9
	C428.7,376.8,427.9,376.6,427.8,376.6z"/>
<path class="st0" d="M427.8,376.6c0.1,0,0.8,0.2,0.9,0.6c0.2,0.9,0.2,2,0.1,2.9c0,0.3-0.5,0.7-0.8,0.8c-0.3,0.1-0.9-0.1-1-0.4
	c-0.1-0.3,0.1-0.7,0.2-1.1C427.4,378.6,427.5,377.9,427.8,376.6z"/>
<path d="M402.8,384c-2.9,0-5.9,0.1-8.8,0c-0.6,0-1.2-0.7-1.8-1c0.6-0.4,1.1-1,1.7-1.1c5.9-0.2,11.8-0.3,17.8-0.4
	c0.6,0,1.2,0.6,1.8,0.9c-0.6,0.4-1.2,1-1.8,1.1c-3,0.1-6,0.1-9,0.1C402.8,383.7,402.8,383.9,402.8,384z"/>
<path d="M358.4,384.8c-2.6,0-5.3,0.1-7.9,0c-0.5,0-1-0.6-1.6-1c0.5-0.4,1-1.1,1.5-1.1c5.4-0.2,10.8-0.2,16.2-0.3
	c0.5,0,0.9,0.7,1.4,1.1c-0.5,0.3-0.9,0.9-1.4,1c-2.8,0.1-5.5,0-8.3,0C358.4,384.7,358.4,384.7,358.4,384.8z"/>
<path d="M426.9,417.2c0,1.6-0.1,3.1,0,4.7c0.2,1.8-0.6,2.8-2.2,3.4c-2.1,0.8-4.2,1.6-6.4,2.4c-0.4,0.1-0.9-0.1-1.4-0.2
	c0.3-0.4,0.5-1,0.9-1.2c1.6-0.8,3.2-1.5,4.9-2.1c1.7-0.7,2.6-1.6,2.4-3.6c-0.2-3-0.1-6.1,0-9.2c0-0.6,0.6-1.1,0.9-1.7
	c0.3,0.5,0.8,1.1,0.9,1.6C427,413.2,426.9,415.2,426.9,417.2C426.9,417.2,426.9,417.2,426.9,417.2z"/>
<path d="M414,429c-0.5,0.4-0.9,0.9-1.4,1.1c-4.7,1.9-9.5,3.8-14.2,5.7c-1.4,0.5-2.8,1.1-4.2,1.5c-0.4,0.1-1-0.2-1.5-0.3
	c0.3-0.4,0.5-1.1,0.8-1.2c6.1-2.6,12.3-5.1,18.5-7.5c0.5-0.2,1.2,0,1.8,0C413.9,428.5,413.9,428.7,414,429z"/>
<path d="M380.3,382c2.5,0,5-0.1,7.5,0c0.5,0,1,0.6,1.5,1c-0.5,0.4-1,1-1.5,1c-5,0.2-10.1,0.3-15.1,0.3c-0.6,0-1.2-0.7-1.8-1
	c0.6-0.4,1.1-1,1.7-1c2.6-0.1,5.1,0,7.7,0C380.3,382.2,380.3,382.1,380.3,382z"/>
<path d="M317.4,385.5c-2.5,0-5,0.1-7.5,0c-0.5,0-1-0.6-1.5-1c0.5-0.4,1-1,1.5-1c5.1-0.2,10.1-0.3,15.2-0.3c0.5,0,1,0.7,1.5,1
	c-0.5,0.4-1,1-1.5,1c-2.6,0.1-5.1,0-7.7,0C317.4,385.3,317.4,385.4,317.4,385.5z"/>
<path d="M368.6,446.6c-0.4,0.5-0.6,1.2-1.1,1.3c-2.1,0.7-4,2.1-6.5,1.1c-3.5-1.4-7.1-2.6-10.6-4c-0.5-0.2-0.8-1-1.2-1.5
	c0.2-0.2,0.4-0.4,0.5-0.5c3.4,1.2,6.8,2.3,10.1,3.6c2.1,0.9,4,1.1,6.1-0.1c0.6-0.4,1.5-0.4,2.2-0.5
	C368.4,446.3,368.5,446.5,368.6,446.6z"/>
<path d="M337.7,385.1c-2.1,0-4.3,0.1-6.4,0c-0.6,0-1.2-0.6-1.7-1c0.5-0.4,1-1,1.5-1c4.6-0.2,9.1-0.2,13.7-0.3c0.5,0,0.9,0.6,1.4,0.9
	c-0.5,0.4-0.9,1.1-1.4,1.1c-2.3,0.1-4.7,0.1-7.1,0.1C337.7,385,337.7,385,337.7,385.1z"/>
<path d="M389.9,438c-0.4,0.5-0.7,1.4-1.2,1.6c-5.2,2.2-10.5,4.2-15.8,6.3c-0.3,0.1-0.9-0.1-1.3-0.2c0.2-0.5,0.3-1.1,0.7-1.3
	c2-1,4.1-1.9,6.2-2.7c3.5-1.4,7.1-2.7,10.7-4.1C389.4,437.6,389.6,437.8,389.9,438z"/>
<path d="M308.7,427.9c2,0.7,3.6,1.2,5.3,1.8c3.6,1.3,7.2,2.5,10.8,3.9c0.9,0.4,2.8,0.5,2.1,2.5C321.7,435.2,309.2,430,308.7,427.9z"
	/>
<path d="M339.8,409.8c1.4,1.3,2.7,2.5,4.4,4.1c-2.4,0.4-4.1,0.6-6.1,0.9c0.6-2.2-0.6-2.8-2.1-3.1c-2.6-0.6-5.3-1-7.8-1.8
	c-1.9-0.6-3.6-1.7-5.2-3.1c1.5,0.4,3.1,0.8,4.6,1.3c3.1,0.9,6.1,2,9.2,2.9C338.6,411.6,338.6,411.6,339.8,409.8z"/>
<path d="M330.3,435.7c3.4,1.3,6.9,2.5,10.3,3.8c1.7,0.6,3.4,1.2,5,1.9c0.4,0.2,0.7,0.9,1,1.4c-0.6,0.1-1.2,0.3-1.6,0.2
	c-4.6-1.6-9.2-3.3-13.8-5.1c-0.6-0.2-0.9-1-1.4-1.5C330,436.2,330.1,435.9,330.3,435.7z"/>
<path d="M299.2,400.7c0,2.2,0,4.4,0,6.6c0,0.5-0.5,1-0.7,1.5c-0.4-0.5-1-1-1-1.5c-0.1-4.6-0.2-9.1-0.2-13.7c0-0.5,0.7-1,1-1.5
	c0.3,0.5,0.8,1,0.8,1.5C299.1,396,299.1,398.3,299.2,400.7C299.1,400.7,299.2,400.7,299.2,400.7z"/>
<path d="M425,398c0-2.2-0.1-4.4,0-6.6c0-0.5,0.6-1,0.9-1.6c0.3,0.5,0.8,1,0.8,1.5c0.1,4.6,0.1,9.1,0.1,13.7c0,0.5-0.6,1.1-0.9,1.6
	c-0.3-0.6-0.8-1.1-0.8-1.7C425,402.6,425.1,400.3,425,398C425.1,398,425,398,425,398z"/>
</svg>
