<?xml version="1.0" encoding="utf-8"?>
<!-- Generator: Adobe Illustrator 21.1.0, SVG Export Plug-In . SVG Version: 6.00 Build 0)  -->
<svg version="1.1" id="Layer_1" xmlns="http://www.w3.org/2000/svg" xmlns:xlink="http://www.w3.org/1999/xlink" x="0px" y="0px"
	 viewBox="0 0 612 792" style="enable-background:new 0 0 612 792;" xml:space="preserve">
<style type="text/css">
	.st0{fill:#FFFFFF;}
</style>
<path d="M289.5,437.6c0,4.8,0,9.5,0,14.3c0.1,28.9,0.1,57.7,0.2,86.6c0,2.8-0.5,3.3-3.4,3.3c-24.6,0.1-49.3,0.3-73.9,0.5
	c-1.4,0-2.9,0.6-4.3,0.6c-1.3,0-2.6-0.5-3.9-0.5c-7.1,0-14.3,0.1-21.4,0.1c-16.9,0.1-33.8,0.1-50.8,0.2c-1.2,0-2.7,0.4-2.6-1.6
	c0.1-1.7,1.4-1.7,2.7-1.7c16.3-0.1,32.5-0.1,48.8-0.2c7.9,0,15.8-0.1,23.7-0.2c0.5,0,1-0.1,1.8-0.2c0-0.8,0-1.5,0-2.3
	c-0.1-13.9-0.2-27.7-0.3-41.6c0-0.7-0.1-1.5,0-2.1c0.1-0.3,0.7-0.8,1-0.8c0.3,0,0.8,0.4,1,0.8c0.2,0.4,0,1,0.1,1.5
	c0.1,13.9,0.2,27.8,0.3,41.8c0,2.9,0,2.9,3,2.9c15.8-0.1,31.5-0.2,47.3-0.3c6.5,0,13-0.1,19.4-0.1c1.9,0,2.3-0.8,2.3-2.4
	c-0.1-4-0.1-8-0.2-12c0-1.4,0.2-2.4,2-2.3c1.6,0.1,2,0.9,2,2.4c0,4.1,0,8.3,0,12.4c0,0.6,0.5,1.1,0.7,1.7c0.3-0.6,0.8-1.1,0.8-1.7
	c0-31.3-0.1-62.5-0.1-93.8c0-3.6,0.1-7.1,0-10.7c0-1.1-0.6-2.1-0.9-3.2c-0.3,0-0.6,0.1-0.8,0.1c0,3.6,0,7.2,0,10.8
	c0,2.4,0,4.9,0.1,7.3c0,1.2-0.3,1.9-1.7,1.9c-1.2,0-2.1-0.4-2.1-1.8c0-7.2-0.4-14.5,0.2-21.6c0.2-2.4-0.6-3.7-1.4-5.5
	c-2-4.6-4-9.2-5.9-13.8c-2.8-6.9-5.6-13.8-8.3-20.8c-1.6-4.1-2.9-8.3-4.9-12.1c-1.8-3.4-1.3-6.7-1.3-10.1c-0.1-16.3,0-32.7,0-49
	c0-1.8-1.3-3.5-0.1-5.3c0.2-0.3,0.2-0.8,0.5-0.9c4.5-2.1,7.3-6.3,10.9-9.5c2.9-2.6,5.5-5.3,8.2-8.1c0.7-0.8,1.2-1.8,1.7-2.8
	c0.7-1.4,2.4-1.8,3.5-0.6c2.3,2.5,4.6,5.1,6.8,7.7c1.3,1.6,2.6,2.1,4.7,1.7c13.4-2.6,26.9-5.1,40.4-7.6c3.6-0.7,7.2-1.3,10.7-2
	c1.2-0.2,2.2-0.5,1.3-2.4c2,0.5,3.5,0.8,5.7,1.3c-1.7,1.3-3,2.3-4.4,3.4c-0.3-1.8-1.3-1.9-2.7-1.6c-14.9,2.8-29.9,5.5-44.8,8.2
	c-2.6,0.5-5.2,1-8.4,1.5c4.7,5.2,9.1,9.9,12.8,14c-0.4,2.5-0.9,4.2-0.9,6c0,20.3,0.1,40.6,0.1,60.8c0,2,0.7,2.4,2.5,2.3
	c14.5-0.2,29-0.3,43.5-0.4c3.6,0,7.1-0.1,10.7,0c1.5,0,2.7-0.1,2.6-2.3c1.7,0.8,3,1.5,5,2.5c-1.8,1-3.2,1.7-4.6,2.4
	c0-0.2,0.1-0.5,0.1-0.7c-1-0.4-2.1-1.2-3.1-1.2c-18.1,0.1-36.1,0.3-54.2,0.3c-2.1,0-2.5,0.8-2.5,2.6c0.2,15.5,0.2,31,0.4,46.5
	c0,0.9,0.5,1.9,1.1,2.6c6.7,6.8,13.5,13.5,20.2,20.2c4.6,4.6,9.3,9.2,13.8,14c1.4,1.5,2.9,2.2,5,2.2c14.8-0.1,29.6,0,44.3,0
	c8.9,0,17.9,0,26.8,0c0.7,0,1.4,0,2.2,0c0.2-0.7,0.3-1.3,0.5-2.2c1.7,0.8,3.2,1.5,5.3,2.5c-2,1-3.4,1.8-5.2,2.7
	c0-2.5-1.6-2.2-3.1-2.2c-23,0-46,0-69,0c-0.9,0-1.8,0-2.7,0c-0.1,0.2-0.1,0.4-0.2,0.6c2.2,1.8,4.4,3.7,6.6,5.5
	c7.4,5.9,14.8,11.8,22.1,17.7c10.2,8.2,20.5,16.3,30.7,24.4c0.6,0.5,1.4,0.8,2.1,0.9c15.7,2.1,31.4,4.1,47.1,6.2
	c1.3,0.2,2.5,0.3,2.5-1.9c1.8,1.1,3.2,2.1,5.2,3.4c-2.2,0.7-3.8,1.3-5.8,2c0.5-2.3-0.8-2.4-2.3-2.6c-15.1-1.9-30.2-3.9-45.2-5.9
	c-1.1-0.1-2.1-0.2-2.7-0.3c-0.8,1.1-1.3,2.1-2.1,2.7c-6,4.1-12.2,8.2-18.2,12.3c-0.3,0.2-0.6,0.5-1.4,1.2c1.2,0.1,1.9,0.2,2.6,0.2
	c19.4-0.1,38.8-0.3,58.2-0.4c3.8,0,7.6,0,11.3,0c1.2,0,2.3-0.2,2.3,1.6c0,1.8-1,1.7-2.2,1.7c-24.6,0.1-49.3,0.2-73.9,0.4
	c-1.5,0-3.1,0.7-4.6,0.9c-0.7,0.1-1.6-0.2-2.1-0.6c-8.5-7.3-16.8-14.7-25.5-21.8c-4.8-3.9-8.1-8.9-11.7-13.7
	c-8.8-11.4-17.5-22.9-25.9-34.5c-5.7-7.9-10.7-16.2-16.1-24.3c-1.7-2.6-3.4-5.3-5.1-8C289.9,437.4,289.7,437.5,289.5,437.6z
	 M300.8,324.6c-3.9-0.3-3.9-0.3-3.9-3.9c0-1.8,0.2-3.6,0-5.4c-0.1-1-0.5-2.2-1.2-3c-2-2.3-4.1-4.3-6.2-6.5c-0.7-0.7-2-1.2-0.8-2.5
	c1.2-1.3,2.1-0.5,3,0.5c2.3,2.4,4.6,4.9,7,7.2c0.4,0.4,1.1,0.4,1.7,0.6c-0.1-0.6-0.1-1.3-0.5-1.6c-5.3-5.9-10.7-11.8-16-17.8
	c-1.2-1.4-2.1-1.5-3.4-0.2c-5.5,5.6-11.1,11-16.6,16.6c-1,1-1.7,2.7-1.8,4.1c-0.1,17.3,0.1,34.6-0.1,51.8
	c-0.1,6.4,2.5,11.9,5.3,17.2c2.3,4.4,5.4,8.3,8.1,12.5c0.5,0.8,1.1,2,1.7,2.1c2.2,0.3,1.9,1.8,1.8,3.1c-0.1,1.4-0.4,2.8-0.7,4.5
	c-1.8-2.6-3.3-4.8-4.8-7c-0.1,0.1-0.3,0.1-0.4,0.2c1.6,4,3.2,8,4.8,12.1c0.1,0,0.2-0.1,0.3-0.1c0-1.1,0-2.3,0-3.4
	c0.2-0.1,0.4-0.1,0.7-0.2c0.2,0.7,0.6,1.4,0.6,2c0,1.8-0.6,3.8-0.1,5.4c0.6,2.2,1.8,4.3,3,6.3c5.1,8.2,10.3,16.4,15.6,24.5
	c6.7,10.2,13.4,20.4,20.5,30.3c7.1,10,14.8,19.6,22.2,29.3c2.9,3.8,5.7,7.8,9.2,11c7.7,7,15.8,13.5,23.7,20.3
	c1.4,1.2,2.4,1.2,3.8,0.2c5.4-3.6,10.8-7.2,16.2-10.8c2.2-1.5,4.4-3,6.6-4.5c0-0.2-0.1-0.5-0.1-0.7c-4.6-0.7-9.2-1.4-13.8-2
	c0-0.2,0.1-0.4,0.1-0.6c3.5,0.4,7,0.8,10.5,1.2c0.2-0.3,0.3-0.5,0.5-0.8c-0.4-0.2-0.9-0.4-1.3-0.7c-6.2-5-12.4-10-18.7-14.9
	c-6.2-5-12.4-10-18.7-14.9c-1.7-1.4-3.4-3.6-5.3-3.8c-2.4-0.2-3.5-1.5-4.9-2.8c-2.6-2.4-5.2-4.9-7.6-7.5c-2.3-2.5-4.9-3-8.2-2.2
	c0.5,0.6,0.9,1,1.2,1.5c0.4,0.6,0.7,1.4,1,2c-0.7-0.3-1.6-0.4-2-0.9c-1.7-1.9-3.5-3.5-6.4-3c-0.3,0-0.6-0.2-1.3-0.5
	c1.4-0.2,2.4-0.3,3.5-0.5c-0.6-0.6-1-0.9-1.2-1.3c-0.5-0.8-0.9-1.7-1.3-2.5c0.8,0.5,1.9,0.8,2.4,1.5c1.9,2.4,4.1,3.3,7.6,2.2
	c-1.2-1.5-2.1-3-3.3-4.1c-11.3-11.4-22.7-22.7-34-34.1c-4.1-4.2-8.9-7.8-11.9-13.1c-1.2-2.1-2.4-4-5.1-4c0,0-0.1-0.2-0.3-0.8
	c1.9-0.1,3.8-0.5,5.6-0.3c0.6,0.1,1.2,1.2,1.7,1.9c2.4,3.3,3.9,7.3,8.1,9.4c0.1-0.6,0.2-1.1,0.2-1.7c0-5.7,0-11.4,0-17.1
	c0-3.5,0-3.5,3.4-3.9c0.1,0,0.2-0.2,0.2-0.2c0-1.9,0-3.6,0-5.3c-3.5-0.2-3.6-0.2-3.6-3.5c-0.1-2.7-0.1-5.4,0-8.1
	c0.1-1.9-0.5-2.8-2.6-2.5c-0.8,0.1-1.6,0-2.4,0c0-0.2,0-0.5,0-0.7c0.9,0,1.9-0.1,2.8,0c1.6,0.1,2.1-0.4,2.1-2.1
	c-0.1-3.4-0.1-6.8-0.1-10.2c0-1-0.1-2.4,0.5-3c0.6-0.6,2-0.5,3.1-0.7c0-1.7,0-3.6,0-5.5c-3.7-0.2-3.7,0.7-3.7-3.8c0-0.6,0-1.3,0-1.9
	c0-2.6,0-5.2,0-8c-5.9,0-11.5,0-17,0c-1.2,0-2.4,0-2.4-1.6c0-1.7,1.4-1.3,2.4-1.3c4.9-0.1,9.9-0.2,14.8-0.1c1.9,0,2.5-0.7,2.3-2.5
	c-0.2-2.6,0-5.1-0.1-7.7c0-1.3,0.5-2,1.7-1.8c2,0.2,2.3-0.9,2.1-2.5C300.8,326.7,300.8,325.7,300.8,324.6z"/>
<path d="M284.1,469.6c0,4.2,0,8.4,0,12.6c0,1.3-0.1,2.2-1.8,2.2c-1.6,0-1.9-0.8-1.9-2.2c0-6.2,0-12.4-0.1-18.6c0-2.3,0-4.6-0.1-6.8
	c-0.1-1.6,0.7-2.1,2.2-2.1c1.6,0,1.7,0.9,1.7,2.1C284,461.1,284,465.4,284.1,469.6C284.1,469.6,284.1,469.6,284.1,469.6z"/>
<path d="M280.3,503.3c0-3.6,0-7.3,0-10.9c0-1.6,0.5-2.4,2.2-2.4c1.8,0,1.6,1.2,1.6,2.3c0,7.2,0,14.4,0,21.6c0,1.2-0.1,2.3-1.8,2.3
	c-1.7,0-2-0.8-2-2.3C280.4,510.4,280.4,506.9,280.3,503.3C280.4,503.3,280.4,503.3,280.3,503.3z"/>
<path d="M173.9,483.9c-1.4,1.7-0.6,2.3,0.6,3.1c9.7,6.1,19.3,12.2,28.9,18.3c0.6,0.4,1.1,0.8,1.6,1.2c-0.1,0.2-0.2,0.4-0.4,0.5
	c-10.7-6.8-21.4-13.6-32.5-20.6c-0.3,0.6-0.6,1.3-1,2.3c-1.2-2.1-2-3.5-3.1-5.4C170.1,483.6,171.8,483.7,173.9,483.9z"/>
<path d="M281.5,453.7c-0.5-0.1-1-0.2-1.5-0.3c-12.6-3.7-25.2-7.3-37.8-11c-1.4-0.4-2.5-0.7-3,1.4c-1.4-1.3-2.6-2.3-4.1-3.8
	c2.1-0.4,3.7-0.7,5.6-1.1c-1,2.3,0.6,2.5,1.9,2.9c12.3,3.6,24.6,7.2,37,10.7c0.7,0.2,1.4,0.5,2.1,0.7
	C281.6,453.4,281.5,453.6,281.5,453.7z"/>
<path class="st0" d="M300.8,324.6c0,1.1-0.1,2.1,0,3.1c0.1,1.6-0.1,2.7-2.1,2.5c-1.2-0.1-1.8,0.6-1.7,1.8c0,2.6-0.1,5.1,0.1,7.7
	c0.1,1.8-0.4,2.5-2.3,2.5c-4.9-0.1-9.9,0-14.8,0.1c-1,0-2.4-0.4-2.4,1.3c0,1.6,1.2,1.6,2.4,1.6c5.6,0,11.1,0,17,0c0,2.7,0,5.3,0,8
	c0,0.6,0,1.3,0,1.9c0,4.5,0,3.6,3.7,3.8c0,1.9,0,3.7,0,5.5c-1.1,0.2-2.5,0.1-3.1,0.7c-0.6,0.6-0.5,2-0.5,3c0,3.4-0.1,6.8,0.1,10.2
	c0.1,1.6-0.5,2.2-2.1,2.1c-0.9-0.1-1.9,0-2.8,0c0,0.2,0,0.5,0,0.7c0.8,0,1.6,0.1,2.4,0c2-0.3,2.6,0.6,2.6,2.5c-0.1,2.7,0,5.4,0,8.1
	c0.1,3.3,0.1,3.3,3.6,3.5c0,1.7,0,3.5,0,5.3c0,0-0.1,0.1-0.2,0.2c-3.4,0.4-3.4,0.4-3.4,3.9c0,5.7,0,11.4,0,17.1
	c0,0.5-0.1,1.1-0.2,1.7c-4.1-2.1-5.6-6.1-8.1-9.4c-0.5-0.7-1.1-1.9-1.7-1.9c-1.8-0.2-3.6,0.2-5.6,0.3c0.2,0.5,0.2,0.8,0.3,0.8
	c2.8,0,4,2,5.1,4c3,5.2,7.7,8.9,11.9,13.1c11.3,11.4,22.7,22.7,34,34.1c1.2,1.2,2.1,2.6,3.3,4.1c-3.4,1.1-5.7,0.2-7.6-2.2
	c-0.5-0.7-1.6-1-2.4-1.5c0.4,0.8,0.8,1.7,1.3,2.5c0.2,0.4,0.6,0.7,1.2,1.3c-1.2,0.2-2.1,0.3-3.5,0.5c0.7,0.3,1.1,0.6,1.3,0.5
	c2.9-0.5,4.6,1.1,6.4,3c0.5,0.5,1.3,0.6,2,0.9c-0.3-0.7-0.6-1.4-1-2c-0.3-0.5-0.7-0.9-1.2-1.5c3.3-0.8,5.9-0.3,8.2,2.2
	c2.4,2.6,5,5.1,7.6,7.5c1.4,1.3,2.4,2.6,4.9,2.8c1.8,0.1,3.5,2.4,5.3,3.8c6.2,5,12.4,10,18.7,14.9c6.2,5,12.4,10,18.7,14.9
	c0.4,0.3,0.9,0.4,1.3,0.7c-0.2,0.3-0.3,0.5-0.5,0.8c-3.5-0.4-7-0.8-10.5-1.2c0,0.2-0.1,0.4-0.1,0.6c4.6,0.7,9.2,1.4,13.8,2
	c0,0.2,0.1,0.5,0.1,0.7c-2.2,1.5-4.4,3-6.6,4.5c-5.4,3.6-10.8,7.2-16.2,10.8c-1.4,0.9-2.4,0.9-3.8-0.2c-7.9-6.8-16-13.3-23.7-20.3
	c-3.5-3.2-6.3-7.2-9.2-11c-7.5-9.7-15.1-19.4-22.2-29.3c-7.1-9.9-13.8-20.1-20.5-30.3c-5.3-8.1-10.5-16.3-15.6-24.5
	c-1.2-2-2.4-4.1-3-6.3c-0.5-1.7,0.1-3.6,0.1-5.4c0-0.7-0.4-1.4-0.6-2c-0.2,0.1-0.4,0.1-0.7,0.2c0,1.1,0,2.3,0,3.4
	c-0.1,0-0.2,0.1-0.3,0.1c-1.6-4-3.2-8-4.8-12.1c0.1-0.1,0.3-0.1,0.4-0.2c1.5,2.2,3,4.4,4.8,7c0.3-1.7,0.7-3.1,0.7-4.5
	c0.1-1.3,0.4-2.9-1.8-3.1c-0.7-0.1-1.2-1.3-1.7-2.1c-2.8-4.1-5.8-8.1-8.1-12.5c-2.8-5.3-5.4-10.8-5.3-17.2c0.2-17.3,0-34.6,0.1-51.8
	c0-1.4,0.8-3.1,1.8-4.1c5.4-5.6,11.1-11,16.6-16.6c1.4-1.4,2.2-1.2,3.4,0.2c5.3,6,10.7,11.8,16,17.8c0.3,0.4,0.3,1.1,0.5,1.6
	c-0.6-0.2-1.3-0.2-1.7-0.6c-2.4-2.4-4.7-4.8-7-7.2c-0.9-0.9-1.8-1.8-3-0.5c-1.3,1.3,0.1,1.8,0.8,2.5c2.1,2.2,4.2,4.2,6.2,6.5
	c0.7,0.8,1.1,1.9,1.2,3c0.2,1.8,0,3.6,0,5.4C296.9,324.3,296.9,324.3,300.8,324.6z M270.5,342.7c-0.6-0.1-0.9-0.3-1.2-0.3
	c-2,0.3-2.6-0.6-2.5-2.6c0.1-3.9,0-7.7,0.1-11.6c0-1.2-0.3-1.9-1.6-1.9c-1.3,0-2.1,0.4-2,1.8c0.1,5.6,0.1,11.3,0.1,16.9
	c0,1.2,2.4,2.5,3.2,1.7C267.8,345.7,269,344.3,270.5,342.7z M269,306.8c-1.8,1.2-3.5,2.4-5.2,3.6c-0.3,0.2-0.5,0.7-0.5,1.1
	c0,2.6-0.1,5.3,0.1,7.9c0,0.5,1.2,1.2,1.9,1.3c0.4,0,1.3-0.9,1.4-1.5c0.2-1.2,0.2-2.6,0-3.8c-0.3-2.2,0.6-3.8,2.3-4.9
	C270.9,309.2,270.8,308.1,269,306.8z M281.7,298.3c0.6,0.4,1.1,1,1.5,1c0.6,0,1.4-0.3,1.8-0.8c0.3-0.3,0.2-1.4-0.1-1.6
	c-1.2-0.9-3.3-2.5-3.8-2.1c-2.7,2-5,4.6-7.3,6.8c1.6,2.7,1.7,2.7,3.6,0.8C278.8,301,280.2,299.7,281.7,298.3z M362.3,500.4
	c-0.1,0.3-0.4,0.6-0.4,0.9c0.1,0.4,0.2,1,0.5,1.3c2.2,2.3,4.4,4.6,6.7,6.8c0.4,0.4,1.1,0.3,1.7,0.5c-0.2-0.5-0.2-1.2-0.6-1.6
	c-2.2-2.3-4.5-4.6-6.7-6.9C363.3,501.1,363,500.9,362.3,500.4z M303.3,440.4c-0.3,0.2-0.7,0.4-0.6,0.5c0,0.4,0.1,1,0.4,1.3
	c2.2,2.3,4.4,4.6,6.7,6.8c0.4,0.3,1,0.4,1.6,0.5c-0.1-0.5-0.1-1.2-0.4-1.5c-2.2-2.3-4.5-4.6-6.7-6.8
	C304,440.9,303.7,440.7,303.3,440.4z M338.9,476.5c-0.3,0.2-0.7,0.3-0.7,0.4c0.1,0.5,0.1,1.1,0.5,1.4c2.2,2.3,4.4,4.6,6.7,6.8
	c0.3,0.3,1,0.3,1.5,0.5c-0.2-0.5-0.2-1.2-0.5-1.6c-2.1-2.3-4.3-4.5-6.5-6.7C339.7,477.1,339.3,476.8,338.9,476.5z M350.8,488.5
	c-0.2,0.1-0.4,0.1-0.6,0.2c0,0.5-0.1,1.3,0.2,1.6c2.4,2.5,4.8,5,7.3,7.4c0.2,0.2,0.8,0,1.3,0c0-0.4,0.1-0.9-0.1-1.1
	C356.2,493.9,353.5,491.2,350.8,488.5z M374.7,512.8c-0.3,0.2-0.8,0.5-0.8,0.7c0,0.4,0.2,1,0.5,1.3c2.3,2.4,4.6,4.7,6.9,7
	c0.3,0.3,0.9,0.3,1.4,0.4c-0.1-0.5,0-1.2-0.3-1.5c-2.2-2.4-4.6-4.7-6.9-7C375.3,513.3,375,513.1,374.7,512.8z M291.5,428.4
	c-0.3,0.2-0.7,0.5-0.7,0.6c0.1,0.4,0.2,0.9,0.5,1.3c2.2,2.3,4.5,4.6,6.8,6.8c0.3,0.3,1,0.3,1.6,0.4c-0.2-0.5-0.2-1.2-0.5-1.6
	c-2.2-2.3-4.4-4.5-6.6-6.7C292.2,428.9,291.9,428.7,291.5,428.4z M323.4,461c-0.1-0.3-0.1-0.4-0.2-0.5c-2.5-2.6-5.1-5.2-7.6-7.7
	c-0.2-0.2-0.8-0.1-0.9,0c-0.1,0.3-0.2,0.9-0.1,1.1c2.5,2.6,4.9,5.1,7.5,7.6c0.2,0.2,0.7,0.2,0.9,0.1
	C323.2,461.5,323.3,461.2,323.4,461z M278.7,374.3c0.2,0,0.4,0.1,0.6,0.1c0.4-1.7,0.7-3.4,1.1-5.3
	C278.7,369.9,278.1,371.7,278.7,374.3z M287.4,408.5c0.2,0,0.5,0,0.7,0c0.1-1.6,1-3.3,0-4.9c-0.2,0-0.5,0-0.7,0
	C287.4,405.2,287.4,406.9,287.4,408.5z M288.5,390.6c0-2,0-3.7,0-5.6C287.1,386.5,287.1,389.1,288.5,390.6z M288.3,375.8
	c-1.6,1.8-1.4,4.1,0.3,5.9C288.5,379.5,288.4,378,288.3,375.8z M278.6,392.8c0-1.9,0-3.5,0-5.6C277.3,389.1,277.3,391.4,278.6,392.8
	z M288.5,394.6c-1.5,1.6-1.3,4.1,0,4.9C288.5,397.8,288.5,396.2,288.5,394.6z M278.8,378.6c-0.2,0-0.5,0-0.7,0c0,1.6,0,3.2,0,4.9
	c0.2,0,0.5,0,0.7,0C278.8,381.9,278.8,380.3,278.8,378.6z M287.9,372c-0.3-0.9-0.3-2.1-0.9-2.6c-0.5-0.5-1.6-0.3-2.4-0.4
	c0.3-0.1,0.6-0.3,0.9-0.4C286.2,369.6,286.9,370.7,287.9,372z"/>
<path d="M270.5,342.7c-1.4,1.5-2.7,2.9-4,4.2c-0.8,0.7-3.2-0.6-3.2-1.7c-0.1-5.6-0.1-11.3-0.1-16.9c0-1.4,0.8-1.8,2-1.8
	c1.4,0,1.7,0.7,1.6,1.9c0,3.9,0.1,7.7-0.1,11.6c-0.1,1.9,0.5,2.8,2.5,2.6C269.6,342.4,269.9,342.6,270.5,342.7z"/>
<path d="M269,306.8c1.7,1.3,1.8,2.4,0,3.7c-1.7,1.1-2.5,2.7-2.3,4.9c0.2,1.3,0.2,2.6,0,3.8c-0.1,0.6-0.9,1.5-1.4,1.5
	c-0.7-0.1-1.9-0.8-1.9-1.3c-0.2-2.6-0.2-5.2-0.1-7.9c0-0.4,0.2-0.9,0.5-1.1C265.5,309.2,267.3,308,269,306.8z"/>
<path d="M281.7,298.3c-1.5,1.4-2.9,2.7-4.3,4.1c-1.9,1.9-2,1.9-3.6-0.8c2.4-2.3,4.6-4.8,7.3-6.8c0.5-0.4,2.6,1.3,3.8,2.1
	c0.3,0.2,0.4,1.3,0.1,1.6c-0.4,0.5-1.2,0.8-1.8,0.8C282.8,299.3,282.3,298.7,281.7,298.3z"/>
<path d="M362.3,500.4c0.7,0.5,1,0.7,1.3,1c2.3,2.3,4.5,4.5,6.7,6.9c0.3,0.4,0.4,1,0.6,1.6c-0.6-0.2-1.3-0.1-1.7-0.5
	c-2.3-2.2-4.5-4.5-6.7-6.8c-0.3-0.3-0.4-0.8-0.5-1.3C361.9,501,362.2,500.7,362.3,500.4z"/>
<path d="M303.3,440.4c0.3,0.3,0.6,0.5,0.9,0.7c2.3,2.3,4.5,4.5,6.7,6.8c0.3,0.3,0.3,1,0.4,1.5c-0.5-0.2-1.2-0.2-1.6-0.5
	c-2.3-2.2-4.5-4.5-6.7-6.8c-0.3-0.3-0.3-0.8-0.4-1.3C302.7,440.8,303.1,440.6,303.3,440.4z"/>
<path d="M338.9,476.5c0.4,0.3,0.7,0.6,1,0.9c2.2,2.2,4.4,4.4,6.5,6.7c0.3,0.4,0.3,1,0.5,1.6c-0.5-0.1-1.2-0.1-1.5-0.5
	c-2.3-2.2-4.5-4.5-6.7-6.8c-0.3-0.3-0.4-0.9-0.5-1.4C338.3,476.8,338.7,476.6,338.9,476.5z"/>
<path d="M350.8,488.5c2.7,2.7,5.4,5.4,8.1,8.1c0.2,0.2,0.1,0.7,0.1,1.1c-0.4,0-1,0.2-1.3,0c-2.5-2.4-4.9-4.9-7.3-7.4
	c-0.3-0.3-0.1-1.1-0.2-1.6C350.4,488.6,350.6,488.6,350.8,488.5z"/>
<path d="M374.7,512.8c0.3,0.3,0.6,0.5,0.9,0.8c2.3,2.3,4.6,4.6,6.9,7c0.3,0.3,0.2,1,0.3,1.5c-0.5-0.1-1.1-0.1-1.4-0.4
	c-2.3-2.3-4.6-4.6-6.9-7c-0.3-0.3-0.5-0.8-0.5-1.3C373.9,513.3,374.4,513,374.7,512.8z"/>
<path d="M291.5,428.4c0.4,0.3,0.7,0.5,1,0.8c2.2,2.2,4.4,4.4,6.6,6.7c0.4,0.4,0.4,1.1,0.5,1.6c-0.5-0.1-1.2-0.1-1.6-0.4
	c-2.3-2.2-4.5-4.5-6.8-6.8c-0.3-0.3-0.4-0.8-0.5-1.3C290.8,428.9,291.2,428.7,291.5,428.4z"/>
<path d="M323.4,461c-0.1,0.2-0.2,0.5-0.4,0.6c-0.3,0.1-0.8,0.1-0.9-0.1c-2.5-2.5-5-5-7.5-7.6c-0.2-0.2-0.1-0.8,0.1-1.1
	c0.1-0.1,0.7-0.2,0.9,0c2.6,2.6,5.1,5.1,7.6,7.7C323.3,460.6,323.3,460.7,323.4,461z"/>
<path d="M278.7,374.3c-0.6-2.6-0.1-4.5,1.7-5.2c-0.4,1.9-0.7,3.6-1.1,5.3C279.1,374.4,278.9,374.4,278.7,374.3z"/>
<path d="M287.4,408.5c0-1.6,0-3.3,0-4.9c0.2,0,0.5,0,0.7,0c1,1.6,0.1,3.3,0,4.9C287.9,408.5,287.6,408.5,287.4,408.5z"/>
<path d="M288.5,390.6c-1.4-1.5-1.4-4.2,0-5.6C288.5,387,288.5,388.7,288.5,390.6z"/>
<path d="M288.3,375.8c0.1,2.2,0.2,3.7,0.3,5.9C286.8,379.9,286.7,377.6,288.3,375.8z"/>
<path d="M278.6,392.8c-1.3-1.4-1.4-3.7,0-5.6C278.6,389.3,278.6,390.9,278.6,392.8z"/>
<path d="M288.5,394.6c0,1.6,0,3.2,0,4.9C287.2,398.7,287,396.2,288.5,394.6z"/>
<path d="M278.8,378.6c0,1.6,0,3.3,0,4.9c-0.2,0-0.5,0-0.7,0c0-1.6,0-3.2,0-4.9C278.3,378.6,278.6,378.6,278.8,378.6z"/>
<path d="M287.9,372c-0.9-1.3-1.6-2.4-2.4-3.5c-0.3,0.1-0.6,0.3-0.9,0.4c0.8,0.1,2-0.1,2.4,0.4C287.5,370,287.6,371.1,287.9,372z"/>
</svg>
