<?xml version="1.0" encoding="utf-8"?>
<!-- Generator: Adobe Illustrator 21.1.0, SVG Export Plug-In . SVG Version: 6.00 Build 0)  -->
<svg version="1.1" id="Layer_1" xmlns="http://www.w3.org/2000/svg" xmlns:xlink="http://www.w3.org/1999/xlink" x="0px" y="0px"
	 viewBox="0 0 612 792" style="enable-background:new 0 0 612 792;" xml:space="preserve">
<style type="text/css">
	.st0{fill:#1A1A1A;}
	.st1{fill:#FEFEFE;}
	.st2{fill:#4B4B4B;}
	.st3{fill:#1E1E1E;}
	.st4{fill:#312C29;}
	.st5{fill:#312C2A;}
	.st6{fill:#342F2D;}
	.st7{fill:#E06865;}
	.st8{fill:#373737;}
	.st9{fill:#E74541;}
	.st10{fill:#E14A46;}
	.st11{fill:#E34642;}
	.st12{fill:#E84C48;}
	.st13{fill:#E84844;}
	.st14{fill:#D02F2A;}
	.st15{fill:#E7413C;}
	.st16{fill:#E7443F;}
	.st17{fill:#E7413D;}
	.st18{fill:#E84E4A;}
	.st19{fill:#E74440;}
	.st20{fill:#E74642;}
	.st21{fill:#E84945;}
	.st22{fill:#E23B36;}
	.st23{fill:#DC3A35;}
	.st24{fill:#E63D39;}
	.st25{fill:#DA3E3A;}
	.st26{fill:#E63B36;}
	.st27{fill:#E63C38;}
	.st28{fill:#E8D6D5;}
	.st29{fill:#E95652;}
	.st30{fill:#E7433E;}
	.st31{fill:#E63F3A;}
	.st32{fill:#E53733;}
	.st33{fill:#E53631;}
	.st34{fill:#E53531;}
	.st35{fill:#E7403C;}
	.st36{fill:#E63A35;}
	.st37{fill:#E63A36;}
	.st38{fill:#E63D38;}
	.st39{fill:#E5332E;}
	.st40{fill:#555555;}
	.st41{fill:#666666;}
	.st42{fill:#565656;}
	.st43{fill:#E42E29;}
	.st44{fill:#545454;}
	.st45{fill:#3E3936;}
	.st46{fill:#E5322D;}
	.st47{fill:#E32520;}
	.st48{fill:#6F6F6F;}
	.st49{fill:#ECEBEB;}
	.st50{fill:#717171;}
	.st51{fill:#575757;}
	.st52{fill:#B2B2B2;}
	.st53{fill:#818181;}
	.st54{fill:#515151;}
	.st55{fill:#393939;}
	.st56{fill:#1B1B1B;}
	.st57{fill:#272727;}
	.st58{fill:#242424;}
	.st59{fill:#232323;}
	.st60{fill:#282828;}
	.st61{fill:#262626;}
	.st62{fill:#252525;}
	.st63{fill:#868686;}
	.st64{fill:#535353;}
	.st65{fill:#1C1C1C;}
	.st66{fill:#383838;}
	.st67{fill:#696969;}
	.st68{fill:#E3241F;}
	.st69{fill:#E42F2A;}
	.st70{fill:#3B3B3B;}
	.st71{fill:#474747;}
	.st72{fill:#2D2D2D;}
	.st73{fill:#63504F;}
	.st74{fill:#FBF4F4;}
	.st75{fill:#525252;}
	.st76{fill:#3E3E3E;}
	.st77{fill:#8B8B8B;}
	.st78{fill:#212121;}
	.st79{fill:#363636;}
	.st80{fill:#949494;}
	.st81{fill:#797979;}
	.st82{fill:#4F4F4F;}
	.st83{fill:#444444;}
	.st84{fill:#464646;}
	.st85{fill:#4D4D4D;}
	.st86{fill:#222222;}
	.st87{fill:#DFDFDF;}
	.st88{fill:#414141;}
	.st89{fill:#5C5C5C;}
	.st90{fill:#DEDEDE;}
	.st91{fill:#484848;}
	.st92{fill:#595959;}
	.st93{fill:#505050;}
	.st94{fill:#2B2B2B;}
	.st95{fill:#4C4C4C;}
	.st96{fill:#C3C3C3;}
	.st97{fill:#707070;}
	.st98{fill:#8A8A8A;}
	.st99{fill:#424242;}
	.st100{fill:#C9C9C9;}
	.st101{fill:#919191;}
	.st102{fill:#C5C5C5;}
	.st103{fill:#D0D0D0;}
	.st104{fill:#D7D7D7;}
	.st105{fill:#D1D1D1;}
	.st106{fill:#E3E3E3;}
	.st107{fill:#C6C6C6;}
	.st108{fill:#D6D6D6;}
	.st109{fill:#979594;}
	.st110{fill:#4A4A4A;}
	.st111{fill:#5F5D5B;}
	.st112{fill:#9A9898;}
	.st113{fill:#E7E7E7;}
	.st114{fill:#918E8D;}
	.st115{fill:#9A9998;}
	.st116{fill:#959494;}
	.st117{fill:#202020;}
	.st118{fill:#999897;}
	.st119{fill:#333333;}
	.st120{fill:#E1E1E1;}
	.st121{fill:#313131;}
	.st122{fill:#F1F1F1;}
	.st123{fill:#A09E9E;}
	.st124{fill:#A3A2A1;}
	.st125{fill:#9C9A99;}
	.st126{fill:#616161;}
	.st127{fill:#5A5A5A;}
	.st128{fill:#5B5B5B;}
	.st129{fill:#626262;}
	.st130{fill:#777777;}
	.st131{fill:#757575;}
	.st132{fill:#6E6E6E;}
	.st133{fill:#DBDBDB;}
	.st134{fill:#2A2A2A;}
	.st135{fill:#737373;}
	.st136{fill:#C7C7C7;}
	.st137{fill:#404040;}
	.st138{fill:#787878;}
	.st139{fill:#494949;}
	.st140{fill:#FAFAFA;}
	.st141{fill:#434343;}
</style>
<path class="st0" d="M261.9,371c-0.4-0.4-0.7-0.8-1.1-1.2c-0.6-0.5-0.6-0.8,0-1.4c3.2-2.6,6.2-5.4,9-8.5c0.9-1,1.8-2.1,2.6-3.3
	c-4.7,0.4-9.3,0.5-13.9,0.4c-3.4-0.1-6.9,0-10.3-0.5c-0.2,0-0.7,0.1-0.6-0.3c0.1-0.4,0.5-0.2,0.7-0.2c6.8,0.7,13.6,0.4,20.4,0.3
	c1.2,0,2.4-0.2,3.6-0.3c0.5,0,0.7-0.2,1-0.6c0.7-1.3,1.4-2.6,1.4-4.1c0-0.7-0.2-0.9-1-0.9c-8.5,0.9-17.1,0.8-25.6,0.2
	c-0.5,0-1-0.1-1.5-0.2c0-0.2,0-0.4,0-0.6c0.2-0.2,0.5-0.2,0.8-0.1c5.4,0.5,10.8,0.7,16.2,0.6c3.1-0.1,6.1-0.2,9.2-0.6
	c0.3,0,0.6-0.1,0.8-0.4c0.5-0.7,1-0.4,1.4,0.1c0.8,1,0.7,2.2,0.4,3.4c-0.4,1.7-1.3,3.1-2.3,4.5c-2.4,3.4-5.5,6.2-8.5,9.1
	c-0.8,0.7-1.6,1.4-2.3,2.1c-0.2,0.2-0.7,0.5-0.4,0.9c0.3,0.4,0.6,0.6,0.9,0.9c3.4,3.8,7,7.4,10.4,11.1c0.2,0.2,0.4,0.6,0.7,0.5
	c0.3-0.1,0.3-0.5,0.3-0.7c2.3-8,4.3-16,6.1-24.1c0.2-0.9,0-1.6-0.6-2.3c-1.5-1.7-2.9-3.4-4.4-5.1c-0.6-0.7-1.2-1.1-2.1-1.2
	c-1,0-2-0.1-3-0.1c-3.3,0.1-6.6-0.1-9.9-0.1c-3.5,0-7.1,0.2-10.6,0.1c-0.7,0-1.3,0-2,0.1c-0.4,0.1-0.8,0.1-1.2-0.2
	c0-0.3,0-0.5,0-0.8c2.9-0.3,5.9-0.3,8.9-0.3c6.3-0.1,12.5-0.1,18.8,0.3c0.6,0,1,0.2,1.4,0.7c1.8,2.2,3.7,4.4,5.5,6.5
	c0.3,0.4,0.7,0.7,1.2,0.8c8.2,2.9,16.4,5.7,24.6,8.6c0.5,0.2,1,0.4,1.4,0.8c5.3,5.2,10.4,10.7,14.6,16.8c2.5,3.7,4.4,7.7,6.3,11.7
	c5.7,11.8,11.2,23.7,16.4,35.7c0.1,0.1,0.1,0.3,0.2,0.4c0.1,0.2,0.1,0.4-0.1,0.5c-0.3,0.1-0.5,0.1-0.6-0.2c-0.3-0.7-0.6-1.5-0.9-2.2
	c-5.8-13.2-11.9-26.3-18.3-39.3c-2.8-5.6-6.5-10.4-10.6-15c-2.4-2.7-4.9-5.3-7.7-8c-0.1,2.1-0.3,4.1-0.4,6.1
	c-0.4,8.1-0.6,16.2-0.2,24.3c0.3,5.9,0.7,11.9,2.3,17.6c0.5,1.9,1.2,3.8,2.4,5.4c0.3,0.4,0.5,0.8,0.9,1c1.3,0.6,1.3,1.6,1.2,2.7
	c0,0.3,0,0.6,0,1c0.1,0.1,0.3,0.2,0.2,0.4c-0.1,1.4,0,2.8,0.1,4.2c0.1,2.1,0.2,4.1,0.3,6.2c-0.4,0.5,0.4,1,0.1,1.5
	c0.1,0.3,0.3,0.7,0.4,1c0.5,0.2,0.5,0.6,0.5,1c0.1,0.4,0.1,0.8,0.5,1c0.4,0.3,0.4,0.7,0.3,1.1c0.2,0.5,0.4,0.9,0.6,1.4
	c0.2,0.1,0.3,0.4,0.4,0.6c0.2,0.3,0,0.7,0.2,0.9c0.1,0.2,0.2,0.4,0.2,0.5c0.6,0.4,0.6,1.1,0.7,1.7c0.4,1,0.9,2.1,1.3,3.2
	c0.1,0.2,0.5,0.5-0.1,0.8c-0.6,0.3-0.5-0.2-0.7-0.5c-1.3-3.2-2.7-6.3-4-9.5c-0.1-0.1-0.2-0.2-0.3-0.4c0,0.7-0.1,1.3,0.1,1.9
	c0.1,2.4,0.2,4.8,0.3,7.1c0,0.3,0.5,1-0.3,1c-0.7,0-0.4-0.6-0.4-0.9c-0.2-3.3-0.1-6.7-0.5-10c-0.5-4.2-0.5-8.5-0.7-12.7
	c0-0.3,0-0.5-0.4-0.4c-0.1,0-0.1-0.1-0.1-0.2c0-0.1,0-0.1,0.1-0.2c0.2-0.1,0.4-0.2,0.4-0.4c0-0.9,0-1.8,0-2.6c0-0.3-0.2-0.4-0.5-0.5
	c-0.2,0-0.3-0.2-0.4-0.3c-2.4-2.3-3.2-5.4-4-8.5c-1.3-5.2-1.7-10.5-1.9-15.9c-0.4-8.9-0.2-17.7,0.3-26.6c0-0.6-0.2-0.8-0.7-1
	c-8.1-2.6-16.3-5.3-24.4-7.9c-0.7-0.2-0.8,0.1-0.9,0.6c-1.7,7.4-3.6,14.7-5.7,22c-0.1,0.3-0.2,0.5-0.2,0.8c-0.4,0-0.6-0.4-0.8-0.6
	c-2.5-2.6-5-5.2-7.4-7.9c-0.6-0.7-1.4-0.6-2.1-0.5c-0.6,0.1-0.1,0.8-0.4,1.1c0,0-0.1,0-0.1-0.1c0.2-1-0.4-1.2-1.2-1.1
	c-1.7,0.1-3.4,0-5.1,0c-0.5,0-0.7,0.1-0.7,0.6c0,0.2,0,0.4,0,0.7c0,21.6,0,43.2,0,64.8c0,0.3,0,0.5,0,0.8c0,0.3-0.1,0.4-0.4,0.4
	c-0.3,0-0.4-0.1-0.4-0.4c0-0.3,0-0.5,0-0.8c0-21.7,0-43.3,0-65c0-0.6,0.2-1.3-0.8-1.1c-0.2,0-0.3-0.2-0.3-0.4c0-0.2,0.1-0.4,0.3-0.4
	c0.2,0,0.4,0,0.7,0c2.7,0,5.4,0,8.1,0c0.3,0,0.6,0.1,0.9-0.1c-0.3-0.6-0.9-0.2-1.3-0.4c0-0.4,0.4-0.1,0.6-0.6
	c-0.4-0.4-0.9-0.8-1.4-1.3C262.3,371.8,262,371.5,261.9,371z"/>
<path class="st1" d="M246.6,348.5c4.1-0.3,8.2-0.3,12.3-0.3c4.2,0,8.3,0.1,12.5,0.1c2.2,0,4,0.5,5.3,2.5c1.1,1.7,2.6,3.1,3.9,4.7
	c0.3,0.3,0.4,0.7,0.3,1.1c-1.9,8.6-4.1,17.2-6.5,25.7c0,0.1-0.1,0.3-0.2,0.6c-3.9-4.2-7.7-8.3-11.5-12.4c0.1-0.6-0.3-0.8-0.8-0.8
	c-0.6-0.4-0.6-0.6,0-1.1c3.7-3.1,7.3-6.4,10.3-10.2c1.2-1.5,2.4-3.2,3-5.1c0.4-1.3,0.6-2.6-0.3-3.8c-0.3-0.4-0.7-0.7-0.9,0.1
	c-0.1,0.6-0.6,0.4-0.9,0.4c-3,0.4-6.1,0.5-9.1,0.5c-5.4,0.1-10.8,0.1-16.2-0.5c-0.4,0-0.8-0.1-1.1-0.2
	C246.6,349.4,246.6,349,246.6,348.5z"/>
<path class="st2" d="M246.6,350.8c0.2,0.1,0.6-0.1,0.6,0.3c0,0.2-0.4,0-0.6,0.1C246.6,351.1,246.6,350.9,246.6,350.8z"/>
<path class="st3" d="M301.9,420.5c0,4.6,0,9.1,0,13.7c0,0.7-0.2,0.9-0.8,1.1c-3.9,1-7.8,2.1-11.6,3.2c-0.5,0.1-1,0.1-1.5,0
	c-4.2-1.1-8.5-2.1-12.7-3.2c-0.6-0.2-0.8-0.4-0.8-1c0-9.2,0-18.4,0-27.6c0-0.7,0.2-0.8,0.9-0.8c7.1,0,14.2,0,21.3,0
	c1.5,0,3,0,4.5-0.1c0.6,0,0.8,0.2,0.8,0.8C301.9,411.2,301.9,415.9,301.9,420.5z"/>
<path class="st4" d="M262.6,392.1c0,0.5-0.2,1-0.6,1.3c-0.3,0.2-0.8,0.2-0.8,0.7c0,0-0.2,0.1-0.2,0.1c-0.4-0.6-1.2-0.8-1.5-1.5
	c-0.2-0.6-0.2-1.1,0.2-1.6c0.3-0.5,1-0.5,1.2-1.1c0,0,0.2,0,0.3,0C261.6,390.3,262.6,391.6,262.6,392.1z"/>
<path class="st5" d="M262.4,372.4c-0.7,0-0.4,0.8-0.9,1c0.2,0.4,0.6,0,0.8,0.3c-0.5,0.2-1.1,0-1.7,0.2c-0.4,0.1-0.8,0.1-1.2-0.2
	c-0.2,0-0.3-0.2-0.4-0.3c-0.4-0.3-0.3-1-1-1c-0.1,0-0.1-0.3,0-0.3c0.9-0.2,1.1-1.3,2-1.3c0.6,0,1,0.2,1.5,0.6
	C262,371.5,262.8,371.6,262.4,372.4z"/>
<path class="st6" d="M262.3,420.3c-0.2,0.6-1,0.5-1.1,1.2c0,0-0.2,0.1-0.2,0c-0.3-0.8-1.5-0.9-1.5-1.9c-0.1-0.9,0.3-1.5,1.1-1.8
	c0.2-0.1,0.3-0.2,0.3-0.4c0-0.3,0.5-0.3,0.5-0.2c0,0.7,0.9,0.6,1.1,1.2c0.1,0.2,0,0.3-0.1,0.3c-0.1,0.1-0.3,0.1-0.4,0
	c-0.1,0-0.1-0.1-0.2-0.1c-0.1-0.1-0.2-0.2-0.3-0.2c-0.3-0.1-0.5-0.1-0.8,0.1c-0.2,0.2-0.4,0.3-0.5,0.6c0,0.2-0.2,0.4,0,0.6
	c0.1,0,0.1,0,0.2,0c0.1,0,0.3,0.1,0.4,0.2c0,0.1,0.1,0.1,0.1,0.2c0,0.1,0.1,0.1,0.1,0.2c0.1,0.1,0.3,0.1,0.4,0
	c0.1-0.1,0.2-0.2,0.3-0.3c0.1-0.1,0.1-0.1,0.2-0.1c0.1,0,0.2,0,0.4,0.1C262.3,420,262.3,420.1,262.3,420.3z"/>
<path class="st7" d="M317.1,441.9c-0.2-0.1-0.2-0.3-0.2-0.5c0.1-0.2,0-0.5,0.3-0.5c0.3,0,0.4,0.3,0.4,0.4c0,0.4,0.9,0.8,0,1.1
	C317.3,442.4,317.4,442,317.1,441.9z"/>
<path class="st8" d="M259.2,373.3c0.1,0.1,0.2,0.2,0.4,0.3c-0.7,0.4-1.5,0.2-2.4,0.1C257.9,373.3,258.6,373.8,259.2,373.3z"/>
<path class="st9" d="M315.4,437.9c-0.2-0.3-0.3-0.7-0.5-1c0-0.2,0-0.4,0.3-0.4c0.2,0,0.8,1.2,0.6,1.4
	C315.8,438.1,315.6,438,315.4,437.9z"/>
<path class="st10" d="M311,425.6c0-0.3,0.1-0.4,0.4-0.3c0.1,0.1,0.2,0.2,0.1,0.4c0,0.1-0.1,0.3-0.1,0.4c0,0.3,0.2,0.7-0.2,0.8
	c-0.4,0-0.2-0.5-0.3-0.8C310.9,425.9,310.9,425.7,311,425.6z"/>
<path class="st11" d="M316.3,440.1c-0.3-0.3-0.1-0.8-0.3-1.1c0.2-0.3,0.4-0.2,0.5,0.1c0.1,0.4,0.6,0.7,0.4,1.2
	C316.7,440.4,316.5,440,316.3,440.1z"/>
<path class="st12" d="M312.5,428c0.1,0,0.2,0,0.2,0c0.3,0.5,0.3,1,0.1,1.5c0,0-0.2,0.1-0.2,0.1C312.3,429.5,312.3,428.9,312.5,428z"
	/>
<path class="st13" d="M316.6,436.7c0.1,0.2,0,0.4-0.1,0.4c-0.5-0.2-0.5-0.8-0.8-1.2c-0.1-0.1,0-0.3,0.1-0.3
	C316.4,435.8,316.3,436.4,316.6,436.7z"/>
<path class="st14" d="M314.6,435.9c-0.2-0.4-0.3-0.8-0.5-1.2c-0.2-0.5,0.1-0.5,0.4-0.3C314.4,434.9,315.3,435.3,314.6,435.9z"/>
<path class="st15" d="M320,444.5c0.4,0.2,0.4,0.6,0.5,0.9c0.1,0.1,0.2,0.3,0.1,0.5c-0.1,0.1-0.3,0.1-0.3-0.1
	c-0.2-0.4-0.4-0.7-0.5-1.1C319.7,444.7,319.8,444.6,320,444.5z"/>
<path class="st16" d="M317.5,438.9c0.1,0.3,0.1,0.4-0.1,0.4c-0.5-0.2-0.5-0.8-0.7-1.2c-0.1-0.1,0-0.3,0.1-0.3
	C317.4,438.1,317.3,438.6,317.5,438.9z"/>
<path class="st17" d="M318.8,442.3c0.4,0.1,0.4,0.3,0.5,0.5c0.1,0.3,0.4,0.6,0.3,0.9c0,0-0.2,0.1-0.2,0.1c-0.3-0.4-0.5-0.9-0.6-1.3
	C318.7,442.4,318.8,442.3,318.8,442.3z"/>
<path class="st18" d="M311.7,431.1c0,0.3,0.1,0.7-0.2,0.6c-0.4,0-0.3-0.5-0.3-0.7c0-0.3-0.2-0.8,0.2-0.8
	C311.9,430.2,311.6,430.8,311.7,431.1z"/>
<path class="st19" d="M311.7,439.9c0.1,0.1,0.2,0.2,0.3,0.2c0,0.5,0.2,1,0,1.5c0,0-0.2,0-0.2,0C311.6,441,311.5,440.5,311.7,439.9z"
	/>
<path class="st15" d="M312.7,432.8c0.2,0.1,0.2,0.1,0.2,0.1c0.2,0.5,0.2,1,0.1,1.5c0,0-0.2,0-0.2,0
	C312.5,433.9,312.5,433.4,312.7,432.8z"/>
<path class="st20" d="M315.6,434.5c0,0.2,0,0.4-0.1,0.3c-0.5-0.2-0.5-0.8-0.7-1.2c-0.1-0.1,0-0.3,0.1-0.3
	C315.4,433.6,315.3,434.2,315.6,434.5z"/>
<path class="st21" d="M312.2,449.1c-0.3-0.6-0.2-1.1-0.3-1.5c0-0.1,0.1-0.2,0.2-0.2c0.2,0,0.2,0.1,0.2,0.2
	C312.3,448,312.5,448.5,312.2,449.1z"/>
<path class="st22" d="M312.8,424.4c0,0,0,0.1,0,0.1c-0.1,0.2-0.3,0.2-0.5,0.2c-0.1-0.5-0.1-1.1,0-1.8
	C312.8,423.4,312.5,424,312.8,424.4z"/>
<path class="st23" d="M312.2,420.6c0.2,0,0.4,0.1,0.4,0.3c0,0.3,0,0.6,0,0.9c0,0.5-0.2,0.5-0.6,0.3l-0.1-0.1l0.1-0.1
	C312.4,421.6,312,421,312.2,420.6z"/>
<path class="st24" d="M320,446.6c0,0.2,0,0.3-0.2,0.3c-0.5-0.2-0.5-0.8-0.7-1.2c-0.1-0.1,0-0.3,0.2-0.3
	C319.7,445.7,319.7,446.3,320,446.6z"/>
<path class="st25" d="M311.4,421.9c-0.7-0.2-0.7-0.4-0.3-1.6c0.4,0.4,0.1,0.9,0.3,1.2C311.4,421.7,311.5,421.8,311.4,421.9z"/>
<path class="st26" d="M312,444.7c0.4,0.6,0.2,1.1,0.3,1.6c0,0.1-0.1,0.2-0.2,0.2c-0.1,0-0.2-0.1-0.2-0.3
	C311.9,445.8,311.7,445.3,312,444.7z"/>
<path class="st27" d="M318.6,441.3c0,0.2-0.1,0.4-0.2,0.3c-0.4-0.3-0.5-0.8-0.7-1.3c-0.1-0.1,0.1-0.3,0.2-0.2
	C318.4,440.4,318.4,440.9,318.6,441.3z"/>
<path class="st28" d="M318.5,445.2c-0.3-0.5-0.6-1.1-0.7-1.7c0.1-0.1,0.3-0.2,0.4-0.3c0.3,0.5,0.4,1.1,0.7,1.5
	C318.7,444.8,318.5,444.9,318.5,445.2z"/>
<path class="st26" d="M312.1,444.1c-0.2-0.1-0.3-0.2-0.3-0.2c0-0.5-0.2-1,0-1.5c0,0,0.2,0,0.2,0C312.2,443,312.3,443.5,312.1,444.1z
	"/>
<path class="st29" d="M313.5,451.8c-0.4-0.6-0.2-1.1-0.3-1.5c0-0.1,0.1-0.2,0.2-0.2c0.1,0,0.2,0.1,0.2,0.2
	C313.7,450.7,313.8,451.2,313.5,451.8z"/>
<path class="st30" d="M311.5,435.1c0.2,0,0.2,0,0.2,0.1c0.2,0.5,0.2,1,0.1,1.4c0,0-0.2,0.1-0.2,0
	C311.3,436.1,311.4,435.6,311.5,435.1z"/>
<path class="st31" d="M318.9,444.7c-0.6-0.3-0.8-0.9-0.7-1.5C318.7,443.5,318.9,444,318.9,444.7z"/>
<path class="st32" d="M312.5,430.3c0.2,0.1,0.3,0.1,0.3,0.1c0.2,0.5,0.2,1,0,1.5c0,0-0.2,0-0.2,0C312.4,431.5,312.5,431,312.5,430.3
	z"/>
<path class="st33" d="M311.3,427.7c0.3,0.5,0.3,1.1,0.2,1.8C311,428.8,311.2,428.3,311.3,427.7z"/>
<path class="st33" d="M311.2,422.8c0.3,0.5,0.3,1,0.1,1.8C310.9,423.9,310.9,423.4,311.2,422.8z"/>
<path class="st34" d="M313.5,445.9c-0.1,0.3,0.1,0.8-0.2,0.7c-0.4,0-0.2-0.5-0.3-0.8c0-0.2-0.2-0.7,0.2-0.7
	C313.7,445.2,313.4,445.7,313.5,445.9z"/>
<path class="st35" d="M321.6,447.9c0,0.2-0.1,0.3-0.2,0.3c-0.4-0.2-0.4-0.7-0.6-1.1c-0.1-0.2,0.1-0.4,0.2-0.3
	C321.4,447,321.4,447.5,321.6,447.9z"/>
<path class="st36" d="M313,437.5c0.1,0.3,0.2,0.3,0.2,0.4c0,0.5,0.2,0.9,0,1.4c0,0-0.2,0-0.2-0.1C312.7,438.8,312.7,438.3,313,437.5
	z"/>
<path class="st37" d="M313.3,447.6c0.3,0.5,0.3,1.1,0,1.6C313.1,448.6,313.1,448.1,313.3,447.6z"/>
<path class="st38" d="M313,437.2c-0.3-0.8-0.3-1.3-0.1-2C313.2,435.8,313.2,436.4,313,437.2z"/>
<path class="st39" d="M313,442.6c0.2,0.1,0.2,0.1,0.2,0.1c0.2,0.5,0.2,1,0.1,1.5c0,0-0.2,0-0.2,0C312.9,443.7,312.9,443.2,313,442.6
	z"/>
<path class="st39" d="M313.3,441.8c-0.2,0-0.2,0-0.2-0.1c-0.2-0.5-0.2-1-0.1-1.5c0,0,0.2-0.1,0.2,0
	C313.4,440.8,313.3,441.3,313.3,441.8z"/>
<path class="st24" d="M320.9,448.8c0,0.2-0.2,0.3-0.3,0.2c-0.3-0.3-0.4-0.7-0.6-1.1c-0.1-0.2,0.2-0.2,0.2-0.2
	C320.7,448,320.7,448.5,320.9,448.8z"/>
<path class="st40" d="M304.4,379.9c-0.2-0.5-0.3-1,0-1.5C304.6,379,304.5,379.5,304.4,379.9z"/>
<path class="st41" d="M263.9,351.7c-0.5,0-1,0-1.7,0C262.9,351.4,263.4,351.4,263.9,351.7z"/>
<path class="st42" d="M266.7,352.8c0.5-0.2,0.9-0.2,1.6-0.2C267.7,353.1,267.2,352.9,266.7,352.8z"/>
<path class="st39" d="M311.6,434.2c-0.3-0.5-0.3-1-0.1-1.7C311.9,433.1,311.8,433.7,311.6,434.2z"/>
<path class="st43" d="M312.6,427.1c-0.3-0.5-0.3-1-0.1-1.6C312.9,426.1,312.7,426.6,312.6,427.1z"/>
<path class="st44" d="M304.6,373.6c0.1,0.5,0.2,1-0.1,1.4C304.4,374.5,304.3,374,304.6,373.6z"/>
<path class="st45" d="M262,418.7c0.1-0.1,0.1-0.2,0.2-0.2c0.5,0.6,0.5,1.2,0,1.8c-0.1-0.1-0.1-0.2-0.2-0.2c-0.1-0.1-0.1-0.1-0.1-0.2
	c0.1-0.3,0.1-0.6,0-0.9C261.9,418.8,262,418.8,262,418.7z"/>
<path class="st46" d="M311.8,439.4c-0.3-0.8-0.3-1.3-0.1-1.9C312.1,438.1,312,438.6,311.8,439.4z"/>
<path class="st47" d="M312.2,449.8c0.2,0.5,0.2,1,0.1,1.7C312,450.7,311.9,450.7,312.2,449.8z"/>
<path class="st48" d="M304.3,392.9c0.3,0.7,0.2,1.1,0,1.6C304.2,394.1,304.1,393.6,304.3,392.9z"/>
<path class="st49" d="M262.4,372.4c0.2-0.7-0.8-0.6-0.8-1.1c0.1-0.1,0.1-0.1,0.2-0.2c0.4,0.3,0.7,0.6,0.9,1
	C262.7,372.1,262.5,372.2,262.4,372.4z"/>
<path class="st44" d="M268.9,355.8c-0.4,0.1-0.9,0.2-1.5,0.1C268,355.5,268.5,355.5,268.9,355.8z"/>
<path class="st50" d="M251.8,351.4c-0.4,0.2-0.8,0.3-1.4,0C251,351.1,251.4,351.2,251.8,351.4z"/>
<path class="st48" d="M253.6,352.7c-0.6,0.3-1,0.1-1.5,0.2C252.6,352.4,253,352.5,253.6,352.7z"/>
<path class="st51" d="M250.8,352.6c-0.4,0.2-0.8,0.1-1.1,0C250,352.3,250.4,352.4,250.8,352.6z"/>
<path class="st52" d="M314.8,440.7c-0.2-0.7-0.1-1.4-0.2-2.2c0.2,0.2,0.4,0.4,0.4,0.6C314.7,439.6,315,440.2,314.8,440.7z"/>
<path class="st53" d="M264.8,351.4c0.5,0.1,0.9,0.1,1.4,0.2C265.7,351.7,265.2,351.9,264.8,351.4z"/>
<path class="st50" d="M248.1,351.1c0.4-0.2,0.7-0.1,1.1,0C248.7,351.4,248.7,351.4,248.1,351.1z"/>
<path class="st54" d="M253.7,351.6c0.3-0.2,0.6-0.2,1,0C254.3,351.9,254,351.7,253.7,351.6z"/>
<path class="st55" d="M261.9,355.9c-0.6,0.3-1.1,0.1-1.6,0C260.7,355.8,261.2,355.7,261.9,355.9z"/>
<path class="st56" d="M260.7,373.9c0.5-0.3,1.1,0,1.7-0.2C261.8,374.1,261.3,373.8,260.7,373.9z"/>
<path class="st57" d="M263.8,378.9c-0.1-0.7-0.2-1.2,0-1.9C264,377.7,264,378.2,263.8,378.9z"/>
<path class="st56" d="M263.9,379.7c0,0.5,0,1,0,1.4C263.6,380.7,263.8,380.2,263.9,379.7z"/>
<path class="st57" d="M304.3,383.4c0,0.5,0,1,0,1.7C304.1,384.3,304.2,383.8,304.3,383.4z"/>
<path class="st58" d="M304.3,385.8c0.1,0.5,0.2,1,0,1.6C304.1,386.8,304.1,386.3,304.3,385.8z"/>
<path class="st57" d="M304.3,388.3c0,0.5,0,1,0,1.5c0,0-0.1,0-0.1,0c0-0.5,0-1,0-1.4C304.3,388.3,304.3,388.3,304.3,388.3z"/>
<path class="st56" d="M263.8,391c0-0.5,0-1,0-1.5c0,0,0.1,0,0.1,0c0,0.5,0,1,0,1.5C263.9,391,263.8,391,263.8,391z"/>
<path class="st58" d="M263.9,411.5c0,0.5,0,1,0,1.4c0,0-0.1,0-0.1,0C263.8,412.5,263.8,412.1,263.9,411.5
	C263.9,411.6,263.9,411.6,263.9,411.5z"/>
<path class="st58" d="M263.9,392c0,0.5,0,1,0,1.7C263.6,392.9,263.8,392.4,263.9,392z"/>
<path class="st58" d="M263.9,395.9c-0.2-0.5-0.2-1-0.1-1.7C264.1,394.9,263.9,395.4,263.9,395.9z"/>
<path class="st59" d="M263.8,396.6c0.3,0.8,0.1,1.3,0,1.8C263.8,397.8,263.8,397.3,263.8,396.6z"/>
<path class="st60" d="M305.2,405.2c0.2,0.5,0.4,0.9,0.2,1.4C305.1,406.2,305.1,405.8,305.2,405.2z"/>
<path class="st61" d="M305.7,408.9c-0.1-0.4-0.2-0.7-0.4-1.3C305.9,408.1,305.8,408.5,305.7,408.9z"/>
<path class="st58" d="M263.9,410.6c-0.2-0.5-0.2-1-0.1-1.7C264.1,409.6,263.9,410.1,263.9,410.6z"/>
<path class="st54" d="M306.7,413.9c-0.1-0.3-0.3-0.6,0-1.2c0.1,0.5,0.2,0.8,0.3,1.1C306.9,413.9,306.8,413.9,306.7,413.9z"/>
<path class="st59" d="M263.8,414c0.2,0.5,0.2,1,0,1.6C263.6,415,263.8,414.5,263.8,414z"/>
<path class="st56" d="M263.9,416.5c0,0.5,0,1,0,1.5C263.7,417.5,263.7,417,263.9,416.5z"/>
<path class="st57" d="M263.8,427.7c0-0.5,0-1,0-1.5C264,426.8,264,427.3,263.8,427.7z"/>
<path class="st61" d="M263.9,428.7c0.1,0.5,0.2,1,0,1.6C263.7,429.7,263.7,429.2,263.9,428.7z"/>
<path class="st61" d="M263.9,431.2c0,0.5,0,1,0,1.7C263.6,432.2,263.8,431.7,263.9,431.2z"/>
<path class="st56" d="M263.8,433.6c0.2,0.6,0.2,1,0,1.5C263.8,434.6,263.8,434.1,263.8,433.6z"/>
<path class="st62" d="M271.5,351.3c-0.7,0.2-1.2,0.2-1.9,0.1C270.3,351.2,270.8,351.1,271.5,351.3z"/>
<path class="st56" d="M259.5,351.7c-0.5,0-1,0-1.5,0C258.5,351.5,259,351.5,259.5,351.7z"/>
<path class="st63" d="M272.1,352.3c0.3-0.2,0.6-0.2,1-0.1c-0.2,0.5-0.5,0.2-0.8,0.3C272.2,352.4,272.1,352.4,272.1,352.3z"/>
<path class="st57" d="M265.8,352.8c-0.7,0.2-1.2,0.2-2,0.1C264.6,352.7,265.1,352.7,265.8,352.8z"/>
<path class="st42" d="M270.6,355.6c0.3-0.2,0.6-0.2,1-0.1c-0.2,0.5-0.5,0.3-0.8,0.3C270.7,355.7,270.6,355.7,270.6,355.6z"/>
<path class="st64" d="M252.8,355.9c0.2-0.3,0.5-0.2,0.8-0.1C253.3,356,253.1,356,252.8,355.9z"/>
<path class="st57" d="M255.1,355.9c0.7-0.2,1.2-0.1,1.9,0C256.3,356.1,255.8,356,255.1,355.9z"/>
<path class="st57" d="M259.2,356c-0.5,0-1,0-1.4,0c0,0,0-0.1,0-0.1c0.5,0,1,0,1.5,0C259.3,355.9,259.2,355.9,259.2,356z"/>
<path class="st56" d="M263.9,423.9c0.1,0.5,0.2,1,0,1.5C263.7,424.8,263.7,424.4,263.9,423.9z"/>
<path class="st56" d="M263.8,406.5c0.2,0.7,0.2,1.1,0,1.8C263.7,407.7,263.7,407.2,263.8,406.5z"/>
<path class="st56" d="M263.9,404.3c0,0.5,0,0.9,0,1.4C263.7,405.2,263.7,404.7,263.9,404.3z"/>
<path class="st56" d="M263.9,401.8c0,0.5,0,0.9,0,1.4C263.7,402.7,263.7,402.3,263.9,401.8z"/>
<path class="st64" d="M255.9,351.7c-0.1,0-0.3,0-0.3-0.1c-0.1-0.1,0-0.2,0.1-0.2c0.3,0,0.7-0.1,1,0.1
	C256.5,351.8,256.2,351.6,255.9,351.7z"/>
<path class="st56" d="M266.6,355.9c-0.5,0-0.9,0-1.4,0c0,0,0-0.1,0-0.1c0.5,0,0.9,0,1.4,0C266.6,355.8,266.6,355.9,266.6,355.9z"/>
<path class="st65" d="M262.5,355.9c0.6-0.2,1.1-0.2,1.8,0C263.6,356,263.1,356.1,262.5,355.9z"/>
<path class="st56" d="M263.8,418.7c0.2,0.7,0.2,1.1,0,1.8C263.7,419.9,263.7,419.4,263.8,418.7z"/>
<path class="st56" d="M263.9,399.4c0,0.4,0,0.9,0,1.3c0,0-0.1,0-0.1,0c0-0.4,0-0.9,0-1.3C263.9,399.3,263.9,399.3,263.9,399.4z"/>
<path class="st56" d="M263.9,436.2c0,0.5,0,0.9,0,1.4C263.7,437.1,263.7,436.6,263.9,436.2z"/>
<path class="st56" d="M263.9,421.5c0,0.5,0,0.9,0,1.6C263.6,422.4,263.8,421.9,263.9,421.5z"/>
<path class="st66" d="M304.2,392.2c0-0.3,0-0.6,0-0.9C304.5,391.6,304.5,391.9,304.2,392.2z"/>
<path class="st56" d="M263.8,386.9c0.2,0.7,0.2,1.1,0,1.8C263.7,388.1,263.7,387.6,263.8,386.9z"/>
<path class="st56" d="M263.9,384.7c0,0.5,0,0.9,0,1.4C263.7,385.6,263.7,385.1,263.9,384.7z"/>
<path class="st56" d="M263.9,382.2c0,0.4,0,0.9,0,1.3c0,0-0.1,0-0.1,0c0-0.4,0-0.9,0-1.3C263.9,382.2,263.9,382.2,263.9,382.2z"/>
<path class="st65" d="M261.6,352.9c0.6-0.2,1.1-0.1,1.5,0C262.6,353,262.2,353,261.6,352.9z"/>
<path class="st55" d="M260.6,352.9c-0.5,0-0.9,0-1.4,0C259.7,352.7,260.2,352.7,260.6,352.9z"/>
<path class="st65" d="M304.5,376.1c0,0.4,0,0.9,0,1.3c0,0-0.1,0-0.1,0c0-0.4,0-0.9,0-1.3C304.5,376.1,304.5,376.1,304.5,376.1z"/>
<path class="st65" d="M256.5,352.8c0.7-0.1,1.2-0.1,1.8,0C257.7,353,257.2,353,256.5,352.8z"/>
<path class="st56" d="M263.9,438.6c0,0.5,0,0.9,0,1.6C263.6,439.5,263.8,439.1,263.9,438.6z"/>
<path class="st57" d="M254.5,352.8c0.4-0.3,0.9-0.1,1.3-0.1C255.4,353,254.9,352.9,254.5,352.8z"/>
<path class="st56" d="M263.8,442.4c0-0.4,0-0.9,0-1.3c0,0,0.1,0,0.1,0c0,0.4,0,0.9,0,1.3C263.8,442.5,263.8,442.5,263.8,442.4z"/>
<path class="st67" d="M308.7,418.5c-0.4-0.2-0.5-0.4-0.5-0.8C308.6,417.8,308.7,418.1,308.7,418.5z"/>
<path class="st68" d="M312.5,452.6c0,0.1,0,0.3-0.2,0.3c-0.3,0-0.2-0.3-0.2-0.4c0-0.1,0.1-0.3,0.2-0.2
	C312.5,452.3,312.5,452.5,312.5,452.6z"/>
<path class="st69" d="M313.6,453.2c-0.2,0-0.3-0.1-0.3-0.2c0-0.2-0.1-0.4,0.1-0.5c0.1-0.1,0.2,0.1,0.2,0.2
	C313.7,452.9,313.8,453.1,313.6,453.2z"/>
<path class="st62" d="M304.9,400.8c0,0.4,0.1,0.8,0.1,1.4c-0.4-0.5-0.2-0.8-0.3-1.2C304.6,400.8,304.7,400.8,304.9,400.8z"/>
<path class="st61" d="M248.8,355.6c-0.3,0-0.6,0-1-0.2c0.5-0.2,0.8,0,1.2,0C249.1,355.6,249.1,355.7,248.8,355.6z"/>
<path class="st62" d="M268.9,352.6c0.5-0.1,0.9-0.2,1.3,0C269.8,352.7,269.4,352.8,268.9,352.6z"/>
<path class="st70" d="M247.7,352.4c-0.2,0-0.5,0.1-0.9-0.3c0.5,0.1,0.9,0.1,1.3,0.1C248.1,352.5,247.9,352.4,247.7,352.4z"/>
<path class="st71" d="M304.5,398.7c-0.1-0.2-0.2-0.4,0.1-0.7c0.2,0.2,0.1,0.4,0.1,0.7C304.7,398.8,304.6,398.8,304.5,398.7z"/>
<path class="st72" d="M304.5,396.7c-0.1-0.4-0.2-0.8,0-1.2C304.6,396,304.7,396.3,304.5,396.7z"/>
<path class="st73" d="M311.4,421.9c0-0.1-0.1-0.2,0-0.3c0.2,0.1,0.4,0.3,0.6,0.4c0,0,0,0.1,0,0.1C311.8,422,311.6,422,311.4,421.9z"
	/>
<path class="st74" d="M317.1,441.9c0.4,0,0.4,0.3,0.5,0.6c0,0.1,0,0.3,0,0.4C317.4,442.6,317.2,442.3,317.1,441.9z"/>
<path class="st75" d="M307.6,415.9c-0.4-0.2-0.4-0.5-0.7-0.8C307.6,415.1,307.5,415.5,307.6,415.9z"/>
<path class="st76" d="M306.2,410.9c-0.3-0.2-0.3-0.4-0.2-0.7C306.2,410.4,306.3,410.6,306.2,410.9z"/>
<path class="st77" d="M306.5,411.4c0,0.2,0,0.3-0.2,0.3c-0.2,0-0.2-0.1-0.2-0.2c0-0.2,0.1-0.3,0.2-0.3
	C306.4,411.2,306.5,411.4,306.5,411.4z"/>
<path class="st72" d="M304.8,371.6c0,0.3,0.1,0.7-0.1,1.1c-0.2-0.4-0.1-0.7-0.1-1.1C304.6,371.5,304.7,371.5,304.8,371.6z"/>
<path class="st78" d="M304.8,368.5c0.3,0.5,0.1,0.8,0,1.1C304.8,369.3,304.8,369,304.8,368.5z"/>
<path class="st79" d="M304.3,382c-0.2-0.5-0.2-0.8,0-1.1C304.5,381.2,304.5,381.5,304.3,382z"/>
<path class="st8" d="M255.9,351.7c0.2-0.2,0.5-0.1,0.8-0.2c0.1,0,0.1,0,0.2,0c0.1,0,0.1,0.2,0,0.2
	C256.6,351.8,256.3,351.7,255.9,351.7z"/>
<path class="st61" d="M268.3,351.6c-0.3,0-0.7,0-1.2,0c0.5-0.3,0.9-0.2,1.2-0.2C268.4,351.4,268.4,351.5,268.3,351.6
	C268.4,351.5,268.3,351.6,268.3,351.6z"/>
<path class="st59" d="M273.3,351.2c-0.4,0-0.7,0.2-1.1,0c0.3-0.2,0.6-0.1,0.9-0.2C273.3,350.9,273.3,351,273.3,351.2z"/>
<path class="st80" d="M272.9,355.4c-0.1,0.2-0.2,0.2-0.3,0.2c-0.2,0-0.2-0.1-0.2-0.2c0-0.1,0.2-0.1,0.3-0.1
	C272.8,355.2,272.8,355.4,272.9,355.4z"/>
<path class="st81" d="M247.7,352.4c0.1-0.1,0.3-0.1,0.4-0.2c0.2,0,0.5,0,0.4,0.2C248.3,352.7,248,352.5,247.7,352.4z"/>
<path class="st8" d="M270.6,355.6c0.1,0.1,0.1,0.1,0.2,0.2c-0.3,0-0.5,0.1-0.8,0C270.1,355.5,270.4,355.6,270.6,355.6z"/>
<path class="st82" d="M304.9,400.8c-0.1,0.1-0.1,0.1-0.2,0.2c-0.1-0.2-0.2-0.4,0-0.5C305,400.4,304.9,400.7,304.9,400.8z"/>
<path class="st83" d="M251.4,355.6c0.2,0,0.5-0.1,0.5,0.1c0,0.3-0.3,0.1-0.5,0C251.3,355.8,251.3,355.7,251.4,355.6
	C251.3,355.6,251.3,355.6,251.4,355.6z"/>
<path class="st84" d="M268.3,351.6c0-0.1,0-0.1,0-0.2c0.1-0.1,0.3-0.1,0.4-0.1c0,0,0.1,0.1,0,0.2
	C268.7,351.7,268.5,351.6,268.3,351.6z"/>
<path class="st85" d="M273.3,351.2c-0.1-0.1-0.1-0.1-0.2-0.2c0.2-0.1,0.5-0.3,0.6,0C273.8,351.3,273.4,351.2,273.3,351.2z"/>
<path class="st86" d="M304.5,398.7c0.1,0,0.1,0,0.2,0c0,0.3,0.1,0.6-0.1,0.9C304.5,399.3,304.5,399,304.5,398.7z"/>
<path class="st78" d="M272.1,352.3c0.1,0.1,0.1,0.1,0.2,0.2c-0.3,0-0.6,0.1-0.9,0C271.6,352.2,271.9,352.4,272.1,352.3z"/>
<path class="st87" d="M314.9,430.1c-0.1-0.2-0.2-0.2-0.2-0.2c0.1-0.1,0.1-0.2,0.2-0.3c0.1,0,0.2,0,0.1,0.1
	C315,429.9,315,430,314.9,430.1z"/>
<path class="st3" d="M251.4,355.6c0,0.1,0,0.1,0,0.2c-0.3,0-0.6,0-1.1,0C250.8,355.5,251.1,355.6,251.4,355.6z"/>
<path class="st88" d="M304.8,371.6c-0.1,0-0.1,0-0.2,0c0-0.2-0.1-0.5,0.1-0.5C305,371.1,304.8,371.4,304.8,371.6z"/>
<path class="st89" d="M248.8,355.6c0.1-0.1,0.1-0.1,0.2-0.2c0.2,0,0.5-0.1,0.4,0.2C249.3,355.9,249.1,355.7,248.8,355.6z"/>
<path class="st1" d="M304.4,367.4c-7.5-2.4-15.1-4.9-22.6-7.3c-0.3-0.1-1.1,0-0.7-0.8c0.2-0.2,0.3,0,0.5,0.1c0.1,0.1,0-0.2,0,0
	c0,0-0.1,0-0.2,0c-0.1-0.1-0.3-0.1-0.4-0.3c0.2-0.8,0.1-2.1,0.7-2.4c0.5-0.3,1.6,0.4,2.4,0.7c7.1,2.5,14.3,5,21.4,7.5
	c0.4,0.1,1.1,0.1,1.2,0.6c0.1,0.6,0.1,1.3-0.2,2c0,0-0.1,0-0.1,0c-0.4,0.2,0.5,0.7,0,0.7c-0.5,0-0.9-0.3-1.4-0.5
	c-0.1-0.4,0-0.7-0.1-1C304.5,366.6,305.3,367.6,304.4,367.4z"/>
<path class="st84" d="M304.4,367.4c0.5-0.2,0.5-0.2-0.2-0.8c0.5,0.1,0.8,0.1,0.8-0.5c0.1,0.5,0.6,1,0.1,1.5
	C304.9,367.6,304.6,367.7,304.4,367.4z"/>
<path class="st90" d="M261.8,369.7c0.3-0.4,0.5-0.2,0.8,0c0.4,0.3,0.3,0.5,0,0.8C262.3,370.3,262,370,261.8,369.7z"/>
<path class="st78" d="M281.1,359c0.4,0.2,0.8,0.2,1.2,0.5c-0.5,0.1-0.8-0.2-1.2-0.3C281.1,359.2,281.1,359.1,281.1,359z"/>
<path class="st64" d="M279.1,360.7c0,0.5,0,0.9-0.4,1.4C278.6,361.5,278.8,361.1,279.1,360.7z"/>
<path class="st71" d="M279.8,358c-0.1,0.7-0.1,1.1-0.5,1.7C279.3,359.1,279.3,358.6,279.8,358z"/>
<path class="st91" d="M268.2,375.6c-0.4-0.3-0.7-0.7-1.1-1C267.6,374.7,267.9,375.1,268.2,375.6z"/>
<path class="st92" d="M276.3,372.4c-0.1,0.4-0.2,0.8-0.3,1.3c-0.2-0.5-0.1-0.9,0.1-1.3C276.2,372.4,276.3,372.4,276.3,372.4z"/>
<path class="st40" d="M274.6,378.4c-0.1-0.4,0-0.8,0.3-1.2C275,377.7,274.8,378.1,274.6,378.4z"/>
<path class="st93" d="M275.2,376.3c-0.1-0.4-0.1-0.7,0.2-1.1C275.6,375.6,275.3,375.9,275.2,376.3z"/>
<path class="st88" d="M277.1,369c0-0.4-0.1-0.8,0.4-1.2C277.4,368.4,277.3,368.7,277.1,369z"/>
<path class="st2" d="M279.9,357.1c-0.1-0.5,0.1-0.9,0.2-1.4C280.2,356.3,280.3,356.7,279.9,357.1z"/>
<path class="st94" d="M276.9,370.2c-0.1,0.4-0.2,0.7-0.3,1.1C276.4,370.9,276.6,370.5,276.9,370.2z"/>
<path class="st95" d="M278.6,363.3c-0.1,0.3-0.2,0.6-0.3,0.9C278.2,363.8,278.1,363.5,278.6,363.3z"/>
<path class="st42" d="M274.2,380c0.1,0.4,0,0.8-0.4,1.2C273.8,380.6,273.8,380.3,274.2,380z"/>
<path class="st71" d="M278,365.3c0.1,0.3,0.1,0.6-0.2,0.8C277.6,365.7,277.9,365.5,278,365.3z"/>
<path class="st81" d="M277.6,366.8c-0.2,0-0.2-0.1-0.1-0.2c0-0.1,0.1-0.2,0.2-0.3c0.2,0,0.2,0.1,0.2,0.2
	C277.9,366.7,277.8,366.8,277.6,366.8z"/>
<path class="st1" d="M283.6,436.8c-0.5,0-0.9-0.2-1.3-0.4c-0.2-0.4-0.6-0.3-1-0.2c-0.4-0.1-0.8-0.1-1.1-0.2c-0.1,0-0.1-0.1-0.1-0.1
	c-0.2-0.2-0.4-0.1-0.7-0.2c-0.2,0-0.4-0.1-0.6,0c-0.5,0-0.9-0.2-1.3-0.4c-0.3-0.2-0.6-0.3-1-0.2c-0.3-0.1-0.5-0.1-0.8-0.2
	c-0.2-0.2-0.3-0.7-0.7-0.2c0-8.7,0-17.5,0-26.2c0-0.7,0-1.3,0-2c0.2,0,0.2,0.1,0.3,0.2c0,0.2,0,0.3,0,0.5c0-0.3,0.1-0.5,0.3-0.7
	c0.3-0.2,0.6-0.1,0.9-0.1c7.5,0,15,0,22.5,0c0.4,0,0.9-0.1,1.1,0.5c0.1,0.3-0.2,0.7,0,1c-0.1-0.2-0.1-0.3,0-0.5
	c-0.1-0.9,0.3-1.1,1-0.9c0.1,0.1,0.1,0.2,0.1,0.3c-0.2,0.5-0.2,1-0.1,1.5c0,0.1,0.1,0.2,0.1,0.2c0,0.2,0,0.4,0,0.6
	c0,0.1-0.1,0.2-0.1,0.2c-0.2,0.5-0.2,0.9,0,1.4c0,0.1,0.1,0.1,0.1,0.2c0,0.2,0,0.4,0,0.6c0,0.1-0.1,0.1-0.1,0.2
	c-0.1,0-0.2,0.1-0.2,0.1c-0.1,0-0.2,0-0.2,0c-0.3,0.1-0.2,0.5-0.3,0.7c0,0.1-0.1,0.1,0,0.1c0.3,0,0.4,0.2,0.6,0.3
	c0.1,0.1,0.3,0.2,0.3,0.4c0,0.2,0,0.4,0,0.6c0,0.1-0.1,0.2-0.1,0.2c-0.2,0.4-0.2,0.8,0,1.2c0,0.1,0.1,0.2,0.1,0.2c0,0.3,0,0.5,0,0.8
	c0,0.1-0.1,0.2-0.1,0.2c-0.2,0.4-0.2,0.8,0,1.2c0,0.1,0.1,0.2,0.1,0.2c0,0.3,0,0.5,0,0.8c0,0.1-0.1,0.2-0.1,0.2
	c-0.2,0.4-0.2,0.8,0,1.2c0,0.1,0.1,0.2,0.1,0.2c0,0.2,0,0.4,0,0.6c-0.3,0.5-0.2,1-0.2,1.5c0,0,0,0,0,0c0,0,0.1,0,0.1,0
	c0.1,0,0.1,0.1,0.1,0.2c0,0.3,0,0.5,0,0.8c-0.3,0.4-0.2,1-0.3,1.4c0,0.1,0,0.1,0,0.1c0,0,0,0,0.1-0.1c0.1,0,0.2,0,0.2,0.1
	c0,0.3,0,0.5,0,0.8c0,0.1-0.1,0.2-0.1,0.2c-0.2,0.4-0.1,0.9-0.2,1.3c0,0,0,0.1,0,0.1c0,0,0.1,0,0.1,0c0.1,0,0.1,0.1,0.1,0.2
	c0,0.3,0.1,0.6-0.1,0.9c-0.2,0.4-0.1,0.8-0.1,1.3c0.1,0.3,0.2,0.6,0.2,1c0,0.1-0.1,0.2-0.1,0.2c-0.2,0.4-0.2,0.8,0,1.3
	c0,0.1,0.1,0.2,0.1,0.2c0,0.3,0,0.5,0,0.8c-0.1,0.3,0,0.6-0.3,0.8c-0.6-0.2-0.7,0.4-1.1,0.6c-0.5,0-1.1,0-1.6,0.3
	c-0.2,0.1-0.4,0.1-0.5,0.3c-0.3,0.1-0.5,0.1-0.8,0.2c-0.4,0-0.9-0.2-1.2,0.4c-0.4,0.1-0.7,0.1-1.1,0.2c-0.2-0.1-0.4-0.1-0.6,0
	c-0.1,0-0.1,0-0.2,0c-0.2,0-0.5,0.1-0.4,0.4c-0.3,0.1-0.6,0.1-0.9,0.2c-0.2,0.1-0.3-0.1-0.5-0.1c-0.3,0-0.6,0.1-0.8,0.2
	c-0.2,0.1-0.4,0.3-0.6,0.4c-0.3,0.1-0.6,0.2-0.9,0.2c-0.1-0.2-0.3-0.2-0.4-0.1c-0.3,0-0.7,0.1-1,0.2c-0.1,0.1-0.2,0.1-0.3,0
	c-0.4-0.1-0.7-0.2-1.1-0.2c-0.1,0-0.1-0.1-0.1-0.2c-0.2-0.2-0.4-0.2-0.6-0.2c-0.2,0-0.3,0.1-0.5,0c-0.4-0.1-0.7-0.2-1.1-0.2
	c-0.1,0-0.1-0.1-0.2-0.2c-0.2-0.2-0.4-0.2-0.7-0.3C283.8,436.7,283.7,436.8,283.6,436.8z"/>
<path class="st96" d="M301.3,426.3c0-0.3,0-0.5,0-0.8c-0.2-0.4-0.2-0.9-0.1-1.3c0-0.1,0.1-0.2,0.2-0.3c0-0.3,0-0.6,0-0.9
	c-0.2-0.4-0.2-0.9-0.1-1.3c0-0.1,0.1-0.2,0.2-0.3c0-0.2,0-0.5,0-0.7c-0.2-0.6-0.2-1.1,0-1.7c0-0.3,0-0.5,0-0.8
	c-0.2-0.6-0.2-1.1,0-1.7c0-0.3,0-0.5,0-0.8c-0.2-0.6-0.2-1.1,0-1.7c0-0.2,0-0.4,0-0.6c-0.3-0.6-0.3-1.2,0-1.8c0-0.2,0-0.4,0-0.6
	c-0.2-0.6-0.2-1.2,0-1.8c0-0.2,0-0.4,0-0.6c-0.2-0.6-0.2-1.2,0-1.8c-1.1-0.6-0.9,0.3-0.9,0.8c-0.2,0-0.3,0-0.2-0.2
	c-0.1-0.6-0.5-0.8-1.1-0.8c-7.5,0-15,0-22.5,0.1c-0.4,0-0.7,0-1,0.4c-0.2,0.1-0.3-0.1-0.4-0.2c-0.1-0.1-0.1-0.1-0.2-0.2
	c0.2-0.3,0.5-0.2,0.8-0.2c8.2,0,16.4,0,24.7-0.1c0.8,0,1,0.2,1,1c0,8.8,0,17.7,0,26.5c0,0.3,0.1,0.6-0.1,0.9c-0.2-0.3-0.1-0.6,0-1
	c0-0.3,0-0.5,0-0.8c-0.2-0.6-0.2-1.1,0-1.7c0.1-0.4-0.1-0.6-0.3-0.9c0.3-0.5,0-1,0.2-1.5c0.3-0.3,0.1-0.6,0.2-0.9
	C301.1,427.4,301.1,426.8,301.3,426.3z"/>
<path class="st97" d="M275,434.7c0.4-0.4,0-0.9,0.4-1.3c0.4,0.5,0.1,1.1,0.4,1.6C275.5,434.9,275.2,435,275,434.7z"/>
<path class="st94" d="M296,436.2c0.1-0.2-0.7-0.2-0.1-0.4c0.4-0.1,0.9-0.8,1.3,0C296.8,436.2,296.4,436.2,296,436.2z"/>
<path class="st94" d="M298.2,435.3c0.6-0.5,1.2-0.3,1.8-0.2c-0.3,0.3-0.7,0.2-1,0.3C298.8,435.3,298.4,435.5,298.2,435.3z"/>
<path class="st98" d="M278.8,435.7c0.1-0.5,0.4-0.3,0.6-0.1c0.3,0.1,0.6,0.1,0.8,0.4c0,0,0,0.1,0,0.1
	C279.7,436,279.2,436,278.8,435.7z"/>
<path class="st99" d="M281.3,436.3c0-0.8,0.5-0.1,0.7-0.2c0.1,0,0.6,0,0.2,0.4C282,436.4,281.6,436.3,281.3,436.3z"/>
<path class="st88" d="M276.5,435.1c0.4-0.4,0.7-0.3,1,0.2C277.1,435.4,276.9,435.1,276.5,435.1z"/>
<path class="st100" d="M292.3,436.7c0.1,0.1,0.3,0.2,0.4,0.3c-0.4,0.2-0.8,0.3-1.2,0.3c-0.1-0.1-0.1-0.2,0-0.2
	C291.7,436.9,292.2,437,292.3,436.7z"/>
<path class="st101" d="M298.2,435.3c0.3,0.1,0.6-0.1,0.8,0.2c-0.4,0.1-0.7,0.1-1.1,0.2C297.9,435.5,297.8,435.2,298.2,435.3z"/>
<path class="st98" d="M294.3,436.5c-0.1-0.2,0.1-0.4,0.3-0.4c0.3,0,0.3,0.2,0.3,0.4C294.7,436.7,294.5,436.8,294.3,436.5z"/>
<path class="st102" d="M283.6,436.8c0-0.2,0-0.4,0.2-0.4c0.2,0.4,0.8,0.1,0.9,0.6c0,0,0,0.1,0,0.1
	C284.3,437.1,283.9,437.1,283.6,436.8z"/>
<path class="st103" d="M285.9,437.4c0.1-0.1,0.3-0.1,0.4-0.2c0.2,0.3,0.7-0.2,0.8,0.4c0,0.1,0,0.1,0,0.2
	C286.6,437.7,286.2,437.6,285.9,437.4z"/>
<path class="st85" d="M293.7,436.8c0-0.3-0.3,0-0.4-0.3c0.3-0.1,0.5-0.4,0.9-0.1C294,436.6,293.9,436.8,293.7,436.8z"/>
<path class="st104" d="M289.5,437.6c0.3-0.2,0.3,0,0.3,0.2c-0.2,0.2-0.4,0.2-0.7,0.2c-0.2,0.1-0.3,0-0.3-0.2
	C289,437.6,289.3,437.6,289.5,437.6z"/>
<path class="st105" d="M288.9,437.8c0.1,0.1,0.2,0.1,0.3,0.2c-0.4,0.2-0.7,0.2-1.1,0c0.1-0.1,0.2-0.2,0.3-0.3
	C288.6,437.7,288.8,437.6,288.9,437.8z"/>
<path class="st106" d="M291.6,437.2c0,0.1,0,0.1,0,0.2c-0.3,0.1-0.5,0.1-0.8,0.2c0.1-0.2,0.2-0.4,0.4-0.6
	C291.3,437.1,291.5,437,291.6,437.2z"/>
<path class="st107" d="M301.3,433.7c0,0.3,0,0.6,0,1c-0.1,0.1-0.2,0-0.2-0.1C301.1,434.2,301,433.9,301.3,433.7z"/>
<path class="st108" d="M260.5,393.1c-0.1-0.2-0.2-0.3-0.3-0.5c-0.4-0.3-0.3-0.6,0-0.9l0-0.1c0.3-0.3,0.7-0.5,1.1-0.3
	c0.1,0.1,0.3,0.1,0.4,0.2c0.6,0.5,0.3,0.9,0,1.4c-0.1,0.1-0.3,0.1-0.4,0.2C261,393.3,260.8,393.4,260.5,393.1z"/>
<path class="st109" d="M260.2,391.7c0,0.3,0,0.6,0,0.9c-0.4,0.1-0.4-0.2-0.4-0.5C259.8,391.9,259.7,391.6,260.2,391.7z"/>
<path class="st110" d="M261.3,391.4c-0.4-0.1-0.8,0.2-1.1,0.3C260.4,390.9,260.7,390.7,261.3,391.4z"/>
<path class="st62" d="M261.7,393c0.1-0.5,0.3-0.9,0-1.4c0.1,0,0.2,0,0.3,0c0.2,0.4,0.2,0.8,0,1.2C261.9,392.8,261.8,392.9,261.7,393
	z"/>
<path class="st111" d="M260.5,393.1c0.2,0,0.5,0,0.7,0C261,393.8,260.8,393.6,260.5,393.1z"/>
<path class="st112" d="M262,392.8c0-0.4,0-0.8,0-1.2C262.4,392,262.3,392.4,262,392.8z"/>
<path class="st113" d="M261.1,371.5c0.1,0.1,0.1,0.2,0.2,0.3c0.2,0.3,0.2,0.6,0.1,0.9c0,0.1-0.1,0.2-0.2,0.2c-0.1,0-0.3,0-0.4,0
	c-0.3-0.1-0.2-0.5-0.4-0.5c-0.1,0-0.1,0.3-0.1,0.4c-0.1,0.1-0.2,0.2-0.3,0.2c-0.2-0.1-0.3-0.2-0.4-0.4c0.1-0.3-0.2-0.7,0.1-1
	c0.1,0,0.1,0,0.1,0C260.2,371.2,260.6,371.3,261.1,371.5z"/>
<path class="st57" d="M261.1,371.5c-0.4,0.2-0.9-0.2-1.4,0.1c0.1-0.1,0.1-0.2,0.2-0.3c0.3-0.3,0.6-0.2,0.9-0.1
	C260.9,371.3,261,371.4,261.1,371.5z"/>
<path class="st114" d="M261.2,372.7c0-0.3,0-0.6,0-0.9c0.6,0.2,0.4,0.6,0.2,1C261.4,372.8,261.3,372.8,261.2,372.7z"/>
<path class="st115" d="M260.9,373.3c-0.4,0.3-0.7,0.2-1.1,0c0-0.1,0.1-0.1,0.2-0.2C260.2,373.1,260.5,373.1,260.9,373.3
	C260.8,373.2,260.9,373.3,260.9,373.3z"/>
<path class="st116" d="M261.2,372.7c0.1,0,0.2,0,0.2,0c0,0.3-0.2,0.5-0.6,0.6c0,0,0,0,0,0c-0.1-0.1,0-0.3,0-0.4
	c0.1-0.1,0.1-0.1,0.2-0.2C261.1,372.7,261.2,372.7,261.2,372.7z"/>
<path class="st117" d="M259.6,371.6c0,0.4-0.1,0.7,0,1.1c-0.1,0.1-0.2,0.1-0.2,0C259.5,372.4,259.2,371.9,259.6,371.6z"/>
<path class="st118" d="M260.9,371.2c-0.3,0-0.6,0-0.9,0.1C260.2,370.9,260.5,371,260.9,371.2z"/>
<path class="st119" d="M259.4,372.7c0.1,0,0.2,0,0.2,0c0.1,0.1,0.2,0.1,0.3,0.2c0.1,0,0.1,0.1,0.1,0.2c0,0.1,0,0.1-0.1,0.2
	c-0.1,0-0.1,0-0.2,0.1C259.6,373.2,259.5,373,259.4,372.7z"/>
<path class="st120" d="M260.5,420.2c0-0.1,0-0.1,0-0.2c0,0-0.1-0.1-0.1-0.2c0-0.1,0-0.1,0-0.1c0.2-0.2,0.7-0.4,0-0.6
	c-0.1-0.1-0.2-0.2-0.2-0.3c0-0.3,0.2-0.4,0.4-0.5c0.4-0.1,0.7,0,0.9,0.2l0,0l0,0c0.5,0.4,0.5,0.9,0,1.3l0,0
	C261.3,420.3,261,420.6,260.5,420.2z"/>
<path class="st121" d="M261.7,420c0.1-0.5,0.1-0.9,0-1.3c0.1,0,0.3,0,0.4,0c0,0.1,0,0.2,0,0.2c0.1,0.3,0.1,0.6,0,0.9
	c0,0.1,0,0.1,0,0.2C261.9,420,261.8,420,261.7,420z"/>
<path class="st122" d="M260.4,418.9c0.1,0.1,0.1,0.2,0.2,0.2c0.4,0.2,0.2,0.4,0,0.7c0,0.1,0,0.2,0,0.3c-0.1-0.1-0.2-0.2-0.3-0.2
	c-0.2-0.2-0.2-0.4-0.2-0.7C260.1,419,260.2,418.9,260.4,418.9z"/>
<path class="st60" d="M260.5,420.2c0.4-0.1,0.8-0.1,1.2-0.2c0,0.2-0.1,0.3-0.2,0.4c-0.3,0.1-0.6,0.2-0.9-0.1
	C260.5,420.3,260.5,420.3,260.5,420.2z"/>
<path class="st2" d="M260.4,418.9c-0.1,0.1-0.1,0.1-0.2,0.2c-0.1,0-0.1,0-0.2,0c-0.1,0-0.1-0.1-0.2-0.1c0.1-0.3,0.5-0.3,0.6-0.6
	c0.1,0,0.1,0,0.2,0c0.1,0.1,0.2,0.1,0.2,0.3C260.6,418.7,260.5,418.8,260.4,418.9z"/>
<path class="st60" d="M260.7,418.5c-0.1-0.1-0.1-0.1-0.2-0.2c0.3-0.1,0.6-0.1,0.9,0c0.1,0.1,0.1,0.2,0.2,0.3
	C261.3,418.6,261,418.6,260.7,418.5z"/>
<path class="st118" d="M259.8,418.9c0.1,0,0.1,0,0.2,0c0.1,0.3,0.1,0.6,0,0.9C259.5,419.6,259.9,419.2,259.8,418.9z"/>
<path class="st123" d="M261.4,418.3c-0.3,0-0.6,0-0.9,0c0,0-0.1,0-0.2,0C260.7,418.1,261.1,418,261.4,418.3z"/>
<path class="st65" d="M260,419.8c0-0.3,0-0.6,0-0.9c0.1,0.1,0.1,0.1,0.2,0.2c0,0.2,0,0.5,0,0.7C260.2,419.8,260.1,419.8,260,419.8
	L260,419.8z"/>
<path class="st124" d="M260.5,420.4c0.3,0,0.6,0,0.9,0.1C261.1,420.7,260.8,420.8,260.5,420.4z"/>
<path class="st125" d="M262.1,419.8c0-0.3,0-0.6,0-0.9C262.3,419.2,262.3,419.5,262.1,419.8z"/>
<path class="st126" d="M303.1,366.4c-0.6,0.1-0.9-0.1-1.3-0.4C302.4,365.8,302.7,366,303.1,366.4z"/>
<path class="st127" d="M286.8,361c-0.4,0.1-0.8,0-1.2-0.4C286.2,360.5,286.5,360.8,286.8,361z"/>
<path class="st128" d="M296,364.2c-0.3-0.1-0.6-0.2-1-0.3c0.6-0.3,0.8,0,1.1,0.1C296,364,296,364.1,296,364.2z"/>
<path class="st65" d="M291,362.4c-0.4,0-0.6-0.1-1-0.3c0.4-0.2,0.6,0.1,0.9,0.2C291,362.3,291,362.4,291,362.4z"/>
<path class="st42" d="M293.2,363c0.2,0,0.5,0,0.5,0.3c-0.3,0.2-0.5-0.1-0.8-0.1C292.9,363,293,362.9,293.2,363z"/>
<path class="st129" d="M293.2,363c-0.1,0.1-0.2,0.1-0.3,0.2c-0.2-0.1-0.4-0.2-0.8-0.3C292.7,362.7,293,362.8,293.2,363z"/>
<path class="st64" d="M288.1,361.5c0.4-0.3,0.5,0,0.9,0.1C288.6,361.8,288.4,361.7,288.1,361.5z"/>
<path class="st78" d="M291,362.4c0,0,0-0.1,0-0.1c0.2,0,0.4,0.1,0.6,0.2C291.3,362.7,291.2,362.6,291,362.4z"/>
<path class="st130" d="M275.4,420.2c-0.2-0.5-0.3-1,0-1.8C275.7,419.2,275.6,419.7,275.4,420.2z"/>
<path class="st131" d="M275.4,430c-0.3-0.5-0.2-1-0.1-1.6C275.7,429,275.6,429.5,275.4,430z"/>
<path class="st131" d="M275.4,426c0.3,0.5,0.2,1,0.1,1.6C275,427.1,275.2,426.6,275.4,426z"/>
<path class="st130" d="M275.4,410.4c-0.3-0.5-0.3-1-0.1-1.7C275.8,409.3,275.5,409.9,275.4,410.4z"/>
<path class="st131" d="M275.5,423.3c0.1,0.8,0.2,1.3-0.1,1.8C275.2,424.6,275.1,424.1,275.5,423.3z"/>
<path class="st131" d="M275.6,412.6c-0.1,0.2-0.2,0.4-0.3,0.1c-0.1-0.4-0.1-0.9,0-1.3c0-0.1,0.1-0.2,0.2-0.2
	c0.2,0.1,0.1,0.3,0.1,0.5C275.7,412.1,275.7,412.4,275.6,412.6z"/>
<path class="st131" d="M275.4,421.1c0.3,0.5,0.2,1,0.1,1.7C275,422.2,275.2,421.6,275.4,421.1z"/>
<path class="st97" d="M275.4,413.8c0.2,0.5,0.2,1,0,1.7C275.1,414.8,275.2,414.3,275.4,413.8z"/>
<path class="st97" d="M275.4,416.3c0.3,0.5,0.3,1,0.1,1.6C275.1,417.3,275.2,416.7,275.4,416.3z"/>
<path class="st97" d="M275.4,432.4c-0.3-0.5-0.3-1-0.1-1.6C275.7,431.4,275.5,431.9,275.4,432.4z"/>
<path class="st132" d="M300.4,409c0.2,0.5,0.2,0.8-0.1,1.4C300.2,409.9,300,409.5,300.4,409z"/>
<path class="st131" d="M275.2,406.7c0.1,0.1,0.2,0.1,0.4,0.2c0,0.4,0.1,0.7-0.1,1.2C275,407.6,275.3,407.1,275.2,406.7z"/>
<path class="st133" d="M300.9,413.2c0-0.3-0.5-0.2-0.5-0.6c0.3-0.2,0.1-0.7,0.4-1c0.1,0,0.1,0,0.2,0c0.3,0.4,0.2,0.9,0.1,1.3
	C301,413.1,301,413.2,300.9,413.2z"/>
<path class="st134" d="M275.9,411c-0.1-0.7,0.1-1.1,0.2-1.6C276.2,409.9,276.2,410.4,275.9,411z"/>
<path class="st135" d="M300.8,411.6c-0.1,0.4,0,0.8-0.4,1c0.2-0.3,0-0.6,0-0.9C300.4,411.3,300.6,411.4,300.8,411.6z"/>
<path class="st57" d="M301.3,421.4c0,0.1,0,0.1,0,0.2c-0.2,0.4,0,0.9-0.2,1.4C300.7,422.5,300.8,421.8,301.3,421.4z"/>
<path class="st96" d="M301.3,411.6c0,0.6,0,1.2,0,1.8c-0.1-0.1-0.3-0.2-0.4-0.2c0,0,0.1,0,0.1,0c0.2-0.5,0-1,0.2-1.5
	C301.2,411.6,301.2,411.6,301.3,411.6z"/>
<path class="st95" d="M284.7,437c-0.2-0.4-0.9,0.1-0.9-0.6c0.3,0.1,0.6,0.1,0.9,0.2C285,436.7,285,436.9,284.7,437z"/>
<path class="st61" d="M301.3,423.8c0,0.1,0,0.1,0,0.2c-0.3,0.4,0,0.9-0.2,1.3C300.7,424.9,300.8,424.2,301.3,423.8z"/>
<path class="st58" d="M301.1,408.4c-0.3-0.6-0.3-1.1,0-1.7C301.3,407.3,301.3,407.8,301.1,408.4z"/>
<path class="st136" d="M301.1,408.4c0-0.6,0-1.1,0-1.7c0.1,0,0.1-0.1,0.2-0.1c0,0.6,0,1.2,0,1.8
	C301.2,408.4,301.2,408.4,301.1,408.4z"/>
<path class="st58" d="M301.1,410.8c-0.2-0.6-0.3-1.1,0-1.7C301.3,409.7,301.3,410.3,301.1,410.8z"/>
<path class="st136" d="M301.1,410.8c0-0.6,0-1.1,0-1.7c0.1,0,0.1,0,0.2-0.1c0,0.6,0,1.2,0,1.8C301.2,410.9,301.1,410.9,301.1,410.8z
	"/>
<path class="st58" d="M278.2,412.4c0.5,0,1,0,1.5,0C279.2,412.7,278.7,412.7,278.2,412.4z"/>
<path class="st58" d="M282.1,412.6c-0.5,0-1,0-1.5,0C281.1,412.3,281.6,412.4,282.1,412.6z"/>
<path class="st65" d="M282.9,412.5c0.7-0.1,1.2-0.1,1.9,0C284.1,412.7,283.6,412.7,282.9,412.5z"/>
<path class="st55" d="M292.7,412.5c0.7-0.1,1.2-0.2,1.9,0C293.9,412.7,293.4,412.7,292.7,412.5z"/>
<path class="st137" d="M296.8,412.5c-0.5,0.2-1,0.2-1.7,0.1C295.8,412.3,296.3,412.4,296.8,412.5z"/>
<path class="st137" d="M297.8,412.5c0.5,0,1,0,1.5,0C298.8,412.8,298.3,412.7,297.8,412.5z"/>
<path class="st57" d="M301.1,427.9c-0.3-0.4-0.3-0.8,0-1.5C301.3,426.9,301.2,427.4,301.1,427.9z"/>
<path class="st82" d="M291.6,437.2c-0.1,0-0.4,0.1-0.4-0.2c0.4-0.1,0.7-0.2,1.1-0.3C292.4,437.2,291.7,436.9,291.6,437.2z"/>
<path class="st56" d="M301.1,420.6c-0.3-0.5-0.3-1,0-1.5C301.3,419.6,301.3,420.1,301.1,420.6z"/>
<path class="st96" d="M301.1,420.6c0-0.5,0-1,0-1.5c0.1,0,0.1-0.1,0.2-0.1c0,0.6,0,1.1,0,1.7C301.2,420.7,301.2,420.6,301.1,420.6z"
	/>
<path class="st65" d="M285.6,412.6c0.5-0.2,0.9-0.1,1.4-0.1C286.5,412.7,286,412.6,285.6,412.6z"/>
<path class="st54" d="M300.2,407.2c0.1,0.1,0.1,0.2,0.2,0.2c0,0.2,0,0.4,0,0.8C299.9,407.9,299.9,407.6,300.2,407.2z"/>
<path class="st56" d="M301.1,415.7c-0.4-0.5-0.3-1,0-1.5C301.3,414.6,301.3,415.1,301.1,415.7z"/>
<path class="st102" d="M301.1,415.7c0-0.5,0-1,0-1.5c0.1,0,0.1,0,0.2-0.1c0,0.6,0,1.1,0,1.7C301.2,415.7,301.2,415.7,301.1,415.7z"
	/>
<path class="st54" d="M288.9,437.8c-0.2,0-0.3-0.1-0.5-0.1c0.4-0.2,0.7-0.4,1.1-0.1C289.4,437.8,289.1,437.7,288.9,437.8z"/>
<path class="st65" d="M289.6,412.5c-0.7,0.1-1.1,0.1-1.8,0C288.5,412.4,289,412.4,289.6,412.5z"/>
<path class="st65" d="M290.5,412.5c0.5-0.2,0.9-0.2,1.6,0C291.5,412.7,291,412.7,290.5,412.5z"/>
<path class="st96" d="M301.1,427.9c0-0.5,0-1,0-1.5c0.1,0,0.1-0.1,0.2-0.1c0,0.6,0,1.1,0,1.7C301.3,427.9,301.2,427.9,301.1,427.9z"
	/>
<path class="st65" d="M275.8,412.3c0.5,0,1,0.1,1.4,0.1c-0.5,0.2-1,0.2-1.5,0.1C275.7,412.5,275.7,412.4,275.8,412.3z"/>
<path class="st138" d="M276.2,407.7c0-0.2-0.1-0.6,0.2-0.5c0.4,0.2,0.2,0.6,0,0.9C276.2,408,276.3,407.8,276.2,407.7z"/>
<path class="st56" d="M301.1,428.8c-0.1,0.5,0.2,1.1-0.2,1.5C301,429.8,300.7,429.3,301.1,428.8z"/>
<path class="st56" d="M301.1,411.7c-0.1,0.5,0.2,1-0.2,1.5c0-0.5,0-1,0-1.5C301,411.6,301.1,411.6,301.1,411.7z"/>
<path class="st56" d="M301.1,418.1c-0.3-0.5-0.3-1,0-1.5C301.3,417.1,301.3,417.6,301.1,418.1z"/>
<path class="st102" d="M301.1,418.1c0-0.5,0-1,0-1.5c0.1,0,0.1,0,0.1-0.1c0,0.6,0,1.1,0,1.7C301.2,418.2,301.2,418.2,301.1,418.1z"
	/>
<path class="st56" d="M301.1,432.8c-0.4-0.5-0.3-1,0-1.5C301.3,431.8,301.3,432.3,301.1,432.8z"/>
<path class="st102" d="M301.1,432.8c0-0.5,0-1,0-1.5c0.1,0,0.1,0,0.2-0.1c0,0.6,0,1.1,0,1.7C301.2,432.9,301.2,432.8,301.1,432.8z"
	/>
<path class="st62" d="M287,437.6c-0.2-0.3-0.6,0-0.8-0.4c0.3-0.1,0.7,0,1,0.1c0.1,0,0.2,0.1,0.1,0.3
	C287.2,437.6,287.1,437.6,287,437.6z"/>
<path class="st96" d="M301.2,422.9c0-0.5-0.2-0.9,0.2-1.4c0,0.5,0,0.9,0,1.4C301.3,422.9,301.2,422.9,301.2,422.9z"/>
<path class="st96" d="M301.2,425.4c0.1-0.4-0.2-0.9,0.2-1.3c0,0.5,0,0.9,0,1.4C301.3,425.4,301.2,425.4,301.2,425.4z"/>
<path class="st139" d="M280.2,435.9c-0.3,0-0.5-0.2-0.8-0.4c0.3-0.1,0.7,0,0.9,0.2C280.6,435.9,280.3,435.8,280.2,435.9z"/>
<path class="st59" d="M276.2,407.7c0.1,0.1,0.1,0.3,0.2,0.4c0,0.2,0.1,0.4-0.2,0.5C276,408.3,276.2,408,276.2,407.7z"/>
<path class="st79" d="M275.8,412.3c0,0.1,0,0.2,0,0.2c-0.1,0-0.1,0-0.2,0.1c0-0.3,0-0.5,0-0.8C276,411.9,275.8,412.1,275.8,412.3z"
	/>
<path class="st99" d="M261.3,392.2c0.1,0.3,0,0.3-0.3,0.3c-0.4,0-0.3-0.2-0.3-0.4c-0.1-0.4,0.3-0.2,0.4-0.2
	C261.5,391.8,261.3,392,261.3,392.2z"/>
<path class="st88" d="M260.2,372.7c-0.2-0.2-0.2-0.5,0-0.7c0,0,0.2,0,0.4,0c0.4,0.1,0.2,0.5,0.2,0.7
	C260.5,372.8,260.3,372.8,260.2,372.7z"/>
<path class="st140" d="M260.2,372.7c0.2-0.2,0.3-0.1,0.5,0c0.1,0,0.3,0,0.4,0c0,0.1,0,0.1,0,0.2c-0.4,0.2-0.7,0.4-1.1,0.2
	c0-0.1,0-0.1,0-0.2C260,372.9,260.1,372.8,260.2,372.7z"/>
<path class="st57" d="M259.9,373.1c0.4-0.1,0.8-0.1,1.1-0.2c-0.1,0.1-0.1,0.3-0.2,0.4c-0.3,0-0.6,0-1,0
	C260,373.2,260,373.2,259.9,373.1z"/>
<path class="st141" d="M260.5,419.8c-0.1-0.2,0.2-0.4,0-0.7c0.4-0.1,0.7,0,0.7,0.4C261.2,419.9,260.8,419.7,260.5,419.8z"/>
</svg>
