<?xml version="1.0" encoding="utf-8"?>
<svg version="1.1" xmlns="http://www.w3.org/2000/svg" xmlns:xlink="http://www.w3.org/1999/xlink" x="0px" y="0px"
	 width="8.552px" height="7.92px" viewBox="0 0 8.552 7.92" enable-background="new 0 0 8.552 7.92" xml:space="preserve">
<path fill="red" d="M4.276,5.17c-0.168,0-0.245-0.135-0.245-0.305V2.123c0-0.168,0.077-0.305,0.245-0.305
	c0.168,0,0.246,0.137,0.246,0.305v2.743C4.521,5.035,4.444,5.17,4.276,5.17 M3.919,6.238c0,0.197,0.16,0.357,0.357,0.357
	s0.358-0.16,0.358-0.357S4.473,5.881,4.276,5.881S3.919,6.041,3.919,6.238"/>
<path fill="red" d="M8.377,6.402L5.134,0.595C4.923,0.217,4.609,0,4.274,0s-0.649,0.217-0.86,0.595l-3.24,5.807
	c-0.209,0.375-0.23,0.76-0.058,1.055C0.289,7.751,0.635,7.92,1.065,7.92h6.421c0.432,0,0.777-0.169,0.949-0.463
	C8.607,7.162,8.588,6.778,8.377,6.402 M8.072,7.154c-0.18,0.322-0.521,0.329-0.908,0.329H1.389c-0.388,0-0.686-0.019-0.841-0.28
	C0.392,6.94,0.636,6.468,0.825,6.133l2.802-4.967c0.189-0.337,0.346-0.707,0.647-0.707c0.301,0,0.405,0.276,0.595,0.612l2.857,5.061
	C7.914,6.468,8.219,6.889,8.072,7.154"/>
</svg>